<svg width="29" height="32" viewBox="0 0 29 32" fill="none" xmlns="http://www.w3.org/2000/svg">
<path d="M6.83331 14.25H9.99998V17.4167H6.83331V14.25ZM6.83331 20.5833H9.99998V23.75H6.83331V20.5833ZM13.1666 14.25H16.3333V17.4167H13.1666V14.25ZM13.1666 20.5833H16.3333V23.75H13.1666V20.5833ZM19.5 14.25H22.6666V17.4167H19.5V14.25ZM19.5 20.5833H22.6666V23.75H19.5V20.5833Z" fill="#0053BA"/>
<path d="M3.66667 31.6667H25.8333C27.5798 31.6667 29 30.2464 29 28.5V6.33333C29 4.58692 27.5798 3.16667 25.8333 3.16667H22.6667V0H19.5V3.16667H10V0H6.83333V3.16667H3.66667C1.92025 3.16667 0.5 4.58692 0.5 6.33333V28.5C0.5 30.2464 1.92025 31.6667 3.66667 31.6667ZM25.8333 9.5L25.8349 28.5H3.66667V9.5H25.8333Z" fill="#0053BA"/>
</svg>
