<svg width="19" height="29" viewBox="0 0 19 29" fill="none" xmlns="http://www.w3.org/2000/svg">
<path d="M2.1001 9.289V19.2667C2.1001 21.2293 2.87974 23.1115 4.26751 24.4993C5.65528 25.887 7.5375 26.6667 9.5001 26.6667C11.4627 26.6667 13.3449 25.887 14.7327 24.4993C16.1205 23.1115 16.9001 21.2293 16.9001 19.2667V6.93333C16.9001 5.62493 16.3803 4.37012 15.4552 3.44494C14.53 2.51976 13.2752 2 11.9668 2C10.6584 2 9.40355 2.51976 8.47837 3.44494C7.55319 4.37012 7.03343 5.62493 7.03343 6.93333V18.2578C7.03343 18.5817 7.09723 18.9025 7.22119 19.2018C7.34516 19.501 7.52685 19.7729 7.7559 20.002C7.98495 20.231 8.25688 20.4127 8.55615 20.5367C8.85541 20.6607 9.17617 20.7245 9.5001 20.7245V20.7245C10.1543 20.7245 10.7817 20.4646 11.2443 20.002C11.7069 19.5394 11.9668 18.912 11.9668 18.2578V9.4" stroke="#0053BA" stroke-width="3.17" stroke-linecap="round" stroke-linejoin="round"/>
</svg>
