<svg width="51" height="50" viewBox="0 0 51 50" fill="none" xmlns="http://www.w3.org/2000/svg">
<path d="M25.4166 0C11.6316 0 0.416626 11.215 0.416626 25C0.416626 38.785 11.6316 50 25.4166 50C39.2016 50 50.4166 38.785 50.4166 25C50.4166 11.215 39.2016 0 25.4166 0ZM25.4166 45C14.3891 45 5.41663 36.0275 5.41663 25C5.41663 13.9725 14.3891 5 25.4166 5C36.4441 5 45.4166 13.9725 45.4166 25C45.4166 36.0275 36.4441 45 25.4166 45Z" fill="white"/>
<path d="M27.9166 12.4998H22.9166V26.0348L31.1491 34.2673L34.6841 30.7323L27.9166 23.9648V12.4998Z" fill="white"/>
</svg>
