<svg width="147" height="747" viewBox="0 0 147 747" fill="none" xmlns="http://www.w3.org/2000/svg">
<path d="M143 744.892V710.145C143 704.398 142.289 699.007 140.867 693.971C139.445 688.876 137.401 684.225 134.735 680.019C132.484 676.405 129.7 673.087 126.382 670.065C123.005 667.044 119.332 664.408 115.362 662.156C110.919 659.786 106.031 657.95 100.699 656.646C95.3672 655.343 89.7093 654.691 83.7256 654.691H73.0615C66.8408 654.691 60.9756 655.402 55.4658 656.824C49.9561 658.187 44.9202 660.142 40.3584 662.689C36.626 664.882 33.1898 667.459 30.0498 670.421C26.8506 673.324 24.1549 676.642 21.9629 680.374C19.2969 684.64 17.2529 689.379 15.8311 694.593C14.3499 699.806 13.6094 705.405 13.6094 711.389V744.892H143ZM33.8711 719.742V711.389C33.8711 708.367 34.2266 705.583 34.9375 703.035C35.5892 700.428 36.5371 698.059 37.7812 695.926C39.4401 693.141 41.5729 690.712 44.1797 688.639C46.7865 686.506 49.7487 684.788 53.0664 683.484C55.8509 682.418 58.9316 681.618 62.3086 681.085C65.6263 680.493 69.1514 680.196 72.8838 680.196H83.7256C87.695 680.196 91.3978 680.493 94.834 681.085C98.2109 681.618 101.292 682.418 104.076 683.484C107.275 684.788 110.09 686.358 112.519 688.194C114.888 689.972 116.843 691.986 118.384 694.237C119.865 696.429 120.991 698.858 121.761 701.524C122.531 704.19 122.916 707.064 122.916 710.145V719.742H33.8711ZM144.777 587.508C144.777 578.206 142.97 570.149 139.356 563.336C135.743 556.523 131.714 551.546 127.271 548.406L113.94 560.759C117.614 563.603 120.368 567.305 122.205 571.867C124.042 576.429 124.96 581.139 124.96 585.997C124.96 589.433 124.427 592.603 123.36 595.506C122.294 598.409 120.783 600.986 118.828 603.237C116.932 605.429 114.829 607.177 112.519 608.48C110.149 609.784 107.038 610.85 103.188 611.68H102.921V546.451H92.4346C85.3844 546.451 78.9564 547.429 73.1504 549.384C67.2852 551.339 62.279 554.183 58.1318 557.915C53.9847 561.707 50.7855 566.328 48.5342 571.778C46.2236 577.17 45.0684 583.331 45.0684 590.263C45.0684 596.957 46.2829 603.148 48.7119 608.836C51.141 614.523 54.5475 619.441 58.9316 623.588C63.3158 627.735 68.5589 630.964 74.6611 633.274C80.7041 635.585 87.3988 636.74 94.7451 636.74H98.2998C104.757 636.74 110.83 635.585 116.518 633.274C122.146 630.905 127.034 627.557 131.181 623.232C135.387 618.908 138.705 613.724 141.134 607.681C143.563 601.638 144.777 594.913 144.777 587.508ZM65.0635 590.44C65.0635 587.3 65.5671 584.546 66.5742 582.176C67.5221 579.747 68.8255 577.703 70.4844 576.044C72.2025 574.385 74.2168 573.082 76.5273 572.134C78.8379 571.186 81.2965 570.712 83.9033 570.712H85.8584V611.235C82.7184 610.643 79.8747 609.754 77.3271 608.569C74.7796 607.384 72.5876 605.903 70.751 604.126C68.9144 602.408 67.5221 600.394 66.5742 598.083C65.5671 595.772 65.0635 593.225 65.0635 590.44ZM143 494.286V471.092L46.8457 434.567V460.339L114.651 481.4L121.405 482.733L114.651 484.066L46.8457 505.217V530.988L143 494.286ZM143 391.645V366.851H65.0635V332.192H46.8457V366.851H41.6025C38.7588 366.851 36.2113 366.495 33.96 365.784C31.7087 365.014 29.8128 363.859 28.2725 362.318C26.4359 360.6 25.0436 358.29 24.0957 355.387C23.1478 352.484 22.6738 348.959 22.6738 344.812C22.6738 340.961 22.8516 337.613 23.207 334.77C23.5625 331.926 23.9772 329.378 24.4512 327.127L5.07813 325.527C4.72266 327.542 4.39681 329.497 4.10059 331.393C3.80436 333.229 3.53776 335.066 3.30078 336.902C3.0638 338.739 2.88607 340.635 2.76758 342.59C2.58984 344.486 2.50098 346.47 2.50098 348.544C2.50098 355.12 3.36003 361.074 5.07813 366.406C6.73698 371.738 9.22526 376.271 12.543 380.003C15.8607 383.735 19.9486 386.609 24.8066 388.623C29.6647 390.637 35.2633 391.645 41.6025 391.645H46.8457L46.8457 416.883H65.0635L65.0635 391.645H143ZM144.777 259.588C144.777 250.286 142.97 242.229 139.356 235.416C135.743 228.603 131.714 223.626 127.271 220.486L113.94 232.839C117.614 235.683 120.368 239.385 122.205 243.947C124.042 248.509 124.96 253.219 124.96 258.077C124.96 261.513 124.427 264.683 123.36 267.586C122.294 270.489 120.783 273.066 118.828 275.317C116.932 277.509 114.829 279.257 112.519 280.561C110.149 281.864 107.038 282.93 103.188 283.76H102.921V218.531H92.4346C85.3844 218.531 78.9564 219.509 73.1504 221.464C67.2852 223.419 62.279 226.263 58.1318 229.995C53.9847 233.787 50.7855 238.408 48.5342 243.858C46.2236 249.25 45.0684 255.411 45.0684 262.343C45.0684 269.037 46.2829 275.229 48.7119 280.916C51.141 286.604 54.5475 291.521 58.9316 295.668C63.3158 299.815 68.5589 303.044 74.6611 305.354C80.7041 307.665 87.3988 308.82 94.7451 308.82H98.2998C104.757 308.82 110.83 307.665 116.518 305.354C122.146 302.985 127.034 299.637 131.181 295.312C135.387 290.988 138.705 285.804 141.134 279.761C143.563 273.718 144.777 266.993 144.777 259.588ZM65.0635 262.521C65.0635 259.381 65.5671 256.626 66.5742 254.256C67.5221 251.827 68.8255 249.783 70.4844 248.124C72.2025 246.465 74.2168 245.162 76.5273 244.214C78.8379 243.266 81.2965 242.792 83.9033 242.792H85.8584V283.315C82.7184 282.723 79.8747 281.834 77.3271 280.649C74.7796 279.465 72.5876 277.983 70.751 276.206C68.9144 274.488 67.5221 272.474 66.5742 270.163C65.5671 267.853 65.0635 265.305 65.0635 262.521ZM116.606 134.907C118.088 134.907 119.45 135.292 120.694 136.062C121.938 136.773 123.035 137.869 123.982 139.351C124.93 140.891 125.701 142.876 126.293 145.305C126.826 147.674 127.093 150.459 127.093 153.658C127.093 156.324 126.826 158.931 126.293 161.479C125.76 163.967 124.901 166.188 123.716 168.144C122.59 170.099 121.109 171.698 119.272 172.942C117.377 174.187 115.125 174.897 112.519 175.075V198.625C116.429 198.625 120.339 197.677 124.249 195.781C128.1 193.826 131.536 190.982 134.558 187.25C137.638 183.518 140.127 178.896 142.022 173.387C143.918 167.818 144.866 161.419 144.866 154.191C144.866 147.615 144.155 141.661 142.733 136.329C141.252 130.997 139.208 126.435 136.602 122.644C133.995 118.911 130.914 116.038 127.359 114.023C123.745 111.95 119.806 110.913 115.54 110.913C110.919 110.913 106.95 111.95 103.632 114.023C100.255 116.038 97.3815 118.852 95.0117 122.466C92.7012 126.08 90.8053 130.375 89.3242 135.352C87.8431 140.328 86.6286 145.719 85.6807 151.525C85.0882 155.554 84.4069 158.872 83.6367 161.479C82.8073 164.085 81.889 166.129 80.8818 167.61C79.9339 169.151 78.8675 170.217 77.6826 170.81C76.4385 171.402 75.1055 171.698 73.6836 171.698C72.2617 171.698 70.9287 171.372 69.6846 170.721C68.3812 170.01 67.2555 169.003 66.3076 167.699C65.2412 166.277 64.4118 164.441 63.8193 162.189C63.2269 159.938 62.9307 157.302 62.9307 154.28C62.9307 150.726 63.375 147.704 64.2637 145.216C65.1523 142.668 66.3372 140.654 67.8184 139.173C68.944 138.106 70.2178 137.307 71.6396 136.773C73.0023 136.24 74.4834 135.974 76.083 135.974V111.269C71.6396 111.269 67.5221 112.246 63.7305 114.201C59.9388 116.156 56.6507 118.97 53.8662 122.644C51.141 126.376 49.0081 130.908 47.4678 136.24C45.8682 141.572 45.0684 147.586 45.0684 154.28C45.0684 160.679 45.8682 166.425 47.4678 171.521C49.0674 176.616 51.2298 180.94 53.9551 184.495C56.6803 188.05 59.8499 190.775 63.4639 192.671C67.0778 194.567 70.8695 195.515 74.8389 195.515C78.9268 195.515 82.5407 194.596 85.6807 192.76C88.8206 190.864 91.5755 188.257 93.9453 184.939C96.3743 181.622 98.4479 177.652 100.166 173.031C101.825 168.351 103.217 163.197 104.343 157.568C105.172 153.125 106.002 149.452 106.831 146.549C107.66 143.646 108.549 141.306 109.497 139.528C110.504 137.81 111.571 136.625 112.696 135.974C113.822 135.263 115.125 134.907 116.606 134.907ZM23.2959 42.3076V67.0127H46.8457V88.9629H65.0635V67.0127H108.786C115.125 67.0127 120.576 66.1833 125.138 64.5244C129.64 62.8656 133.343 60.4958 136.246 57.415C139.208 54.3936 141.4 50.75 142.822 46.4844C144.185 42.1595 144.866 37.3607 144.866 32.0879C144.866 29.3626 144.718 26.6077 144.422 23.8232C144.185 20.9795 143.829 18.2542 143.355 15.6475C142.882 13.0407 142.289 10.582 141.578 8.27148C140.808 5.96094 139.919 3.94661 138.912 2.22852L121.938 4.62793C122.235 5.75358 122.531 7.11621 122.827 8.71582C123.123 10.2562 123.39 11.915 123.627 13.6924C123.923 15.529 124.16 17.4544 124.338 19.4688C124.516 21.4238 124.604 23.3493 124.604 25.2451C124.604 27.8519 124.308 30.2217 123.716 32.3545C123.123 34.4281 122.116 36.2054 120.694 37.6865C119.332 39.1676 117.495 40.3229 115.185 41.1523C112.815 41.9225 109.882 42.3076 106.387 42.3076H65.0635V6.40527H46.8457V42.3076H23.2959Z" fill="white"/>
<path d="M143 744.892V746.892H145V744.892H143ZM140.867 693.971L138.941 694.508L138.942 694.514L140.867 693.971ZM134.735 680.019L133.038 681.076L133.042 681.083L133.046 681.089L134.735 680.019ZM126.382 670.065L127.729 668.587L127.722 668.581L127.715 668.575L126.382 670.065ZM115.362 662.156L116.349 660.417L116.326 660.404L116.303 660.392L115.362 662.156ZM55.4658 656.824L55.946 658.766L55.9558 658.763L55.9656 658.761L55.4658 656.824ZM40.3584 662.689L39.3833 660.943L39.3643 660.954L39.3456 660.965L40.3584 662.689ZM30.0498 670.421L31.3938 671.902L31.4081 671.889L31.4222 671.876L30.0498 670.421ZM21.9629 680.374L23.6589 681.434L23.6735 681.411L23.6875 681.387L21.9629 680.374ZM15.8311 694.593L17.7549 695.139L17.7578 695.129L17.7606 695.119L15.8311 694.593ZM13.6094 744.892H11.6094V746.892H13.6094V744.892ZM33.8711 719.742H31.8711V721.742H33.8711V719.742ZM34.9375 703.035L36.8639 703.573L36.8712 703.547L36.8778 703.52L34.9375 703.035ZM37.7812 695.926L36.063 694.902L36.0583 694.91L36.0537 694.918L37.7812 695.926ZM44.1797 688.639L45.4247 690.204L45.4355 690.195L45.4462 690.187L44.1797 688.639ZM53.0664 683.484L52.3511 681.617L52.3431 681.62L52.3351 681.623L53.0664 683.484ZM62.3086 681.085L62.6205 683.06L62.6404 683.057L62.6602 683.054L62.3086 681.085ZM94.834 681.085L94.4942 683.056L94.5081 683.058L94.5221 683.06L94.834 681.085ZM104.076 683.484L104.831 681.632L104.811 681.624L104.791 681.617L104.076 683.484ZM112.519 688.194L111.312 689.79L111.319 689.794L112.519 688.194ZM118.384 694.237L120.041 693.118L120.034 693.108L118.384 694.237ZM122.916 719.742V721.742H124.916V719.742H122.916ZM145 744.892V710.145H141V744.892H145ZM145 710.145C145 704.232 144.268 698.656 142.792 693.427L138.942 694.514C140.31 699.357 141 704.564 141 710.145H145ZM142.794 693.433C141.322 688.161 139.202 683.329 136.425 678.948L133.046 681.089C135.601 685.12 137.568 689.59 138.941 694.508L142.794 693.433ZM136.433 678.961C134.079 675.183 131.175 671.725 127.729 668.587L125.035 671.544C128.224 674.449 130.889 677.626 133.038 681.076L136.433 678.961ZM127.715 668.575C124.231 665.458 120.442 662.738 116.349 660.417L114.376 663.896C118.222 666.077 121.778 668.63 125.048 671.556L127.715 668.575ZM116.303 660.392C111.7 657.936 106.654 656.043 101.174 654.704L100.224 658.589C105.409 659.857 110.138 661.636 114.421 663.921L116.303 660.392ZM101.174 654.704C95.6734 653.359 89.8551 652.691 83.7256 652.691V656.691C89.5635 656.691 95.061 657.327 100.224 658.589L101.174 654.704ZM83.7256 652.691H73.0615V656.691H83.7256V652.691ZM73.0615 652.691C66.6878 652.691 60.6535 653.42 54.9661 654.888L55.9656 658.761C61.2977 657.385 66.9939 656.691 73.0615 656.691V652.691ZM54.9857 654.883C49.3177 656.284 44.1134 658.302 39.3833 660.943L41.3335 664.436C45.7271 661.982 50.5944 660.089 55.946 658.766L54.9857 654.883ZM39.3456 660.965C35.4839 663.233 31.927 665.9 28.6774 668.966L31.4222 671.876C34.4526 669.017 37.7681 666.53 41.3712 664.414L39.3456 660.965ZM28.7058 668.94C25.3565 671.979 22.5326 675.455 20.2383 679.361L23.6875 681.387C25.7773 677.829 28.3447 674.669 31.3938 671.902L28.7058 668.94ZM20.2669 679.314C17.49 683.757 15.371 688.679 13.9015 694.067L17.7606 695.119C19.1349 690.08 21.1038 685.522 23.6589 681.434L20.2669 679.314ZM13.9072 694.046C12.3706 699.455 11.6094 705.239 11.6094 711.389H15.6094C15.6094 705.571 16.3293 700.158 17.7549 695.139L13.9072 694.046ZM11.6094 711.389V744.892H15.6094V711.389H11.6094ZM13.6094 746.892H143V742.892H13.6094V746.892ZM35.8711 719.742V711.389H31.8711V719.742H35.8711ZM35.8711 711.389C35.8711 708.524 36.2082 705.922 36.8639 703.573L33.0111 702.498C32.245 705.243 31.8711 708.211 31.8711 711.389H35.8711ZM36.8778 703.52C37.4876 701.081 38.3679 698.889 39.5088 696.934L36.0537 694.918C34.7063 697.228 33.6907 699.776 32.9972 702.55L36.8778 703.52ZM39.4995 696.949C41.0312 694.378 43.0018 692.131 45.4247 690.204L42.9346 687.073C40.1441 689.293 37.849 691.904 36.063 694.902L39.4995 696.949ZM45.4462 690.187C47.8828 688.193 50.6623 686.578 53.7977 685.346L52.3351 681.623C48.8351 682.998 45.6901 684.819 42.9132 687.091L45.4462 690.187ZM53.7817 685.352C56.4185 684.342 59.3618 683.575 62.6205 683.06L61.9967 679.109C58.5015 679.661 55.2833 680.494 52.3511 681.617L53.7817 685.352ZM62.6602 683.054C65.8502 682.484 69.2568 682.196 72.8838 682.196V678.196C69.0459 678.196 65.4024 678.501 61.957 679.116L62.6602 683.054ZM72.8838 682.196H83.7256V678.196H72.8838V682.196ZM83.7256 682.196C87.5964 682.196 91.1843 682.485 94.4942 683.056L95.1738 679.114C91.6112 678.5 87.7936 678.196 83.7256 678.196V682.196ZM94.5221 683.06C97.7808 683.575 100.724 684.342 103.361 685.352L104.791 681.617C101.859 680.494 98.6411 679.661 95.1459 679.109L94.5221 683.06ZM103.322 685.337C106.381 686.583 109.039 688.071 111.312 689.79L113.725 686.599C111.14 684.645 108.17 682.993 104.831 681.632L103.322 685.337ZM111.319 689.794C113.528 691.452 115.326 693.311 116.733 695.367L120.034 693.108C118.36 690.661 116.248 688.492 113.719 686.594L111.319 689.794ZM116.727 695.357C118.085 697.368 119.124 699.604 119.839 702.079L123.682 700.969C122.857 698.112 121.645 695.491 120.041 693.118L116.727 695.357ZM119.839 702.079C120.552 704.546 120.916 707.231 120.916 710.145H124.916C124.916 706.896 124.51 703.834 123.682 700.969L119.839 702.079ZM120.916 710.145V719.742H124.916V710.145H120.916ZM122.916 717.742H33.8711V721.742H122.916V717.742ZM127.271 548.406L128.425 546.773L127.1 545.837L125.911 546.939L127.271 548.406ZM113.94 560.759L112.581 559.292L110.85 560.896L112.716 562.34L113.94 560.759ZM118.828 603.237L117.318 601.926L117.315 601.929L118.828 603.237ZM112.519 608.48L113.482 610.233L113.492 610.228L113.501 610.222L112.519 608.48ZM103.188 611.68V613.68H103.4L103.609 613.635L103.188 611.68ZM102.921 611.68H100.921V613.68H102.921V611.68ZM102.921 546.451H104.921V544.451H102.921V546.451ZM73.1504 549.384L73.7829 551.281L73.7886 551.279L73.1504 549.384ZM58.1318 557.915L56.7939 556.428L56.7881 556.434L56.7823 556.439L58.1318 557.915ZM48.5342 571.778L50.3725 572.566L50.3777 572.554L50.3827 572.542L48.5342 571.778ZM58.9316 623.588L57.5572 625.041L58.9316 623.588ZM74.6611 633.274L75.3754 631.406L75.3693 631.404L74.6611 633.274ZM116.518 633.274L117.27 635.127L117.282 635.123L117.294 635.118L116.518 633.274ZM131.181 623.232L129.747 621.838L129.742 621.843L129.737 621.848L131.181 623.232ZM66.5742 582.176L68.4149 582.958L68.4265 582.931L68.4374 582.903L66.5742 582.176ZM70.4844 576.044L69.0952 574.605L69.0826 574.617L69.0702 574.63L70.4844 576.044ZM85.8584 570.712H87.8584V568.712H85.8584V570.712ZM85.8584 611.235L85.4876 613.201L87.8584 613.648V611.235H85.8584ZM77.3271 608.569L76.4837 610.383L77.3271 608.569ZM70.751 604.126L72.1418 602.689L72.1297 602.677L72.1173 602.665L70.751 604.126ZM66.5742 598.083L68.4246 597.324L68.4163 597.304L68.4076 597.284L66.5742 598.083ZM146.777 587.508C146.777 577.946 144.919 569.554 141.123 562.399L137.59 564.273C141.022 570.744 142.777 578.466 142.777 587.508H146.777ZM141.123 562.399C137.42 555.417 133.208 550.153 128.425 546.773L126.116 550.04C130.22 552.939 134.065 557.629 137.59 564.273L141.123 562.399ZM125.911 546.939L112.581 559.292L115.3 562.226L128.63 549.873L125.911 546.939ZM112.716 562.34C116.092 564.954 118.638 568.361 120.35 572.614L124.06 571.12C122.099 566.249 119.135 562.251 115.165 559.177L112.716 562.34ZM120.35 572.614C122.092 576.942 122.96 581.398 122.96 585.997H126.96C126.96 580.88 125.991 575.917 124.06 571.12L120.35 572.614ZM122.96 585.997C122.96 589.224 122.46 592.157 121.483 594.816L125.238 596.195C126.394 593.048 126.96 589.643 126.96 585.997H122.96ZM121.483 594.816C120.497 597.5 119.108 599.865 117.318 601.926L120.338 604.549C122.458 602.107 124.091 599.318 125.238 596.195L121.483 594.816ZM117.315 601.929C115.556 603.963 113.628 605.558 111.536 606.739L113.501 610.222C116.03 608.796 118.308 606.896 120.341 604.546L117.315 601.929ZM111.555 606.728C109.413 607.906 106.506 608.919 102.766 609.725L103.609 613.635C107.571 612.781 110.884 611.662 113.482 610.233L111.555 606.728ZM103.188 609.68H102.921V613.68H103.188V609.68ZM104.921 611.68V546.451H100.921V611.68H104.921ZM102.921 544.451H92.4346V548.451H102.921V544.451ZM92.4346 544.451C85.1996 544.451 78.5522 545.454 72.5121 547.488L73.7886 551.279C79.3606 549.403 85.5693 548.451 92.4346 548.451V544.451ZM72.5179 547.486C66.4201 549.519 61.1665 552.493 56.7939 556.428L59.4698 559.402C63.3914 555.872 68.1502 553.159 73.7828 551.281L72.5179 547.486ZM56.7823 556.439C52.4079 560.438 49.0433 565.307 46.6857 571.015L50.3827 572.542C52.5276 567.349 55.5615 562.975 59.4814 559.391L56.7823 556.439ZM46.6959 570.99C44.2611 576.672 43.0684 583.109 43.0684 590.263H47.0684C47.0684 583.553 48.1862 577.667 50.3725 572.566L46.6959 570.99ZM43.0684 590.263C43.0684 597.205 44.3291 603.666 46.8726 609.621L50.5512 608.05C48.2367 602.631 47.0684 596.71 47.0684 590.263H43.0684ZM46.8726 609.621C49.4065 615.555 52.9691 620.701 57.5572 625.041L60.306 622.135C56.126 618.181 52.8754 613.492 50.5512 608.05L46.8726 609.621ZM57.5572 625.041C62.1488 629.384 67.6235 632.748 73.9529 635.145L75.3693 631.404C69.4943 629.179 64.4827 626.086 60.306 622.135L57.5572 625.041ZM73.9469 635.143C80.2466 637.551 87.1874 638.74 94.7451 638.74V634.74C87.6101 634.74 81.1616 633.619 75.3754 631.406L73.9469 635.143ZM94.7451 638.74H98.2998V634.74H94.7451V638.74ZM98.2998 638.74C105.002 638.74 111.331 637.54 117.27 635.127L115.765 631.421C110.329 633.63 104.513 634.74 98.2998 634.74V638.74ZM117.294 635.118C123.168 632.644 128.285 629.142 132.624 624.617L129.737 621.848C125.782 625.972 121.123 629.165 115.741 631.431L117.294 635.118ZM132.614 624.627C137.016 620.101 140.471 614.692 142.989 608.427L139.278 606.935C136.938 612.756 133.758 617.714 129.747 621.838L132.614 624.627ZM142.989 608.427C145.526 602.116 146.777 595.134 146.777 587.508H142.777C142.777 594.693 141.6 601.159 139.278 606.935L142.989 608.427ZM67.0635 590.44C67.0635 587.512 67.5332 585.033 68.4149 582.958L64.7336 581.393C63.6009 584.059 63.0635 587.089 63.0635 590.44H67.0635ZM68.4374 582.903C69.296 580.703 70.456 578.901 71.8986 577.458L69.0702 574.63C67.195 576.505 65.7483 578.791 64.7111 581.449L68.4374 582.903ZM71.8736 577.483C73.4013 576.008 75.1992 574.84 77.2865 573.984L75.7682 570.283C73.2344 571.323 71.0036 572.762 69.0952 574.605L71.8736 577.483ZM77.2865 573.984C79.3456 573.139 81.5453 572.712 83.9033 572.712V568.712C81.0478 568.712 78.3302 569.232 75.7682 570.283L77.2865 573.984ZM83.9033 572.712H85.8584V568.712H83.9033V572.712ZM83.8584 570.712V611.235H87.8584V570.712H83.8584ZM86.2292 609.27C83.2306 608.704 80.5486 607.862 78.1706 606.756L76.4837 610.383C79.2008 611.647 82.2063 612.582 85.4876 613.201L86.2292 609.27ZM78.1706 606.756C75.8052 605.656 73.8031 604.296 72.1418 602.689L69.3601 605.563C71.372 607.51 73.754 609.113 76.4837 610.383L78.1706 606.756ZM72.1173 602.665C70.489 601.142 69.2626 599.367 68.4246 597.324L64.7239 598.842C65.7817 601.42 67.3397 603.674 69.3847 605.587L72.1173 602.665ZM68.4076 597.284C67.5213 595.251 67.0635 592.979 67.0635 590.44H63.0635C63.0635 593.471 63.6128 596.294 64.7408 598.882L68.4076 597.284ZM143 494.286L143.713 496.155L145 495.663V494.286H143ZM143 471.092H145V469.712L143.71 469.222L143 471.092ZM46.8457 434.567L47.5559 432.698L44.8457 431.668V434.567H46.8457ZM46.8457 460.339H44.8457V461.812L46.2524 462.249L46.8457 460.339ZM114.651 481.4L114.058 483.31L114.16 483.342L114.264 483.363L114.651 481.4ZM121.405 482.733L121.793 484.696V480.771L121.405 482.733ZM114.651 484.066L114.264 482.104L114.159 482.125L114.056 482.157L114.651 484.066ZM46.8457 505.217L46.2502 503.308L44.8457 503.746V505.217H46.8457ZM46.8457 530.988H44.8457V533.892L47.5589 532.857L46.8457 530.988ZM145 494.286V471.092H141V494.286H145ZM143.71 469.222L47.5559 432.698L46.1355 436.437L142.29 472.961L143.71 469.222ZM44.8457 434.567V460.339H48.8457V434.567H44.8457ZM46.2524 462.249L114.058 483.31L115.245 479.49L47.439 458.429L46.2524 462.249ZM114.264 483.363L121.018 484.696L121.793 480.771L115.039 479.438L114.264 483.363ZM121.018 480.771L114.264 482.104L115.039 486.029L121.793 484.696L121.018 480.771ZM114.056 482.157L46.2502 503.308L47.4413 507.126L115.247 485.976L114.056 482.157ZM44.8457 505.217V530.988H48.8457V505.217H44.8457ZM47.5589 532.857L143.713 496.155L142.287 492.418L46.1325 529.12L47.5589 532.857ZM143 391.645V393.645H145V391.645H143ZM143 366.851H145V364.851H143V366.851ZM65.0635 366.851H63.0635V368.851H65.0635V366.851ZM65.0635 332.192H67.0635V330.192H65.0635V332.192ZM46.8457 332.192V330.192H44.8457V332.192H46.8457ZM46.8457 366.851V368.851H48.8457V366.851H46.8457ZM33.96 365.784L33.3126 367.677L33.3351 367.684L33.3577 367.691L33.96 365.784ZM28.2725 362.318L29.6867 360.904L29.6631 360.881L29.6388 360.858L28.2725 362.318ZM24.4512 327.127L26.4083 327.539L26.8754 325.32L24.6158 325.134L24.4512 327.127ZM5.07813 325.527L5.2427 323.534L3.42545 323.384L3.10856 325.18L5.07813 325.527ZM4.10059 331.393L6.07509 331.711L6.07661 331.701L4.10059 331.393ZM3.30078 336.902L5.28434 337.158L3.30078 336.902ZM2.76758 342.59L4.75885 342.777L4.76192 342.744L4.76392 342.711L2.76758 342.59ZM5.07813 366.406L6.98784 365.812L6.98484 365.802L6.98174 365.793L5.07813 366.406ZM12.543 380.003L11.0481 381.332L12.543 380.003ZM46.8457 391.645H48.8457V389.645H46.8457V391.645ZM46.8457 416.883H44.8457V418.883H46.8457V416.883ZM65.0635 416.883V418.883H67.0635V416.883H65.0635ZM65.0635 391.645V389.645H63.0635V391.645H65.0635ZM145 391.645V366.851H141V391.645H145ZM143 364.851H65.0635V368.851H143V364.851ZM67.0635 366.851V332.192H63.0635V366.851H67.0635ZM65.0635 330.192H46.8457V334.192H65.0635V330.192ZM44.8457 332.192V366.851H48.8457V332.192H44.8457ZM46.8457 364.851H41.6025V368.851H46.8457V364.851ZM41.6025 364.851C38.9227 364.851 36.5836 364.515 34.5622 363.877L33.3577 367.691C35.8389 368.475 38.5948 368.851 41.6025 368.851V364.851ZM34.6073 363.892C32.6177 363.211 30.9919 362.209 29.6867 360.904L26.8582 363.733C28.6338 365.508 30.7996 366.817 33.3126 367.677L34.6073 363.892ZM29.6388 360.858C28.096 359.415 26.8624 357.417 25.9969 354.766L22.1945 356.008C23.2248 359.163 24.7757 361.786 26.9061 363.779L29.6388 360.858ZM25.9969 354.766C25.1332 352.121 24.6738 348.818 24.6738 344.812H20.6738C20.6738 349.099 21.1624 352.847 22.1945 356.008L25.9969 354.766ZM24.6738 344.812C24.6738 341.017 24.8492 337.757 25.1916 335.018L21.2225 334.521C20.8539 337.47 20.6738 340.904 20.6738 344.812H24.6738ZM25.1916 335.018C25.5418 332.216 25.9481 329.725 26.4083 327.539L22.4941 326.715C22.0063 329.032 21.5832 331.635 21.2225 334.521L25.1916 335.018ZM24.6158 325.134L5.2427 323.534L4.91355 327.521L24.2866 329.12L24.6158 325.134ZM3.10856 325.18C2.75096 327.206 2.42294 329.174 2.12456 331.084L6.07661 331.701C6.37068 329.819 6.69436 327.877 7.04769 325.875L3.10856 325.18ZM2.1261 331.074C1.82654 332.931 1.55691 334.789 1.31723 336.646L5.28434 337.158C5.51861 335.343 5.78218 333.527 6.07507 331.711L2.1261 331.074ZM1.31723 336.646C1.07414 338.53 0.892311 340.471 0.77124 342.469L4.76392 342.711C4.87983 340.798 5.05346 338.948 5.28434 337.158L1.31723 336.646ZM0.77631 342.403C0.59227 344.366 0.500977 346.413 0.500977 348.544H4.50098C4.50098 346.527 4.58742 344.605 4.75885 342.777L0.77631 342.403ZM0.500977 348.544C0.500977 355.293 1.38256 361.458 3.17451 367.02L6.98174 365.793C5.33749 360.69 4.50098 354.947 4.50098 348.544H0.500977ZM3.16841 367C4.90173 372.572 7.52027 377.363 11.0481 381.332L14.0378 378.674C10.9303 375.178 8.57223 370.905 6.98784 365.812L3.16841 367ZM11.0481 381.332C14.5772 385.302 18.9188 388.347 24.0406 390.471L25.5727 386.776C20.9784 384.871 17.1442 382.169 14.0378 378.674L11.0481 381.332ZM24.0406 390.471C29.1859 392.604 35.0532 393.645 41.6025 393.645V389.645C35.4735 389.645 30.1435 388.671 25.5727 386.776L24.0406 390.471ZM41.6025 393.645H46.8457V389.645H41.6025V393.645ZM44.8457 391.645L44.8457 416.883H48.8457L48.8457 391.645H44.8457ZM46.8457 418.883H65.0635V414.883H46.8457V418.883ZM67.0635 416.883L67.0635 391.645H63.0635L63.0635 416.883H67.0635ZM65.0635 393.645H143V389.645H65.0635V393.645ZM127.271 220.486L128.425 218.853L127.1 217.917L125.911 219.019L127.271 220.486ZM113.94 232.839L112.581 231.372L110.85 232.976L112.716 234.42L113.94 232.839ZM118.828 275.317L117.318 274.006L117.315 274.009L118.828 275.317ZM112.519 280.561L113.482 282.313L113.492 282.308L113.501 282.302L112.519 280.561ZM103.188 283.76V285.76H103.4L103.609 285.715L103.188 283.76ZM102.921 283.76H100.921V285.76H102.921V283.76ZM102.921 218.531H104.921V216.531H102.921V218.531ZM73.1504 221.464L73.7829 223.361L73.7886 223.359L73.1504 221.464ZM58.1318 229.995L56.7939 228.509L56.7881 228.514L56.7823 228.519L58.1318 229.995ZM48.5342 243.858L50.3725 244.646L50.3777 244.634L50.3827 244.622L48.5342 243.858ZM58.9316 295.668L57.5572 297.121L58.9316 295.668ZM74.6611 305.354L75.3754 303.486L75.3693 303.484L74.6611 305.354ZM116.518 305.354L117.27 307.207L117.282 307.203L117.294 307.198L116.518 305.354ZM131.181 295.312L129.747 293.918L129.742 293.923L129.737 293.928L131.181 295.312ZM66.5742 254.256L68.4149 255.038L68.4265 255.011L68.4374 254.983L66.5742 254.256ZM70.4844 248.124L69.0952 246.685L69.0826 246.697L69.0702 246.71L70.4844 248.124ZM85.8584 242.792H87.8584V240.792H85.8584V242.792ZM85.8584 283.315L85.4876 285.281L87.8584 285.728V283.315H85.8584ZM77.3271 280.649L76.4837 282.463L77.3271 280.649ZM70.751 276.206L72.1418 274.769L72.1297 274.757L72.1173 274.746L70.751 276.206ZM66.5742 270.163L68.4246 269.404L68.4163 269.384L68.4076 269.364L66.5742 270.163ZM146.777 259.588C146.777 250.027 144.919 241.634 141.123 234.479L137.59 236.353C141.022 242.824 142.777 250.546 142.777 259.588H146.777ZM141.123 234.479C137.42 227.497 133.208 222.233 128.425 218.853L126.116 222.12C130.22 225.019 134.065 229.709 137.59 236.353L141.123 234.479ZM125.911 219.019L112.581 231.372L115.3 234.306L128.63 221.953L125.911 219.019ZM112.716 234.42C116.092 237.034 118.638 240.442 120.35 244.694L124.06 243.2C122.099 238.329 119.135 234.331 115.165 231.257L112.716 234.42ZM120.35 244.694C122.092 249.022 122.96 253.478 122.96 258.077H126.96C126.96 252.96 125.991 247.997 124.06 243.2L120.35 244.694ZM122.96 258.077C122.96 261.304 122.46 264.237 121.483 266.896L125.238 268.276C126.394 265.129 126.96 261.723 126.96 258.077H122.96ZM121.483 266.896C120.497 269.58 119.108 271.945 117.318 274.006L120.338 276.629C122.458 274.187 124.091 271.398 125.238 268.276L121.483 266.896ZM117.315 274.009C115.556 276.043 113.628 277.638 111.536 278.819L113.501 282.302C116.03 280.876 118.308 278.976 120.341 276.626L117.315 274.009ZM111.555 278.808C109.413 279.986 106.506 280.999 102.766 281.805L103.609 285.715C107.571 284.861 110.884 283.742 113.482 282.313L111.555 278.808ZM103.188 281.76H102.921V285.76H103.188V281.76ZM104.921 283.76V218.531H100.921V283.76H104.921ZM102.921 216.531H92.4346V220.531H102.921V216.531ZM92.4346 216.531C85.1996 216.531 78.5522 217.535 72.5121 219.568L73.7886 223.359C79.3606 221.483 85.5693 220.531 92.4346 220.531V216.531ZM72.5179 219.567C66.4201 221.599 61.1665 224.573 56.7939 228.509L59.4698 231.482C63.3914 227.952 68.1502 225.239 73.7828 223.361L72.5179 219.567ZM56.7823 228.519C52.4079 232.519 49.0433 237.387 46.6857 243.095L50.3827 244.622C52.5276 239.429 55.5615 235.055 59.4814 231.471L56.7823 228.519ZM46.6959 243.071C44.2611 248.752 43.0684 255.189 43.0684 262.343H47.0684C47.0684 255.634 48.1862 249.748 50.3725 244.646L46.6959 243.071ZM43.0684 262.343C43.0684 269.285 44.3291 275.746 46.8726 281.702L50.5512 280.13C48.2367 274.711 47.0684 268.79 47.0684 262.343H43.0684ZM46.8726 281.702C49.4065 287.635 52.9691 292.781 57.5572 297.121L60.306 294.215C56.126 290.261 52.8754 285.572 50.5512 280.13L46.8726 281.702ZM57.5572 297.121C62.1488 301.464 67.6235 304.828 73.9529 307.225L75.3693 303.484C69.4943 301.26 64.4827 298.166 60.306 294.215L57.5572 297.121ZM73.9469 307.223C80.2466 309.631 87.1874 310.82 94.7451 310.82V306.82C87.6101 306.82 81.1616 305.699 75.3754 303.486L73.9469 307.223ZM94.7451 310.82H98.2998V306.82H94.7451V310.82ZM98.2998 310.82C105.002 310.82 111.331 309.62 117.27 307.207L115.765 303.502C110.329 305.71 104.513 306.82 98.2998 306.82V310.82ZM117.294 307.198C123.168 304.724 128.285 301.222 132.624 296.697L129.737 293.928C125.782 298.052 121.123 301.245 115.741 303.511L117.294 307.198ZM132.614 296.707C137.016 292.181 140.471 286.772 142.989 280.507L139.278 279.015C136.938 284.836 133.758 289.794 129.747 293.918L132.614 296.707ZM142.989 280.507C145.526 274.196 146.777 267.214 146.777 259.588H142.777C142.777 266.773 141.6 273.239 139.278 279.015L142.989 280.507ZM67.0635 262.521C67.0635 259.592 67.5332 257.113 68.4149 255.038L64.7336 253.474C63.6009 256.139 63.0635 259.169 63.0635 262.521H67.0635ZM68.4374 254.983C69.296 252.783 70.456 250.981 71.8986 249.538L69.0702 246.71C67.195 248.585 65.7483 250.871 64.7111 253.529L68.4374 254.983ZM71.8736 249.563C73.4013 248.088 75.1992 246.921 77.2865 246.064L75.7682 242.364C73.2344 243.403 71.0036 244.843 69.0952 246.685L71.8736 249.563ZM77.2865 246.064C79.3456 245.219 81.5453 244.792 83.9033 244.792V240.792C81.0478 240.792 78.3302 241.312 75.7682 242.364L77.2865 246.064ZM83.9033 244.792H85.8584V240.792H83.9033V244.792ZM83.8584 242.792V283.315H87.8584V242.792H83.8584ZM86.2292 281.35C83.2306 280.784 80.5486 279.942 78.1706 278.836L76.4837 282.463C79.2008 283.727 82.2063 284.662 85.4876 285.281L86.2292 281.35ZM78.1706 278.836C75.8052 277.736 73.8031 276.377 72.1418 274.769L69.3601 277.643C71.372 279.59 73.754 281.193 76.4837 282.463L78.1706 278.836ZM72.1173 274.746C70.489 273.222 69.2626 271.447 68.4246 269.404L64.7239 270.922C65.7817 273.501 67.3397 275.754 69.3847 277.667L72.1173 274.746ZM68.4076 269.364C67.5213 267.331 67.0635 265.059 67.0635 262.521H63.0635C63.0635 265.551 63.6128 268.374 64.7408 270.962L68.4076 269.364ZM120.694 136.062L119.642 137.763L119.672 137.782L119.702 137.799L120.694 136.062ZM123.982 139.351L125.686 138.302L125.676 138.287L125.667 138.272L123.982 139.351ZM126.293 145.305L128.244 144.866L128.24 144.848L128.236 144.831L126.293 145.305ZM126.293 161.479L128.249 161.898L128.251 161.888L126.293 161.479ZM123.716 168.144L122.005 167.107L121.994 167.126L121.983 167.146L123.716 168.144ZM119.272 172.942L120.37 174.615L120.382 174.606L120.394 174.598L119.272 172.942ZM112.519 175.075L112.383 173.08L110.519 173.207V175.075H112.519ZM112.519 198.625H110.519V200.625H112.519V198.625ZM124.249 195.781L125.122 197.581L125.138 197.573L125.154 197.565L124.249 195.781ZM134.558 187.25L133.015 185.977L133.009 185.984L133.003 185.992L134.558 187.25ZM142.022 173.387L143.914 174.037L143.916 174.031L142.022 173.387ZM142.733 136.329L144.666 135.814L144.663 135.804L144.66 135.794L142.733 136.329ZM136.602 122.644L138.25 121.51L138.245 121.504L138.241 121.498L136.602 122.644ZM127.359 114.023L126.364 115.758L126.373 115.763L127.359 114.023ZM103.632 114.023L104.656 115.741L104.674 115.73L104.692 115.719L103.632 114.023ZM95.0117 122.466L93.3392 121.369L93.3329 121.379L93.3267 121.388L95.0117 122.466ZM85.6807 151.525L83.7068 151.203L83.7043 151.219L83.702 151.234L85.6807 151.525ZM83.6367 161.479L85.5426 162.085L85.5489 162.065L85.5547 162.045L83.6367 161.479ZM80.8818 167.61L79.228 166.486L79.2024 166.523L79.1785 166.562L80.8818 167.61ZM77.6826 170.81L78.5425 172.615L78.5598 172.607L78.577 172.598L77.6826 170.81ZM69.6846 170.721L68.7269 172.477L68.7416 172.485L68.7566 172.492L69.6846 170.721ZM66.3076 167.699L67.9251 166.523L67.9164 166.511L67.9076 166.499L66.3076 167.699ZM63.8193 162.189L61.8852 162.698L63.8193 162.189ZM64.2637 145.216L66.1472 145.888L66.1496 145.882L66.1521 145.875L64.2637 145.216ZM67.8184 139.173L66.4429 137.721L66.4233 137.74L66.4041 137.759L67.8184 139.173ZM71.6396 136.773L72.3419 138.646L72.3552 138.641L72.3684 138.636L71.6396 136.773ZM76.083 135.974V137.974H78.083V135.974H76.083ZM76.083 111.269H78.083V109.269H76.083V111.269ZM53.8662 122.644L52.2724 121.435L52.2616 121.45L52.251 121.464L53.8662 122.644ZM47.4678 136.24L49.3834 136.815L49.3864 136.805L49.3892 136.795L47.4678 136.24ZM53.9551 184.495L55.5423 183.278L53.9551 184.495ZM63.4639 192.671L62.5348 194.442L63.4639 192.671ZM85.6807 192.76L86.6904 194.486L86.7025 194.479L86.7144 194.472L85.6807 192.76ZM93.9453 184.939L92.3316 183.758L92.3247 183.767L92.3178 183.777L93.9453 184.939ZM100.166 173.031L102.041 173.728L102.046 173.714L102.051 173.699L100.166 173.031ZM104.343 157.568L106.304 157.961L106.306 157.948L106.309 157.935L104.343 157.568ZM109.497 139.528L107.772 138.517L107.751 138.552L107.732 138.587L109.497 139.528ZM112.696 135.974L113.698 137.704L113.732 137.685L113.764 137.665L112.696 135.974ZM116.606 136.907C117.72 136.907 118.718 137.191 119.642 137.763L121.747 134.362C120.183 133.393 118.455 132.907 116.606 132.907V136.907ZM119.702 137.799C120.609 138.317 121.485 139.159 122.298 140.429L125.667 138.272C124.584 136.58 123.268 135.23 121.687 134.326L119.702 137.799ZM122.279 140.399C123.085 141.708 123.789 143.481 124.35 145.779L128.236 144.831C127.612 142.271 126.776 140.074 125.686 138.302L122.279 140.399ZM124.342 145.744C124.834 147.932 125.093 150.563 125.093 153.658H129.093C129.093 150.355 128.818 147.417 128.244 144.866L124.342 145.744ZM125.093 153.658C125.093 156.19 124.84 158.659 124.335 161.069L128.251 161.888C128.813 159.203 129.093 156.459 129.093 153.658H125.093ZM124.337 161.059C123.846 163.354 123.062 165.363 122.005 167.107L125.426 169.18C126.739 167.014 127.674 164.579 128.249 161.898L124.337 161.059ZM121.983 167.146C121.006 168.842 119.732 170.215 118.151 171.287L120.394 174.598C122.486 173.181 124.175 171.355 125.449 169.141L121.983 167.146ZM118.175 171.27C116.608 172.299 114.699 172.922 112.383 173.08L112.655 177.071C115.551 176.873 118.145 176.074 120.37 174.615L118.175 171.27ZM110.519 175.075V198.625H114.519V175.075H110.519ZM112.519 200.625C116.763 200.625 120.97 199.594 125.122 197.581L123.376 193.982C119.708 195.76 116.094 196.625 112.519 196.625V200.625ZM125.154 197.565C129.283 195.469 132.934 192.435 136.112 188.508L133.003 185.992C130.139 189.53 126.917 192.184 123.344 193.998L125.154 197.565ZM136.1 188.523C139.361 184.572 141.955 179.729 143.914 174.037L140.131 172.736C138.298 178.064 135.916 182.463 133.015 185.977L136.1 188.523ZM143.916 174.031C145.896 168.214 146.866 161.59 146.866 154.191H142.866C142.866 161.248 141.94 167.422 140.129 172.742L143.916 174.031ZM146.866 154.191C146.866 147.473 146.14 141.342 144.666 135.814L140.801 136.844C142.17 141.98 142.866 147.757 142.866 154.191H146.866ZM144.66 135.794C143.132 130.29 141.004 125.517 138.25 121.51L134.953 123.777C137.412 127.353 139.373 131.704 140.806 136.864L144.66 135.794ZM138.241 121.498C135.483 117.55 132.188 114.461 128.345 112.283L126.373 115.763C129.64 117.615 132.506 120.273 134.962 123.789L138.241 121.498ZM128.355 112.289C124.43 110.037 120.146 108.913 115.54 108.913V112.913C119.465 112.913 123.06 113.863 126.364 115.758L128.355 112.289ZM115.54 108.913C110.613 108.913 106.261 110.022 102.572 112.327L104.692 115.719C107.638 113.878 111.225 112.913 115.54 112.913V108.913ZM102.607 112.306C98.9452 114.49 95.8585 117.527 93.3392 121.369L96.6842 123.563C98.9045 120.177 101.565 117.585 104.656 115.741L102.607 112.306ZM93.3267 121.388C90.8971 125.189 88.9309 129.662 87.4073 134.781L91.2411 135.922C92.6798 131.088 94.5053 126.971 96.6968 123.543L93.3267 121.388ZM87.4073 134.781C85.899 139.849 84.6666 145.324 83.7068 151.203L87.6545 151.848C88.5905 146.115 89.7872 140.807 91.2411 135.922L87.4073 134.781ZM83.702 151.234C83.1172 155.211 82.4525 158.428 81.7187 160.912L85.5547 162.045C86.3613 159.316 87.0593 155.897 87.6594 151.816L83.702 151.234ZM81.7309 160.872C80.9326 163.381 80.0854 165.225 79.228 166.486L82.5357 168.735C83.6926 167.034 84.682 164.79 85.5426 162.085L81.7309 160.872ZM79.1785 166.562C78.3571 167.897 77.539 168.645 76.7882 169.021L78.577 172.598C80.196 171.789 81.5108 170.404 82.5852 168.659L79.1785 166.562ZM76.8227 169.004C75.8559 169.464 74.8177 169.698 73.6836 169.698V173.698C75.3932 173.698 77.0211 173.34 78.5425 172.615L76.8227 169.004ZM73.6836 169.698C72.5808 169.698 71.5667 169.449 70.6126 168.949L68.7566 172.492C70.2907 173.296 71.9426 173.698 73.6836 173.698V169.698ZM70.6423 168.965C69.6207 168.408 68.7139 167.607 67.9251 166.523L64.6901 168.876C65.7972 170.398 67.1417 171.612 68.7269 172.477L70.6423 168.965ZM67.9076 166.499C67.036 165.337 66.2996 163.755 65.7535 161.68L61.8852 162.698C62.524 165.126 63.4464 167.218 64.7076 168.899L67.9076 166.499ZM65.7535 161.68C65.2155 159.636 64.9307 157.178 64.9307 154.28H60.9307C60.9307 157.426 61.2383 160.24 61.8852 162.698L65.7535 161.68ZM64.9307 154.28C64.9307 150.881 65.3571 148.101 66.1472 145.888L62.3802 144.543C61.3929 147.307 60.9307 150.57 60.9307 154.28H64.9307ZM66.1521 145.875C66.9691 143.532 68.0166 141.803 69.2326 140.587L66.4041 137.759C64.6579 139.505 63.3355 141.804 62.3753 144.557L66.1521 145.875ZM69.1938 140.625C70.1297 139.738 71.1757 139.083 72.3419 138.646L70.9374 134.901C69.2599 135.53 67.7584 136.475 66.4429 137.721L69.1938 140.625ZM72.3684 138.636C73.4781 138.202 74.7095 137.974 76.083 137.974V133.974C74.2573 133.974 72.5265 134.279 70.9109 134.911L72.3684 138.636ZM78.083 135.974V111.269H74.083V135.974H78.083ZM76.083 109.269C71.3345 109.269 66.9009 110.316 62.8139 112.424L64.647 115.979C68.1434 114.176 71.9448 113.269 76.083 113.269V109.269ZM62.8139 112.424C58.7359 114.526 55.2225 117.544 52.2724 121.435L55.46 123.852C58.0789 120.397 61.1417 117.786 64.647 115.979L62.8139 112.424ZM52.251 121.464C49.3634 125.419 47.1389 130.173 45.5463 135.685L49.3892 136.795C50.8774 131.644 52.9185 127.333 55.4815 123.823L52.251 121.464ZM45.5521 135.666C43.8866 141.217 43.0684 147.429 43.0684 154.28H47.0684C47.0684 147.742 47.8497 141.927 49.3834 136.815L45.5521 135.666ZM43.0684 154.28C43.0684 160.843 43.8885 166.797 45.5596 172.12L49.3759 170.921C47.8479 166.054 47.0684 160.514 47.0684 154.28H43.0684ZM45.5596 172.12C47.2161 177.396 49.4759 181.94 52.3679 185.712L55.5423 183.278C52.9837 179.941 50.9186 175.835 49.3759 170.921L45.5596 172.12ZM52.3679 185.712C55.2523 189.474 58.6397 192.399 62.5348 194.442L64.393 190.9C61.0602 189.151 58.1084 186.625 55.5423 183.278L52.3679 185.712ZM62.5348 194.442C66.4269 196.484 70.5365 197.515 74.8389 197.515V193.515C71.2024 193.515 67.7286 192.65 64.393 190.9L62.5348 194.442ZM74.8389 197.515C79.2368 197.515 83.2076 196.523 86.6904 194.486L84.6709 191.033C81.8738 192.669 78.6168 193.515 74.8389 193.515V197.515ZM86.7144 194.472C90.1124 192.42 93.0623 189.617 95.5728 186.102L92.3178 183.777C90.0887 186.898 87.5288 189.308 84.6469 191.048L86.7144 194.472ZM95.559 186.121C98.116 182.628 100.271 178.489 102.041 173.728L98.2914 172.334C96.6252 176.816 94.6327 180.615 92.3316 183.758L95.559 186.121ZM102.051 173.699C103.746 168.916 105.162 163.668 106.304 157.961L102.382 157.176C101.272 162.725 99.9034 167.785 98.2809 172.363L102.051 173.699ZM106.309 157.935C107.132 153.526 107.948 149.92 108.754 147.098L104.908 145.999C104.055 148.984 103.213 152.724 102.377 157.201L106.309 157.935ZM108.754 147.098C109.562 144.271 110.404 142.077 111.262 140.469L107.732 138.587C106.694 140.534 105.759 143.021 104.908 145.999L108.754 147.098ZM111.222 140.54C112.14 138.975 112.99 138.115 113.698 137.704L111.694 134.243C110.151 135.136 108.869 136.646 107.772 138.517L111.222 140.54ZM113.764 137.665C114.535 137.178 115.459 136.907 116.606 136.907V132.907C114.791 132.907 113.109 133.348 111.628 134.283L113.764 137.665ZM23.2959 42.3076V40.3076H21.2959V42.3076H23.2959ZM23.2959 67.0127H21.2959V69.0127H23.2959V67.0127ZM46.8457 67.0127H48.8457V65.0127H46.8457V67.0127ZM46.8457 88.9629H44.8457V90.9629H46.8457V88.9629ZM65.0635 88.9629V90.9629H67.0635V88.9629H65.0635ZM65.0635 67.0127V65.0127H63.0635V67.0127H65.0635ZM125.138 64.5244L125.821 66.404L125.829 66.4011L125.138 64.5244ZM136.246 57.415L134.818 56.0149L134.804 56.0291L134.791 56.0435L136.246 57.415ZM142.822 46.4844L144.72 47.1168L144.725 47.1011L144.73 47.0854L142.822 46.4844ZM144.422 23.8232L142.429 23.9893L142.431 24.0121L142.433 24.0348L144.422 23.8232ZM141.578 8.27148L143.49 7.68329L143.483 7.66107L143.475 7.63904L141.578 8.27148ZM138.912 2.22852L140.638 1.2171L139.96 0.0605469L138.632 0.24823L138.912 2.22852ZM121.938 4.62793L121.659 2.64764L119.432 2.96234L120.004 5.1369L121.938 4.62793ZM122.827 8.71582L120.861 9.08002L120.863 9.09351L122.827 8.71582ZM123.627 13.6924L121.645 13.9567L121.648 13.9838L121.652 14.0109L123.627 13.6924ZM124.338 19.4688L122.346 19.6445L122.346 19.6498L124.338 19.4688ZM123.716 32.3545L125.639 32.9039L125.641 32.8969L125.643 32.8898L123.716 32.3545ZM120.694 37.6865L119.252 36.3015L119.237 36.3168L119.222 36.3324L120.694 37.6865ZM115.185 41.1523L115.803 43.0544L115.832 43.045L115.86 43.0347L115.185 41.1523ZM65.0635 42.3076H63.0635V44.3076H65.0635V42.3076ZM65.0635 6.40527H67.0635V4.40527H65.0635V6.40527ZM46.8457 6.40527V4.40527H44.8457V6.40527H46.8457ZM46.8457 42.3076V44.3076H48.8457V42.3076H46.8457ZM21.2959 42.3076V67.0127H25.2959V42.3076H21.2959ZM23.2959 69.0127H46.8457V65.0127H23.2959V69.0127ZM44.8457 67.0127V88.9629H48.8457V67.0127H44.8457ZM46.8457 90.9629H65.0635V86.9629H46.8457V90.9629ZM67.0635 88.9629V67.0127H63.0635V88.9629H67.0635ZM65.0635 69.0127H108.786V65.0127H65.0635V69.0127ZM108.786 69.0127C115.291 69.0127 120.985 68.1627 125.821 66.404L124.454 62.6448C120.167 64.2039 114.96 65.0127 108.786 65.0127V69.0127ZM125.829 66.4011C130.583 64.6497 134.56 62.121 137.702 58.7866L134.791 56.0435C132.127 58.8705 128.698 61.0815 124.446 62.6477L125.829 66.4011ZM137.674 58.8152C140.862 55.5633 143.208 51.6522 144.72 47.1168L140.925 45.8519C139.593 49.8478 137.554 53.2238 134.818 56.0149L137.674 58.8152ZM144.73 47.0854C146.163 42.5374 146.866 37.5322 146.866 32.0879H142.866C142.866 37.1892 142.207 41.7816 140.915 45.8834L144.73 47.0854ZM146.866 32.0879C146.866 29.29 146.714 26.4645 146.411 23.6117L142.433 24.0348C142.722 26.751 142.866 29.4352 142.866 32.0879H146.866ZM146.415 23.6572C146.173 20.754 145.81 17.9645 145.323 15.2897L141.388 16.0052C141.849 18.5439 142.197 21.205 142.429 23.9893L146.415 23.6572ZM145.323 15.2897C144.836 12.6124 144.226 10.0763 143.49 7.68329L139.667 8.85968C140.352 11.0878 140.927 13.469 141.388 16.0052L145.323 15.2897ZM143.475 7.63904C142.671 5.22455 141.729 3.07825 140.638 1.2171L137.187 3.23993C138.11 4.815 138.945 6.69733 139.681 8.90393L143.475 7.63904ZM138.632 0.24823L121.659 2.64764L122.218 6.60822L139.192 4.2088L138.632 0.24823ZM120.004 5.1369C120.284 6.20013 120.57 7.51154 120.861 9.08002L124.794 8.35162C124.492 6.72089 124.185 5.30701 123.873 4.11896L120.004 5.1369ZM120.863 9.09351C121.151 10.5914 121.412 12.2121 121.645 13.9567L125.609 13.428C125.368 11.618 125.096 9.92096 124.791 8.33813L120.863 9.09351ZM121.652 14.0109C121.94 15.7963 122.172 17.6739 122.346 19.6445L126.33 19.293C126.149 17.2349 125.906 15.2617 125.601 13.3739L121.652 14.0109ZM122.346 19.6498C122.519 21.5468 122.604 23.4118 122.604 25.2451H126.604C126.604 23.2867 126.513 21.3008 126.33 19.2877L122.346 19.6498ZM122.604 25.2451C122.604 27.7021 122.325 29.8884 121.789 31.8192L125.643 32.8898C126.291 30.555 126.604 28.0016 126.604 25.2451H122.604ZM121.793 31.8051C121.285 33.5814 120.436 35.0675 119.252 36.3015L122.137 39.0716C123.796 37.3433 124.962 35.2747 125.639 32.9039L121.793 31.8051ZM119.222 36.3324C118.122 37.5289 116.581 38.526 114.509 39.27L115.86 43.0347C118.409 42.1198 120.542 40.8063 122.166 39.0406L119.222 36.3324ZM114.566 39.2503C112.459 39.9353 109.75 40.3076 106.387 40.3076V44.3076C110.014 44.3076 113.171 43.9098 115.803 43.0544L114.566 39.2503ZM106.387 40.3076H65.0635V44.3076H106.387V40.3076ZM67.0635 42.3076V6.40527H63.0635V42.3076H67.0635ZM65.0635 4.40527H46.8457V8.40527H65.0635V4.40527ZM44.8457 6.40527V42.3076H48.8457V6.40527H44.8457ZM46.8457 40.3076H23.2959V44.3076H46.8457V40.3076Z" fill="black"/>
</svg>
