<svg width="160" height="160" viewBox="0 0 160 160" fill="none" xmlns="http://www.w3.org/2000/svg">
<path d="M80.1 157.2C122.681 157.2 157.2 122.681 157.2 80.1C157.2 37.5188 122.681 3 80.1 3C37.5189 3 3 37.5188 3 80.1C3 122.681 37.5189 157.2 80.1 157.2Z" fill="white" stroke="black" stroke-width="5"/>
<path d="M117.1 115.2C124.9 106.4 129.7 94.7998 129.7 82.0998C129.7 68.8998 124.5 56.8998 116.1 47.9998C107.4 38.6998 95.1 32.7998 81.5 32.2998H80.5C80.2 32.2998 80 32.2998 79.7 32.2998C79.4 32.2998 79.2 32.2998 78.9 32.2998H77.9C64.3 32.7998 52 38.6998 43.3 47.9998C34.9 56.8998 29.7 68.8998 29.7 82.0998C29.7 94.7998 34.5 106.4 42.3 115.2L42.4 115.3C51.2 125.1 63.8 131.5 77.9 131.9H78.9C79.2 131.9 79.4 131.9 79.7 131.9C80 131.9 80.2 131.9 80.5 131.9H81.5C95.6 131.4 108.2 125.1 117 115.2C117.1 115.3 117.1 115.2 117.1 115.2ZM33.4 83.7998H54.1C54.3 91.0998 55.7 98.1998 58.3 104.8C53.4 106.6 48.7 108.9 44.3 111.9C37.8 104.3 33.8 94.4998 33.4 83.7998ZM45.2 51.0998C49.5 53.8998 54 56.0998 58.8 57.7998C55.9 64.8998 54.3 72.4998 54.1 80.2998H33.4C33.8 69.1998 38.2 58.9998 45.2 51.0998ZM126.3 80.3998H105.6C105.4 72.4998 103.8 64.8998 100.9 57.8998C105.7 56.1998 110.2 53.9998 114.5 51.1998C121.5 58.9998 125.8 69.1998 126.3 80.3998ZM78.1 57.8998C73.1 57.7998 68.2 56.9998 63.5 55.6998C67 48.4998 71.9 42.0998 78.1 36.6998V57.8998ZM78.1 61.3998V80.3998H57.5C57.7 72.8998 59.3 65.6998 62.1 58.8998C67.2 60.3998 72.6 61.1998 78.1 61.3998ZM81.5 61.3998C87 61.2998 92.3 60.3998 97.5 58.8998C100.3 65.5998 101.9 72.8998 102.1 80.3998H81.5V61.3998ZM81.5 57.8998V36.6998C87.7 42.0998 92.6 48.4998 96.1 55.6998C91.4 56.9998 86.5 57.7998 81.5 57.8998ZM99.5 54.6998C96.2 47.7998 91.6 41.4998 85.9 35.9998C96 37.2998 105.1 41.8998 112 48.5998C108 51.0998 103.8 53.0998 99.5 54.6998ZM60.2 54.6998C55.8 53.1998 51.6 51.1998 47.6 48.5998C54.6 41.8998 63.7 37.2998 73.7 35.9998C68.1 41.3998 63.5 47.6998 60.2 54.6998ZM57.5 83.7998H78.1V101.1C72.4 101.3 66.8 102.1 61.5 103.8C59 97.3998 57.7 90.6998 57.5 83.7998ZM78.1 104.5V127.4C71.5 121.6 66.3 114.6 62.8 106.9C67.7 105.5 72.9 104.7 78.1 104.5ZM81.5 127.5V104.6C86.7 104.7 91.9 105.6 96.8 107C93.3 114.7 88.1 121.7 81.5 127.5ZM81.5 101.1V83.7998H102.1C101.9 90.6998 100.5 97.3998 98.1 103.7C92.8 102.1 87.2 101.2 81.5 101.1ZM105.6 83.7998H126.3C125.9 94.4998 121.9 104.3 115.4 111.9C111 108.9 106.3 106.6 101.4 104.8C104 98.1998 105.4 91.0998 105.6 83.7998ZM46.6 114.5C50.7 111.8 55 109.6 59.5 108C62.8 115.5 67.7 122.3 73.7 128.1C63.2 126.8 53.7 121.8 46.6 114.5ZM85.9 128.2C92 122.4 96.8 115.6 100.1 108.1C104.6 109.7 109 111.9 113 114.6C105.9 121.8 96.5 126.8 85.9 128.2Z" fill="#2D80F9"/>
</svg>
