<svg width="277" height="332" viewBox="0 0 277 332" fill="none" xmlns="http://www.w3.org/2000/svg">
    <path d="M7.20001 26.2V3.10004L0 6.20001V4.20001L9 0.5H9.30002V26.2H7.20001Z" fill="url(#paint0_linear_3:10148)"/>
    <path d="M36.6 20.1C36.3 21.4 35.8 22.5 35.1 23.5C34.4 24.5 33.6 25.2 32.6 25.8C31.6 26.4 30.4 26.6 29 26.6C27.9 26.6 26.8 26.4 25.9 26C25 25.6 24.2 25.1 23.6 24.4C22.6 23.4 21.9 22.2 21.5 20.7C21.1 19.2 20.9 17.7 20.9 16V10.6C20.9 9.10004 21.1 7.8 21.4 6.5C21.7 5.2 22.2 4.10004 22.9 3.10004C23.6 2.10004 24.4 1.39999 25.4 0.799988C26.4 0.299988 27.6 0 29 0C30.2 0 31.2 0.200037 32.1 0.600037C33 1.00004 33.8 1.50001 34.4 2.20001C35.3 3.20001 36 4.40002 36.4 5.90002C36.8 7.40002 37.1 9.00004 37.1 10.6V16C37.1 17.4 36.9 18.8 36.6 20.1ZM34.6 7.20001C34.4 6.40001 34.2 5.7 33.9 5C33.6 4.3 33.2 3.79999 32.8 3.29999C32.3 2.79999 31.8 2.50001 31.1 2.20001C30.5 1.90001 29.7 1.79999 28.9 1.79999C27.8 1.79999 26.9 2.00002 26.2 2.40002C25.5 2.80002 24.9 3.40004 24.4 4.10004C23.9 4.80004 23.5 5.69999 23.3 6.79999C23.1 7.89999 22.9 9.00001 22.9 10.2V14.7C22.9 15.2 22.9 15.6 22.9 16.1C22.9 16.6 23 17 23.1 17.5L34.6 7.20001ZM34.9 12.1C34.9 11.7 34.9 11.3 34.8 10.7C34.8 10.2 34.7 9.70001 34.7 9.20001L23.3 19.5C23.5 20.3 23.7 21 24 21.7C24.3 22.3 24.7 22.9 25.2 23.3C25.6 23.7 26.2 24.1 26.8 24.3C27.4 24.5 28.1 24.7 28.9 24.7C29.9 24.7 30.8 24.5 31.6 24.1C32.3 23.7 32.9 23.1 33.4 22.4C33.9 21.6 34.3 20.7 34.6 19.7C34.8 18.6 35 17.5 35 16.3V12.1H34.9Z" fill="url(#paint1_linear_3:10148)"/>
    <path d="M50.8 26.2V3.10004L43.6 6.20001V4.20001L52.6 0.5H52.9V26.2H50.8Z" fill="url(#paint2_linear_3:10148)"/>
    <path d="M80.2 20.1C79.9 21.4 79.4 22.5 78.7 23.5C78 24.5 77.2 25.2 76.2 25.8C75.2 26.4 74 26.6 72.6 26.6C71.5 26.6 70.4 26.4 69.5 26C68.6 25.6 67.8 25.1 67.2 24.4C66.2 23.4 65.5 22.2 65.1 20.7C64.7 19.2 64.5 17.7 64.5 16V10.6C64.5 9.10004 64.7 7.8 65 6.5C65.3 5.2 65.8 4.10004 66.5 3.10004C67.2 2.10004 68 1.39999 69 0.799988C70 0.299988 71.2 0 72.6 0C73.8 0 74.8 0.200037 75.7 0.600037C76.6 1.00004 77.4 1.50001 78 2.20001C78.9 3.20001 79.6 4.40002 80 5.90002C80.4 7.40002 80.7 9.00004 80.7 10.6V16C80.7 17.4 80.5 18.8 80.2 20.1ZM78.2 7.20001C78 6.40001 77.8 5.7 77.5 5C77.2 4.3 76.8 3.79999 76.4 3.29999C75.9 2.79999 75.4 2.50001 74.7 2.20001C74 1.90001 73.3 1.79999 72.5 1.79999C71.4 1.79999 70.5 2.00002 69.8 2.40002C69.1 2.80002 68.5 3.40004 68 4.10004C67.5 4.80004 67.1 5.69999 66.9 6.79999C66.7 7.89999 66.5 9.00001 66.5 10.2V14.7C66.5 15.2 66.5 15.6 66.5 16.1C66.5 16.6 66.6 17 66.7 17.5L78.2 7.20001ZM78.5 12.1C78.5 11.7 78.5 11.3 78.4 10.7C78.4 10.2 78.3 9.70001 78.3 9.20001L66.9 19.5C67.1 20.3 67.3 21 67.6 21.7C67.9 22.3 68.3 22.9 68.8 23.3C69.2 23.7 69.8 24.1 70.4 24.3C71 24.5 71.7 24.7 72.5 24.7C73.5 24.7 74.4 24.5 75.2 24.1C75.9 23.7 76.5 23.1 77 22.4C77.5 21.6 77.9 20.7 78.2 19.7C78.5 18.7 78.6 17.5 78.6 16.3V12.1H78.5Z" fill="url(#paint3_linear_3:10148)"/>
    <path d="M94.4 26.2V3.10004L87.2 6.20001V4.20001L96.2 0.5H96.5V26.2H94.4Z" fill="url(#paint4_linear_3:10148)"/>
    <path d="M116.2 26.2V3.10004L109 6.20001V4.20001L118 0.5H118.3V26.2H116.2Z" fill="url(#paint5_linear_3:10148)"/>
    <path d="M138.1 26.2V3.10004L130.9 6.20001V4.20001L139.9 0.5H140.2V26.2H138.1Z" fill="url(#paint6_linear_3:10148)"/>
    <path d="M167.4 20.1C167.1 21.4 166.6 22.5 165.9 23.5C165.2 24.5 164.4 25.2 163.4 25.8C162.4 26.4 161.2 26.6 159.8 26.6C158.7 26.6 157.6 26.4 156.7 26C155.8 25.6 155 25.1 154.4 24.4C153.4 23.4 152.7 22.2 152.3 20.7C151.9 19.2 151.7 17.7 151.7 16V10.6C151.7 9.10004 151.9 7.8 152.2 6.5C152.5 5.2 153 4.10004 153.7 3.10004C154.4 2.10004 155.2 1.39999 156.2 0.799988C157.2 0.299988 158.4 0 159.8 0C161 0 162 0.200037 162.9 0.600037C163.8 1.00004 164.6 1.50001 165.2 2.20001C166.1 3.20001 166.8 4.40002 167.2 5.90002C167.6 7.40002 167.9 9.00004 167.9 10.6V16C167.9 17.4 167.7 18.8 167.4 20.1ZM165.4 7.20001C165.2 6.40001 165 5.7 164.7 5C164.4 4.3 164 3.79999 163.6 3.29999C163.1 2.79999 162.6 2.50001 161.9 2.20001C161.3 1.90001 160.5 1.79999 159.7 1.79999C158.6 1.79999 157.7 2.00002 157 2.40002C156.3 2.80002 155.7 3.40004 155.2 4.10004C154.7 4.80004 154.3 5.69999 154.1 6.79999C153.9 7.89999 153.7 9.00001 153.7 10.2V14.7C153.7 15.2 153.7 15.6 153.7 16.1C153.7 16.6 153.8 17 153.9 17.5L165.4 7.20001ZM165.8 12.1C165.8 11.7 165.8 11.3 165.7 10.7C165.7 10.2 165.6 9.70001 165.6 9.20001L154.2 19.6C154.4 20.4 154.6 21.1 154.9 21.8C155.2 22.4 155.6 23 156.1 23.4C156.5 23.8 157.1 24.2 157.7 24.4C158.3 24.6 159 24.8 159.8 24.8C160.8 24.8 161.7 24.6 162.5 24.2C163.2 23.8 163.8 23.2 164.3 22.5C164.8 21.7 165.2 20.8 165.5 19.8C165.7 18.7 165.9 17.6 165.9 16.4V12.1H165.8Z" fill="url(#paint7_linear_3:10148)"/>
    <path d="M181.7 26.2V3.10004L174.5 6.20001V4.20001L183.5 0.5H183.8V26.2H181.7Z" fill="url(#paint8_linear_3:10148)"/>
    <path d="M203.5 26.2V3.10004L196.3 6.20001V4.20001L205.3 0.5H205.6V26.2H203.5Z" fill="url(#paint9_linear_3:10148)"/>
    <path d="M225.3 26.2V3.10004L218.1 6.20001V4.20001L227.1 0.5H227.4V26.2H225.3Z" fill="url(#paint10_linear_3:10148)"/>
    <path d="M254.6 20.1C254.3 21.4 253.8 22.5 253.1 23.5C252.4 24.5 251.6 25.2 250.6 25.8C249.6 26.4 248.4 26.6 247 26.6C245.9 26.6 244.8 26.4 243.9 26C243 25.6 242.2 25.1 241.6 24.4C240.6 23.4 239.9 22.2 239.5 20.7C239.1 19.2 238.9 17.7 238.9 16V10.6C238.9 9.10004 239.1 7.8 239.4 6.5C239.7 5.2 240.2 4.10004 240.9 3.10004C241.6 2.10004 242.4 1.39999 243.4 0.799988C244.4 0.299988 245.6 0 247 0C248.2 0 249.2 0.200037 250.1 0.600037C251 1.00004 251.8 1.50001 252.4 2.20001C253.3 3.20001 254 4.40002 254.4 5.90002C254.8 7.40002 255.1 9.00004 255.1 10.6V16C255.1 17.4 255 18.8 254.6 20.1ZM252.7 7.20001C252.5 6.40001 252.3 5.7 252 5C251.7 4.3 251.3 3.79999 250.9 3.29999C250.4 2.79999 249.9 2.50001 249.2 2.20001C248.6 1.90001 247.8 1.79999 247 1.79999C245.9 1.79999 245 2.00002 244.3 2.40002C243.6 2.80002 243 3.40004 242.5 4.10004C242 4.80004 241.6 5.69999 241.4 6.79999C241.2 7.89999 241 9.00001 241 10.2V14.7C241 15.2 241 15.6 241 16.1C241 16.6 241.1 17 241.2 17.5L252.7 7.20001ZM253 12.1C253 11.7 253 11.3 252.9 10.7C252.9 10.2 252.8 9.70001 252.8 9.20001L241.4 19.5C241.6 20.3 241.8 21 242.1 21.7C242.4 22.3 242.8 22.9 243.3 23.3C243.7 23.7 244.3 24.1 244.9 24.3C245.5 24.5 246.2 24.7 247 24.7C248 24.7 248.9 24.5 249.7 24.1C250.4 23.7 251 23.1 251.5 22.4C252 21.6 252.4 20.7 252.7 19.7C252.9 18.6 253.1 17.5 253.1 16.3V12.1H253Z" fill="url(#paint11_linear_3:10148)"/>
    <path d="M276.5 20.1C276.2 21.4 275.7 22.5 275 23.5C274.3 24.5 273.5 25.2 272.5 25.8C271.5 26.4 270.3 26.6 268.9 26.6C267.8 26.6 266.7 26.4 265.8 26C264.9 25.6 264.1 25.1 263.5 24.4C262.5 23.4 261.8 22.2 261.4 20.7C261 19.2 260.8 17.7 260.8 16V10.6C260.8 9.10004 261 7.8 261.3 6.5C261.6 5.2 262.1 4.10004 262.8 3.10004C263.5 2.10004 264.3 1.39999 265.3 0.799988C266.3 0.299988 267.5 0 268.9 0C270.1 0 271.1 0.200037 272 0.600037C272.9 1.00004 273.7 1.50001 274.3 2.20001C275.2 3.20001 275.9 4.40002 276.3 5.90002C276.7 7.40002 277 9.00004 277 10.6V16C276.9 17.4 276.8 18.8 276.5 20.1ZM274.5 7.20001C274.3 6.40001 274.1 5.7 273.8 5C273.5 4.3 273.1 3.79999 272.7 3.29999C272.2 2.79999 271.7 2.50001 271 2.20001C270.4 1.90001 269.6 1.79999 268.8 1.79999C267.7 1.79999 266.8 2.00002 266.1 2.40002C265.4 2.80002 264.8 3.40004 264.3 4.10004C263.8 4.80004 263.4 5.69999 263.2 6.79999C263 7.89999 262.8 9.00001 262.8 10.2V14.7C262.8 15.2 262.8 15.6 262.8 16.1C262.8 16.6 262.9 17 263 17.5L274.5 7.20001ZM274.8 12.1C274.8 11.7 274.8 11.3 274.7 10.7C274.7 10.2 274.6 9.70001 274.6 9.20001L263.2 19.6C263.4 20.4 263.6 21.1 263.9 21.8C264.2 22.4 264.6 23 265.1 23.4C265.5 23.8 266.1 24.2 266.7 24.4C267.3 24.6 268 24.8 268.8 24.8C269.8 24.8 270.7 24.6 271.5 24.2C272.2 23.8 272.8 23.2 273.3 22.5C273.8 21.7 274.2 20.8 274.5 19.8C274.7 18.7 274.9 17.6 274.9 16.4V12.1H274.8Z" fill="url(#paint12_linear_3:10148)"/>
    <path d="M7.20001 69.8V46.7001L0 49.8V47.8L9 44.1001H9.30002V69.9001H7.20001V69.8Z" fill="url(#paint13_linear_3:10148)"/>
    <path d="M36.6 63.7001C36.3 65.0001 35.8 66.1001 35.1 67.1001C34.4 68.1001 33.6 68.8001 32.6 69.4001C31.6 70.0001 30.4 70.2001 29 70.2001C27.9 70.2001 26.8 70.0001 25.9 69.6001C25 69.2001 24.2 68.7001 23.6 68.0001C22.6 67.0001 21.9 65.8 21.5 64.3C21.1 62.8 20.9 61.3001 20.9 59.6001V54.2001C20.9 52.7001 21.1 51.4001 21.4 50.1001C21.7 48.8001 22.2 47.7001 22.9 46.7001C23.6 45.7001 24.4 45.0001 25.4 44.4001C26.4 43.9001 27.6 43.6001 29 43.6001C30.2 43.6001 31.2 43.8001 32.1 44.2001C33 44.6001 33.8 45.1 34.4 45.8C35.3 46.8 36 48.0001 36.4 49.5001C36.8 51.0001 37.1 52.6001 37.1 54.2001V59.6001C37.1 61.0001 36.9 62.4001 36.6 63.7001ZM34.6 50.8C34.4 50 34.2 49.3001 33.9 48.6001C33.6 47.9001 33.2 47.4001 32.8 46.9001C32.4 46.4001 31.8 46.1 31.1 45.8C30.5 45.5 29.7 45.4001 28.9 45.4001C27.8 45.4001 26.9 45.6001 26.2 46.0001C25.5 46.4001 24.9 47.0001 24.4 47.7001C23.9 48.4001 23.5 49.3001 23.3 50.4001C23.1 51.5001 22.9 52.6 22.9 53.8V58.3C22.9 58.8 22.9 59.2001 22.9 59.7001C22.9 60.2001 23 60.6001 23.1 61.1001L34.6 50.8ZM34.9 55.7001C34.9 55.3001 34.9 54.9 34.8 54.3C34.8 53.8 34.7 53.3 34.7 52.8L23.3 63.2001C23.5 64.0001 23.7 64.7001 24 65.4001C24.3 66.1001 24.7 66.6001 25.2 67.0001C25.6 67.4001 26.2 67.8001 26.8 68.0001C27.4 68.2001 28.1 68.4001 28.9 68.4001C29.9 68.4001 30.8 68.2 31.6 67.8C32.3 67.4 32.9 66.8001 33.4 66.1001C33.9 65.3001 34.3 64.4001 34.6 63.4001C34.8 62.3001 35 61.2001 35 60.0001V55.7001H34.9Z" fill="url(#paint14_linear_3:10148)"/>
    <path d="M50.8 69.8V46.7001L43.6 49.8V47.8L52.6 44.1001H52.9V69.9001H50.8V69.8Z" fill="url(#paint15_linear_3:10148)"/>
    <path d="M80.2 63.7001C79.9 65.0001 79.4 66.1001 78.7 67.1001C78 68.1001 77.2 68.8001 76.2 69.4001C75.2 70.0001 74 70.2001 72.6 70.2001C71.5 70.2001 70.4 70.0001 69.5 69.6001C68.6 69.2001 67.8 68.7001 67.2 68.0001C66.2 67.0001 65.5 65.8 65.1 64.3C64.7 62.8 64.5 61.3001 64.5 59.6001V54.2001C64.5 52.7001 64.7 51.4001 65 50.1001C65.3 48.8001 65.8 47.7001 66.5 46.7001C67.2 45.7001 68 45.0001 69 44.4001C70 43.8001 71.2 43.6001 72.6 43.6001C73.8 43.6001 74.8 43.8001 75.7 44.2001C76.6 44.6001 77.4 45.1 78 45.8C78.9 46.8 79.6 48.0001 80 49.5001C80.4 51.0001 80.7 52.6001 80.7 54.2001V59.6001C80.7 61.0001 80.5 62.4001 80.2 63.7001ZM78.2 50.8C78 50 77.8 49.3001 77.5 48.6001C77.2 47.9001 76.8 47.4001 76.4 46.9001C76 46.4001 75.4 46.1 74.7 45.8C74.1 45.5 73.3 45.4001 72.5 45.4001C71.4 45.4001 70.5 45.6001 69.8 46.0001C69.1 46.4001 68.5 47.0001 68 47.7001C67.5 48.4001 67.1 49.3001 66.9 50.4001C66.7 51.5001 66.5 52.6 66.5 53.8V58.3C66.5 58.8 66.5 59.2001 66.5 59.7001C66.5 60.2001 66.6 60.6001 66.7 61.1001L78.2 50.8ZM78.5 55.7001C78.5 55.3001 78.5 54.9 78.4 54.3C78.4 53.8 78.3 53.3 78.3 52.8L66.9 63.2001C67.1 64.0001 67.3 64.7001 67.6 65.4001C67.9 66.0001 68.3 66.6001 68.8 67.0001C69.2 67.4001 69.8 67.8001 70.4 68.0001C71 68.2001 71.7 68.4001 72.5 68.4001C73.5 68.4001 74.4 68.2 75.2 67.8C75.9 67.4 76.5 66.8001 77 66.1001C77.5 65.3001 77.9 64.4001 78.2 63.4001C78.5 62.4001 78.6 61.2001 78.6 60.0001V55.7001H78.5Z" fill="url(#paint16_linear_3:10148)"/>
    <path d="M102 63.7001C101.7 65.0001 101.2 66.1001 100.5 67.1001C99.8 68.1001 99 68.8001 98 69.4001C97 70.0001 95.8 70.2001 94.4 70.2001C93.3 70.2001 92.2 70.0001 91.3 69.6001C90.4 69.2001 89.6 68.7001 89 68.0001C88 67.0001 87.3 65.8 86.9 64.3C86.5 62.8 86.3 61.3001 86.3 59.6001V54.2001C86.3 52.7001 86.5 51.4001 86.8 50.1001C87.1 48.8001 87.6 47.7001 88.3 46.7001C89 45.7001 89.8 45.0001 90.8 44.4001C91.8 43.8001 93 43.6001 94.4 43.6001C95.6 43.6001 96.6 43.8001 97.5 44.2001C98.4 44.6001 99.2 45.1 99.8 45.8C100.7 46.8 101.4 48.0001 101.8 49.5001C102.2 51.0001 102.5 52.6001 102.5 54.2001V59.6001C102.5 61.0001 102.3 62.4001 102 63.7001ZM100 50.8C99.8 50 99.6 49.3001 99.3 48.6001C99 47.9001 98.6 47.4001 98.2 46.9001C97.7 46.4001 97.2 46.1 96.5 45.8C95.9 45.5 95.1 45.4001 94.3 45.4001C93.2 45.4001 92.3 45.6001 91.6 46.0001C90.9 46.4001 90.3 47.0001 89.8 47.7001C89.3 48.4001 88.9 49.3001 88.7 50.4001C88.5 51.5001 88.3 52.6 88.3 53.8V58.3C88.3 58.8 88.3 59.2001 88.3 59.7001C88.3 60.2001 88.4 60.6001 88.5 61.1001L100 50.8ZM100.3 55.7001C100.3 55.3001 100.3 54.9 100.2 54.3C100.1 53.7 100.1 53.3 100.1 52.8L88.7 63.2001C88.9 64.0001 89.1 64.7001 89.4 65.4001C89.7 66.0001 90.1 66.6001 90.6 67.0001C91 67.4001 91.6 67.8001 92.2 68.0001C92.8 68.2001 93.5 68.4001 94.3 68.4001C95.3 68.4001 96.2 68.2 97 67.8C97.7 67.4 98.3 66.8001 98.8 66.1001C99.3 65.3001 99.7 64.4001 100 63.4001C100.2 62.3001 100.4 61.2001 100.4 60.0001V55.7001H100.3Z" fill="url(#paint17_linear_3:10148)"/>
    <path d="M123.8 63.7001C123.5 65.0001 123 66.1001 122.3 67.1001C121.6 68.1001 120.8 68.8001 119.8 69.4001C118.8 70.0001 117.6 70.2001 116.2 70.2001C115.1 70.2001 114 70.0001 113.1 69.6001C112.2 69.2001 111.4 68.7001 110.8 68.0001C109.8 67.0001 109.1 65.8 108.7 64.3C108.3 62.8 108.1 61.3001 108.1 59.6001V54.2001C108.1 52.7001 108.3 51.4001 108.6 50.1001C108.9 48.8001 109.4 47.7001 110.1 46.7001C110.8 45.7001 111.6 45.0001 112.6 44.4001C113.6 43.8001 114.8 43.6001 116.2 43.6001C117.4 43.6001 118.4 43.8001 119.3 44.2001C120.2 44.6001 121 45.1 121.6 45.8C122.5 46.8 123.2 48.0001 123.6 49.5001C124 51.0001 124.3 52.6001 124.3 54.2001V59.6001C124.3 61.0001 124.1 62.4001 123.8 63.7001ZM121.8 50.8C121.6 50 121.4 49.3001 121.1 48.6001C120.8 47.9001 120.4 47.4001 120 46.9001C119.6 46.4001 119 46.1 118.3 45.8C117.7 45.5 116.9 45.4001 116.1 45.4001C115 45.4001 114.1 45.6001 113.4 46.0001C112.7 46.4001 112.1 47.0001 111.6 47.7001C111.1 48.4001 110.7 49.3001 110.5 50.4001C110.3 51.5001 110.1 52.6 110.1 53.8V58.3C110.1 58.8 110.1 59.2001 110.1 59.7001C110.1 60.2001 110.2 60.6001 110.3 61.1001L121.8 50.8ZM122.2 55.7001C122.2 55.3001 122.2 54.9 122.1 54.3C122.1 53.8 122 53.3 122 52.8L110.5 63.2001C110.7 64.0001 110.9 64.7001 111.2 65.4001C111.5 66.0001 111.9 66.6001 112.4 67.0001C112.8 67.4001 113.4 67.8001 114 68.0001C114.6 68.2001 115.3 68.4001 116.1 68.4001C117.1 68.4001 118 68.2 118.8 67.8C119.5 67.4 120.1 66.8001 120.6 66.1001C121.1 65.3001 121.5 64.4001 121.8 63.4001C122 62.3001 122.2 61.2001 122.2 60.0001V55.7001Z" fill="url(#paint18_linear_3:10148)"/>
    <path d="M138.1 69.8V46.7001L130.9 49.8V47.8L139.9 44.1001H140.2V69.9001H138.1V69.8Z" fill="url(#paint19_linear_3:10148)"/>
    <path d="M159.9 69.8V46.7001L152.7 49.8V47.8L161.7 44.1001H162V69.9001H159.9V69.8Z" fill="url(#paint20_linear_3:10148)"/>
    <path d="M181.7 69.8V46.7001L174.5 49.8V47.8L183.5 44.1001H183.8V69.9001H181.7V69.8Z" fill="url(#paint21_linear_3:10148)"/>
    <path d="M203.5 69.8V46.7001L196.3 49.8V47.8L205.3 44.1001H205.6V69.9001H203.5V69.8Z" fill="url(#paint22_linear_3:10148)"/>
    <path d="M225.3 69.8V46.7001L218.1 49.8V47.8L227.1 44.1001H227.4V69.9001H225.3V69.8Z" fill="url(#paint23_linear_3:10148)"/>
    <path d="M254.6 63.7001C254.3 65.0001 253.8 66.1001 253.1 67.1001C252.4 68.1001 251.6 68.8001 250.6 69.4001C249.6 70.0001 248.4 70.2001 247 70.2001C245.9 70.2001 244.8 70.0001 243.9 69.6001C243 69.2001 242.2 68.7001 241.6 68.0001C240.6 67.0001 239.9 65.8 239.5 64.3C239.1 62.8 238.9 61.3001 238.9 59.6001V54.2001C238.9 52.7001 239.1 51.4001 239.4 50.1001C239.7 48.8001 240.2 47.7001 240.9 46.7001C241.6 45.7001 242.4 45.0001 243.4 44.4001C244.4 43.8001 245.6 43.6001 247 43.6001C248.2 43.6001 249.2 43.8001 250.1 44.2001C251 44.6001 251.8 45.1 252.4 45.8C253.3 46.8 254 48.0001 254.4 49.5001C254.8 51.0001 255.1 52.6001 255.1 54.2001V59.6001C255.1 61.0001 255 62.4001 254.6 63.7001ZM252.7 50.8C252.5 50 252.3 49.3001 252 48.6001C251.7 47.9001 251.3 47.4001 250.9 46.9001C250.5 46.4001 249.9 46.1 249.2 45.8C248.6 45.5 247.8 45.4001 247 45.4001C245.9 45.4001 245 45.6001 244.3 46.0001C243.6 46.4001 243 47.0001 242.5 47.7001C242 48.4001 241.6 49.3001 241.4 50.4001C241.2 51.5001 241 52.6 241 53.8V58.3C241 58.8 241 59.2001 241 59.7001C241 60.2001 241.1 60.6001 241.2 61.1001L252.7 50.8ZM253 55.7001C253 55.3001 253 54.9 252.9 54.3C252.9 53.8 252.8 53.3 252.8 52.8L241.4 63.2001C241.6 64.0001 241.8 64.7001 242.1 65.4001C242.4 66.1001 242.8 66.6001 243.3 67.0001C243.7 67.4001 244.3 67.8001 244.9 68.0001C245.5 68.2001 246.2 68.4001 247 68.4001C248 68.4001 248.9 68.2 249.7 67.8C250.4 67.4 251 66.8001 251.5 66.1001C252 65.3001 252.4 64.4001 252.7 63.4001C252.9 62.3001 253.1 61.2001 253.1 60.0001V55.7001H253Z" fill="url(#paint24_linear_3:10148)"/>
    <path d="M268.9 69.8V46.7001L261.7 49.8V47.8L270.7 44.1001H271V69.9001H268.9V69.8Z" fill="url(#paint25_linear_3:10148)"/>
    <path d="M7.20001 113.4V90.3L0 93.4V91.4L9 87.7H9.30002V113.5H7.20001V113.4Z" fill="url(#paint26_linear_3:10148)"/>
    <path d="M29 113.4V90.3L21.8 93.4V91.4L30.8 87.7H31.1001V113.5H29V113.4Z" fill="url(#paint27_linear_3:10148)"/>
    <path d="M58.4 107.3C58.1 108.6 57.6 109.7 56.9 110.7C56.2 111.7 55.4 112.4 54.4 113C53.4 113.6 52.2 113.8 50.8 113.8C49.7 113.8 48.6 113.6 47.7 113.2C46.8 112.8 46 112.3 45.4 111.6C44.4 110.6 43.7 109.4 43.3 107.9C42.9 106.4 42.7 104.9 42.7 103.2V97.8C42.7 96.3 42.9 95 43.2 93.7C43.5 92.4 44 91.3 44.7 90.3C45.4 89.3 46.2 88.6 47.2 88C48.2 87.5 49.4 87.2 50.8 87.2C52 87.2 53 87.4 53.9 87.8C54.8 88.2 55.6 88.7 56.2 89.4C57.1 90.4 57.8 91.6 58.2 93.1C58.6 94.6 58.9 96.2 58.9 97.8V103.2C58.9 104.7 58.7 106 58.4 107.3ZM56.4 94.4C56.2 93.6 56 92.9 55.7 92.2C55.4 91.5 55 91 54.6 90.5C54.2 90 53.6 89.7 52.9 89.4C52.3 89.1 51.5 89 50.7 89C49.6 89 48.7 89.2 48 89.6C47.3 90 46.7 90.6 46.2 91.3C45.7 92 45.3 92.9 45.1 94C44.9 95.1 44.7 96.2 44.7 97.4V101.9C44.7 102.4 44.7 102.8 44.7 103.3C44.7 103.8 44.8 104.2 44.9 104.7L56.4 94.4ZM56.7 99.4C56.7 99 56.7 98.6 56.6 98C56.6 97.5 56.5 97 56.5 96.5L45.1 106.8C45.3 107.6 45.5 108.3 45.8 109C46.1 109.6 46.5 110.2 47 110.6C47.4 111 48 111.4 48.6 111.6C49.2 111.8 49.9 112 50.7 112C51.7 112 52.6 111.8 53.4 111.4C54.2 111 54.7 110.4 55.2 109.7C55.7 108.9 56.1 108 56.4 107C56.6 105.9 56.8 104.8 56.8 103.6V99.4H56.7Z" fill="url(#paint28_linear_3:10148)"/>
    <path d="M72.6 113.4V90.3L65.4 93.4V91.4L74.4 87.7H74.7V113.5H72.6V113.4Z" fill="url(#paint29_linear_3:10148)"/>
    <path d="M94.4 113.4V90.3L87.2 93.4V91.4L96.2 87.7H96.5V113.5H94.4V113.4Z" fill="url(#paint30_linear_3:10148)"/>
    <path d="M116.2 113.4V90.3L109 93.4V91.4L118 87.7H118.3V113.5H116.2V113.4Z" fill="url(#paint31_linear_3:10148)"/>
    <path d="M145.6 107.3C145.3 108.6 144.8 109.7 144.1 110.7C143.4 111.7 142.6 112.4 141.6 113C140.6 113.6 139.4 113.8 138 113.8C136.9 113.8 135.8 113.6 134.9 113.2C134 112.8 133.2 112.3 132.6 111.6C131.6 110.6 130.9 109.4 130.5 107.9C130.1 106.4 129.9 104.9 129.9 103.2V97.8C129.9 96.3 130.1 95 130.4 93.7C130.7 92.4 131.2 91.3 131.9 90.3C132.6 89.3 133.4 88.6 134.4 88C135.4 87.4 136.6 87.2 138 87.2C139.2 87.2 140.2 87.4 141.1 87.8C142 88.2 142.8 88.7 143.4 89.4C144.3 90.4 145 91.6 145.4 93.1C145.8 94.6 146.1 96.2 146.1 97.8V103.2C146.1 104.7 145.9 106 145.6 107.3ZM143.6 94.4C143.4 93.6 143.2 92.9 142.9 92.2C142.6 91.5 142.2 91 141.8 90.5C141.4 90 140.8 89.7 140.1 89.4C139.5 89.1 138.7 89 137.9 89C136.8 89 135.9 89.2 135.2 89.6C134.5 90 133.9 90.6 133.4 91.3C132.9 92 132.5 92.9 132.3 94C132.1 95.1 131.9 96.2 131.9 97.4V101.9C131.9 102.4 131.9 102.8 131.9 103.3C131.9 103.8 132 104.2 132.1 104.7L143.6 94.4ZM144 99.4C144 99 144 98.6 143.9 98C143.9 97.5 143.8 97 143.8 96.5L132.4 106.8C132.6 107.6 132.8 108.3 133.1 109C133.4 109.7 133.8 110.2 134.3 110.6C134.7 111 135.3 111.4 135.9 111.6C136.5 111.8 137.2 112 138 112C139 112 139.9 111.8 140.7 111.4C141.4 111 142 110.4 142.5 109.7C143 108.9 143.4 108 143.7 107C143.9 105.9 144.1 104.8 144.1 103.6V99.4H144Z" fill="url(#paint32_linear_3:10148)"/>
    <path d="M167.4 107.3C167.1 108.6 166.6 109.7 165.9 110.7C165.2 111.7 164.4 112.4 163.4 113C162.4 113.6 161.2 113.8 159.8 113.8C158.7 113.8 157.6 113.6 156.7 113.2C155.8 112.8 155 112.3 154.4 111.6C153.4 110.6 152.7 109.4 152.3 107.9C151.9 106.4 151.7 104.9 151.7 103.2V97.8C151.7 96.3 151.9 95 152.2 93.7C152.5 92.4 153 91.3 153.7 90.3C154.4 89.3 155.2 88.6 156.2 88C157.2 87.5 158.4 87.2 159.8 87.2C161 87.2 162 87.4 162.9 87.8C163.8 88.2 164.6 88.7 165.2 89.4C166.1 90.4 166.8 91.6 167.2 93.1C167.6 94.6 167.9 96.2 167.9 97.8V103.2C167.9 104.7 167.7 106 167.4 107.3ZM165.4 94.4C165.2 93.6 165 92.9 164.7 92.2C164.4 91.5 164 91 163.6 90.5C163.2 90 162.6 89.7 161.9 89.4C161.3 89.1 160.5 89 159.7 89C158.6 89 157.7 89.2 157 89.6C156.3 90 155.7 90.6 155.2 91.3C154.7 92 154.3 92.9 154.1 94C153.9 95.1 153.7 96.2 153.7 97.4V101.9C153.7 102.4 153.7 102.8 153.7 103.3C153.7 103.8 153.8 104.2 153.9 104.7L165.4 94.4ZM165.8 99.4C165.8 99 165.8 98.6 165.7 98C165.7 97.5 165.6 97 165.6 96.5L154.2 106.8C154.4 107.6 154.6 108.3 154.9 109C155.2 109.7 155.6 110.2 156.1 110.6C156.5 111 157.1 111.4 157.7 111.6C158.3 111.8 159 112 159.8 112C160.8 112 161.7 111.8 162.5 111.4C163.3 111 163.8 110.4 164.3 109.7C164.8 108.9 165.2 108 165.5 107C165.7 105.9 165.9 104.8 165.9 103.6V99.4H165.8Z" fill="url(#paint33_linear_3:10148)"/>
    <path d="M189.2 107.3C188.9 108.6 188.4 109.7 187.7 110.7C187 111.7 186.2 112.4 185.2 113C184.2 113.6 183 113.8 181.6 113.8C180.5 113.8 179.4 113.6 178.5 113.2C177.6 112.8 176.8 112.3 176.2 111.6C175.2 110.6 174.5 109.4 174.1 107.9C173.7 106.4 173.5 104.9 173.5 103.2V97.8C173.5 96.3 173.7 95 174 93.7C174.3 92.4 174.8 91.3 175.5 90.3C176.2 89.3 177 88.6 178 88C179 87.5 180.2 87.2 181.6 87.2C182.8 87.2 183.8 87.4 184.7 87.8C185.6 88.2 186.4 88.7 187 89.4C187.9 90.4 188.6 91.6 189 93.1C189.4 94.6 189.7 96.2 189.7 97.8V103.2C189.7 104.7 189.5 106 189.2 107.3ZM187.2 94.4C187 93.6 186.8 92.9 186.5 92.2C186.2 91.5 185.8 91 185.4 90.5C185 90 184.4 89.7 183.7 89.4C183.1 89.1 182.3 89 181.5 89C180.4 89 179.5 89.2 178.8 89.6C178.1 90 177.5 90.6 177 91.3C176.5 92 176.1 92.9 175.9 94C175.7 95.1 175.5 96.2 175.5 97.4V101.9C175.5 102.4 175.5 102.8 175.5 103.3C175.5 103.8 175.6 104.2 175.7 104.7L187.2 94.4ZM187.6 99.4C187.6 99 187.6 98.6 187.5 98C187.5 97.5 187.4 97 187.4 96.5L176 106.8C176.2 107.6 176.4 108.3 176.7 109C177 109.6 177.4 110.2 177.9 110.6C178.3 111 178.9 111.4 179.5 111.6C180.1 111.8 180.8 112 181.6 112C182.6 112 183.5 111.8 184.3 111.4C185.1 111 185.6 110.4 186.1 109.7C186.6 108.9 187 108 187.3 107C187.5 105.9 187.7 104.8 187.7 103.6V99.4H187.6Z" fill="url(#paint34_linear_3:10148)"/>
    <path d="M203.5 113.4V90.3L196.3 93.4V91.4L205.3 87.7H205.6V113.5H203.5V113.4Z" fill="url(#paint35_linear_3:10148)"/>
    <path d="M225.3 113.4V90.3L218.1 93.4V91.4L227.1 87.7H227.4V113.5H225.3V113.4Z" fill="url(#paint36_linear_3:10148)"/>
    <path d="M254.6 107.3C254.3 108.6 253.8 109.7 253.1 110.7C252.4 111.7 251.6 112.4 250.6 113C249.6 113.6 248.4 113.8 247 113.8C245.9 113.8 244.8 113.6 243.9 113.2C243 112.8 242.2 112.3 241.6 111.6C240.6 110.6 239.9 109.4 239.5 107.9C239.1 106.4 238.9 104.9 238.9 103.2V97.8C238.9 96.3 239.1 95 239.4 93.7C239.7 92.4 240.2 91.3 240.9 90.3C241.6 89.3 242.4 88.6 243.4 88C244.4 87.4 245.6 87.2 247 87.2C248.2 87.2 249.2 87.4 250.1 87.8C251 88.2 251.8 88.7 252.4 89.4C253.3 90.4 254 91.6 254.4 93.1C254.8 94.6 255.1 96.2 255.1 97.8V103.2C255.1 104.7 255 106 254.6 107.3ZM252.7 94.4C252.5 93.6 252.3 92.9 252 92.2C251.7 91.5 251.3 91 250.9 90.5C250.5 90 249.9 89.7 249.2 89.4C248.6 89.1 247.8 89 247 89C245.9 89 245 89.2 244.3 89.6C243.6 90 243 90.6 242.5 91.3C242 92 241.6 92.9 241.4 94C241.2 95.1 241 96.2 241 97.4V101.9C241 102.4 241 102.8 241 103.3C241 103.8 241.1 104.2 241.2 104.7L252.7 94.4ZM253 99.4C253 99 253 98.6 252.9 98C252.9 97.5 252.8 97 252.8 96.5L241.4 106.8C241.6 107.6 241.8 108.3 242.1 109C242.4 109.7 242.8 110.2 243.3 110.6C243.7 111 244.3 111.4 244.9 111.6C245.5 111.8 246.2 112 247 112C248 112 248.9 111.8 249.7 111.4C250.4 111 251 110.4 251.5 109.7C252 108.9 252.4 108 252.7 107C252.9 105.9 253.1 104.8 253.1 103.6V99.4H253Z" fill="url(#paint37_linear_3:10148)"/>
    <path d="M268.9 113.4V90.3L261.7 93.4V91.4L270.7 87.7H271V113.5H268.9V113.4Z" fill="url(#paint38_linear_3:10148)"/>
    <path d="M7.20001 157V133.9L0 137V135L9 131.3H9.30002V157.1H7.20001V157Z" fill="url(#paint39_linear_3:10148)"/>
    <path d="M29 157V133.9L21.8 137V135L30.8 131.3H31.1001V157.1H29V157Z" fill="url(#paint40_linear_3:10148)"/>
    <path d="M50.8 157V133.9L43.6 137V135L52.6 131.3H52.9V157.1H50.8V157Z" fill="url(#paint41_linear_3:10148)"/>
    <path d="M80.2 150.9C79.9 152.2 79.4 153.3 78.7 154.3C78 155.3 77.2 156 76.2 156.6C75.2 157.2 74 157.4 72.6 157.4C71.5 157.4 70.4 157.2 69.5 156.8C68.6 156.4 67.8 155.9 67.2 155.2C66.2 154.2 65.5 153 65.1 151.5C64.7 150 64.5 148.5 64.5 146.8V141.4C64.5 139.9 64.7 138.6 65 137.3C65.3 136 65.8 134.9 66.5 133.9C67.2 132.9 68 132.2 69 131.6C70 131.1 71.2 130.8 72.6 130.8C73.8 130.8 74.8 131 75.7 131.4C76.6 131.8 77.4 132.3 78 133C78.9 134 79.6 135.2 80 136.7C80.4 138.2 80.7 139.8 80.7 141.4V146.8C80.7 148.3 80.5 149.6 80.2 150.9ZM78.2 138C78 137.2 77.8 136.5 77.5 135.8C77.2 135.1 76.8 134.6 76.4 134.1C76 133.6 75.4 133.3 74.7 133C74 132.7 73.3 132.6 72.5 132.6C71.4 132.6 70.5 132.8 69.8 133.2C69.1 133.6 68.5 134.2 68 134.9C67.5 135.6 67.1 136.5 66.9 137.6C66.7 138.7 66.5 139.8 66.5 141V145.5C66.5 146 66.5 146.4 66.5 146.9C66.5 147.4 66.6 147.8 66.7 148.3L78.2 138ZM78.5 143C78.5 142.6 78.5 142.2 78.4 141.6C78.4 141.1 78.3 140.6 78.3 140.1L66.9 150.4C67.1 151.2 67.3 151.9 67.6 152.6C67.9 153.2 68.3 153.8 68.8 154.2C69.2 154.6 69.8 155 70.4 155.2C71 155.4 71.7 155.6 72.5 155.6C73.5 155.6 74.4 155.4 75.2 155C75.9 154.6 76.5 154 77 153.3C77.5 152.5 77.9 151.6 78.2 150.6C78.4 149.5 78.6 148.4 78.6 147.2V143H78.5Z" fill="url(#paint42_linear_3:10148)"/>
    <path d="M102 150.9C101.7 152.2 101.2 153.3 100.5 154.3C99.8 155.3 99 156 98 156.6C97 157.2 95.8 157.4 94.4 157.4C93.3 157.4 92.2 157.2 91.3 156.8C90.4 156.4 89.6 155.9 89 155.2C88 154.2 87.3 153 86.9 151.5C86.5 150 86.3 148.5 86.3 146.8V141.4C86.3 139.9 86.5 138.6 86.8 137.3C87.1 136 87.6 134.9 88.3 133.9C89 132.9 89.8 132.2 90.8 131.6C91.8 131.1 93 130.8 94.4 130.8C95.6 130.8 96.6 131 97.5 131.4C98.4 131.8 99.2 132.3 99.8 133C100.7 134 101.4 135.2 101.8 136.7C102.2 138.2 102.5 139.8 102.5 141.4V146.8C102.5 148.3 102.3 149.6 102 150.9ZM100 138C99.8 137.2 99.6 136.5 99.3 135.8C99 135.1 98.6 134.6 98.2 134.1C97.7 133.6 97.2 133.3 96.5 133C95.9 132.7 95.1 132.6 94.3 132.6C93.2 132.6 92.3 132.8 91.6 133.2C90.9 133.6 90.3 134.2 89.8 134.9C89.3 135.6 88.9 136.5 88.7 137.6C88.5 138.7 88.3 139.8 88.3 141V145.5C88.3 146 88.3 146.4 88.3 146.9C88.3 147.4 88.4 147.8 88.5 148.3L100 138ZM100.3 143C100.3 142.6 100.3 142.2 100.2 141.6C100.1 141 100.1 140.6 100.1 140.1L88.7 150.4C88.9 151.2 89.1 151.9 89.4 152.6C89.7 153.2 90.1 153.8 90.6 154.2C91 154.6 91.6 155 92.2 155.2C92.8 155.4 93.5 155.6 94.3 155.6C95.3 155.6 96.2 155.4 97 155C97.7 154.6 98.3 154 98.8 153.3C99.3 152.5 99.7 151.6 100 150.6C100.2 149.5 100.4 148.4 100.4 147.2V143H100.3Z" fill="url(#paint43_linear_3:10148)"/>
    <path d="M123.8 150.9C123.5 152.2 123 153.3 122.3 154.3C121.6 155.3 120.8 156 119.8 156.6C118.8 157.2 117.6 157.4 116.2 157.4C115.1 157.4 114 157.2 113.1 156.8C112.2 156.4 111.4 155.9 110.8 155.2C109.8 154.2 109.1 153 108.7 151.5C108.3 150 108.1 148.5 108.1 146.8V141.4C108.1 139.9 108.3 138.6 108.6 137.3C108.9 136 109.4 134.9 110.1 133.9C110.8 132.9 111.6 132.2 112.6 131.6C113.6 131.1 114.8 130.8 116.2 130.8C117.4 130.8 118.4 131 119.3 131.4C120.2 131.8 121 132.3 121.6 133C122.5 134 123.2 135.2 123.6 136.7C124 138.2 124.3 139.8 124.3 141.4V146.8C124.3 148.3 124.1 149.6 123.8 150.9ZM121.8 138C121.6 137.2 121.4 136.5 121.1 135.8C120.8 135.1 120.4 134.6 120 134.1C119.6 133.6 119 133.3 118.3 133C117.7 132.7 116.9 132.6 116.1 132.6C115 132.6 114.1 132.8 113.4 133.2C112.7 133.6 112.1 134.2 111.6 134.9C111.1 135.6 110.7 136.5 110.5 137.6C110.3 138.7 110.1 139.8 110.1 141V145.5C110.1 146 110.1 146.4 110.1 146.9C110.1 147.4 110.2 147.8 110.3 148.3L121.8 138ZM122.2 143C122.2 142.6 122.2 142.2 122.1 141.6C122.1 141.1 122 140.6 122 140.1L110.6 150.4C110.8 151.2 111 151.9 111.3 152.6C111.6 153.2 112 153.8 112.5 154.2C112.9 154.6 113.5 155 114.1 155.2C114.7 155.4 115.4 155.6 116.2 155.6C117.2 155.6 118.1 155.4 118.9 155C119.6 154.6 120.2 154 120.7 153.3C121.2 152.5 121.6 151.6 121.9 150.6C122.1 149.5 122.3 148.4 122.3 147.2V143H122.2Z" fill="url(#paint44_linear_3:10148)"/>
    <path d="M138.1 157V133.9L130.9 137V135L139.9 131.3H140.2V157.1H138.1V157Z" fill="url(#paint45_linear_3:10148)"/>
    <path d="M159.9 157V133.9L152.7 137V135L161.7 131.3H162V157.1H159.9V157Z" fill="url(#paint46_linear_3:10148)"/>
    <path d="M189.2 150.9C188.9 152.2 188.4 153.3 187.7 154.3C187 155.3 186.2 156 185.2 156.6C184.2 157.2 183 157.4 181.6 157.4C180.5 157.4 179.4 157.2 178.5 156.8C177.6 156.4 176.8 155.9 176.2 155.2C175.2 154.2 174.5 153 174.1 151.5C173.7 150 173.5 148.5 173.5 146.8V141.4C173.5 139.9 173.7 138.6 174 137.3C174.3 136 174.8 134.9 175.5 133.9C176.2 132.9 177 132.2 178 131.6C179 131.1 180.2 130.8 181.6 130.8C182.8 130.8 183.8 131 184.7 131.4C185.6 131.8 186.4 132.3 187 133C187.9 134 188.6 135.2 189 136.7C189.4 138.2 189.7 139.8 189.7 141.4V146.8C189.7 148.3 189.5 149.6 189.2 150.9ZM187.2 138C187 137.2 186.8 136.5 186.5 135.8C186.2 135.1 185.8 134.6 185.4 134.1C185 133.6 184.4 133.3 183.7 133C183.1 132.7 182.3 132.6 181.5 132.6C180.4 132.6 179.5 132.8 178.8 133.2C178.1 133.6 177.5 134.2 177 134.9C176.5 135.6 176.1 136.5 175.9 137.6C175.7 138.7 175.5 139.8 175.5 141V145.5C175.5 146 175.5 146.4 175.5 146.9C175.5 147.4 175.6 147.8 175.7 148.3L187.2 138ZM187.6 143C187.6 142.6 187.6 142.2 187.5 141.6C187.5 141.1 187.4 140.6 187.4 140.1L176 150.4C176.2 151.2 176.4 151.9 176.7 152.6C177 153.2 177.4 153.8 177.9 154.2C178.3 154.6 178.9 155 179.5 155.2C180.1 155.4 180.8 155.6 181.6 155.6C182.6 155.6 183.5 155.4 184.3 155C185 154.6 185.6 154 186.1 153.3C186.6 152.5 187 151.6 187.3 150.6C187.5 149.5 187.7 148.4 187.7 147.2V143H187.6Z" fill="url(#paint47_linear_3:10148)"/>
    <path d="M203.5 157V133.9L196.3 137V135L205.3 131.3H205.6V157.1H203.5V157Z" fill="url(#paint48_linear_3:10148)"/>
    <path d="M232.8 150.9C232.5 152.2 232 153.3 231.3 154.3C230.6 155.3 229.8 156 228.8 156.6C227.8 157.2 226.6 157.4 225.2 157.4C224.1 157.4 223 157.2 222.1 156.8C221.2 156.4 220.4 155.9 219.8 155.2C218.8 154.2 218.1 153 217.7 151.5C217.3 150 217.1 148.5 217.1 146.8V141.4C217.1 139.9 217.3 138.6 217.6 137.3C217.9 136 218.4 134.9 219.1 133.9C219.8 132.9 220.6 132.2 221.6 131.6C222.6 131.1 223.8 130.8 225.2 130.8C226.4 130.8 227.4 131 228.3 131.4C229.2 131.8 230 132.3 230.6 133C231.5 134 232.2 135.2 232.6 136.7C233 138.2 233.3 139.8 233.3 141.4V146.8C233.3 148.3 233.2 149.6 232.8 150.9ZM230.9 138C230.7 137.2 230.5 136.5 230.2 135.8C229.9 135.1 229.5 134.6 229.1 134.1C228.7 133.6 228.1 133.3 227.4 133C226.8 132.7 226 132.6 225.2 132.6C224.1 132.6 223.2 132.8 222.5 133.2C221.8 133.6 221.2 134.2 220.7 134.9C220.2 135.6 219.8 136.5 219.6 137.6C219.4 138.7 219.2 139.8 219.2 141V145.5C219.2 146 219.2 146.4 219.2 146.9C219.2 147.4 219.3 147.8 219.4 148.3L230.9 138ZM231.2 143C231.2 142.6 231.2 142.2 231.1 141.6C231 141 231 140.6 231 140.1L219.6 150.4C219.8 151.2 220 151.9 220.3 152.6C220.6 153.2 221 153.8 221.5 154.2C221.9 154.6 222.5 155 223.1 155.2C223.7 155.4 224.4 155.6 225.2 155.6C226.2 155.6 227.1 155.4 227.9 155C228.6 154.6 229.2 154 229.7 153.3C230.2 152.5 230.6 151.6 230.9 150.6C231.1 149.5 231.3 148.4 231.3 147.2V143H231.2Z" fill="url(#paint49_linear_3:10148)"/>
    <path d="M247.1 157V133.9L239.9 137V135L248.9 131.3H249.2V157.1H247.1V157Z" fill="url(#paint50_linear_3:10148)"/>
    <path d="M276.5 150.9C276.2 152.2 275.7 153.3 275 154.3C274.3 155.3 273.5 156 272.5 156.6C271.5 157.2 270.3 157.4 268.9 157.4C267.8 157.4 266.7 157.2 265.8 156.8C264.9 156.4 264.1 155.9 263.5 155.2C262.5 154.2 261.8 153 261.4 151.5C261 150 260.8 148.5 260.8 146.8V141.4C260.8 139.9 261 138.6 261.3 137.3C261.6 136 262.1 134.9 262.8 133.9C263.5 132.9 264.3 132.2 265.3 131.6C266.3 131.1 267.5 130.8 268.9 130.8C270.1 130.8 271.1 131 272 131.4C272.9 131.8 273.7 132.3 274.3 133C275.2 134 275.9 135.2 276.3 136.7C276.7 138.2 277 139.8 277 141.4V146.8C276.9 148.3 276.8 149.6 276.5 150.9ZM274.5 138C274.3 137.2 274.1 136.5 273.8 135.8C273.5 135.1 273.1 134.6 272.7 134.1C272.3 133.6 271.7 133.3 271 133C270.4 132.7 269.6 132.6 268.8 132.6C267.7 132.6 266.8 132.8 266.1 133.2C265.4 133.6 264.8 134.2 264.3 134.9C263.8 135.6 263.4 136.5 263.2 137.6C263 138.7 262.8 139.8 262.8 141V145.5C262.8 146 262.8 146.4 262.8 146.9C262.8 147.4 262.9 147.8 263 148.3L274.5 138ZM274.8 143C274.8 142.6 274.8 142.2 274.7 141.6C274.7 141.1 274.6 140.6 274.6 140.1L263.2 150.4C263.4 151.2 263.6 151.9 263.9 152.6C264.2 153.2 264.6 153.8 265.1 154.2C265.5 154.6 266.1 155 266.7 155.2C267.3 155.4 268 155.6 268.8 155.6C269.8 155.6 270.7 155.4 271.5 155C272.2 154.6 272.8 154 273.3 153.3C273.8 152.5 274.2 151.6 274.5 150.6C274.7 149.5 274.9 148.4 274.9 147.2V143H274.8Z" fill="url(#paint51_linear_3:10148)"/>
    <path d="M7.20001 200.6V177.5L0 180.6V178.6L9 174.9H9.30002V200.7H7.20001V200.6Z" fill="url(#paint52_linear_3:10148)"/>
    <path d="M36.6 194.5C36.3 195.8 35.8 196.9 35.1 197.9C34.4 198.9 33.6 199.6 32.6 200.2C31.6 200.8 30.4 201 29 201C27.9 201 26.8 200.8 25.9 200.4C25 200 24.2 199.5 23.6 198.8C22.6 197.8 21.9 196.6 21.5 195.1C21.1 193.6 20.9 192.1 20.9 190.4V185C20.9 183.5 21.1 182.2 21.4 180.9C21.7 179.6 22.2 178.5 22.9 177.5C23.6 176.5 24.4 175.8 25.4 175.2C26.4 174.7 27.6 174.4 29 174.4C30.2 174.4 31.2 174.6 32.1 175C33 175.4 33.8 175.9 34.4 176.6C35.3 177.6 36 178.8 36.4 180.3C36.8 181.8 37.1 183.4 37.1 185V190.4C37.1 191.9 36.9 193.2 36.6 194.5ZM34.6 181.6C34.4 180.8 34.2 180.1 33.9 179.4C33.6 178.7 33.2 178.2 32.8 177.7C32.4 177.2 31.8 176.9 31.1 176.6C30.5 176.3 29.7 176.2 28.9 176.2C27.8 176.2 26.9 176.4 26.2 176.8C25.5 177.2 24.9 177.8 24.4 178.5C23.9 179.2 23.5 180.1 23.3 181.2C23.1 182.3 22.9 183.4 22.9 184.6V189.1C22.9 189.6 22.9 190 22.9 190.5C22.9 191 23 191.4 23.1 191.9L34.6 181.6ZM34.9 186.6C34.9 186.2 34.9 185.8 34.8 185.2C34.8 184.7 34.7 184.2 34.7 183.7L23.3 194C23.5 194.8 23.7 195.5 24 196.2C24.3 196.8 24.7 197.4 25.2 197.8C25.6 198.2 26.2 198.6 26.8 198.8C27.4 199 28.1 199.2 28.9 199.2C29.9 199.2 30.8 199 31.6 198.6C32.3 198.2 32.9 197.6 33.4 196.9C33.9 196.1 34.3 195.2 34.6 194.2C34.8 193.1 35 192 35 190.8V186.6H34.9Z" fill="url(#paint53_linear_3:10148)"/>
    <path d="M50.8 200.6V177.5L43.6 180.6V178.6L52.6 174.9H52.9V200.7H50.8V200.6Z" fill="url(#paint54_linear_3:10148)"/>
    <path d="M80.2 194.5C79.9 195.8 79.4 196.9 78.7 197.9C78 198.9 77.2 199.6 76.2 200.2C75.2 200.8 74 201 72.6 201C71.5 201 70.4 200.8 69.5 200.4C68.6 200 67.8 199.5 67.2 198.8C66.2 197.8 65.5 196.6 65.1 195.1C64.7 193.6 64.5 192.1 64.5 190.4V185C64.5 183.5 64.7 182.2 65 180.9C65.3 179.6 65.8 178.5 66.5 177.5C67.2 176.5 68 175.8 69 175.2C70 174.6 71.2 174.4 72.6 174.4C73.8 174.4 74.8 174.6 75.7 175C76.6 175.4 77.4 175.9 78 176.6C78.9 177.6 79.6 178.8 80 180.3C80.4 181.8 80.7 183.4 80.7 185V190.4C80.7 191.9 80.5 193.2 80.2 194.5ZM78.2 181.6C78 180.8 77.8 180.1 77.5 179.4C77.2 178.7 76.8 178.2 76.4 177.7C76 177.2 75.4 176.9 74.7 176.6C74.1 176.3 73.3 176.2 72.5 176.2C71.4 176.2 70.5 176.4 69.8 176.8C69.1 177.2 68.5 177.8 68 178.5C67.5 179.2 67.1 180.1 66.9 181.2C66.7 182.3 66.5 183.4 66.5 184.6V189.1C66.5 189.6 66.5 190 66.5 190.5C66.5 191 66.6 191.4 66.7 191.9L78.2 181.6ZM78.5 186.6C78.5 186.2 78.5 185.8 78.4 185.2C78.4 184.7 78.3 184.2 78.3 183.7L66.9 194C67.1 194.8 67.3 195.5 67.6 196.2C67.9 196.8 68.3 197.4 68.8 197.8C69.2 198.2 69.8 198.6 70.4 198.8C71 199 71.7 199.2 72.5 199.2C73.5 199.2 74.4 199 75.2 198.6C75.9 198.2 76.5 197.6 77 196.9C77.5 196.1 77.9 195.2 78.2 194.2C78.5 193.2 78.6 192 78.6 190.8V186.6H78.5Z" fill="url(#paint55_linear_3:10148)"/>
    <path d="M94.4 200.6V177.5L87.2 180.6V178.6L96.2 174.9H96.5V200.7H94.4V200.6Z" fill="url(#paint56_linear_3:10148)"/>
    <path d="M116.2 200.6V177.5L109 180.6V178.6L118 174.9H118.3V200.7H116.2V200.6Z" fill="url(#paint57_linear_3:10148)"/>
    <path d="M145.6 194.5C145.3 195.8 144.8 196.9 144.1 197.9C143.4 198.9 142.6 199.6 141.6 200.2C140.6 200.8 139.4 201 138 201C136.9 201 135.8 200.8 134.9 200.4C134 200 133.2 199.5 132.6 198.8C131.6 197.8 130.9 196.6 130.5 195.1C130.1 193.6 129.9 192.1 129.9 190.4V185C129.9 183.5 130.1 182.2 130.4 180.9C130.7 179.6 131.2 178.5 131.9 177.5C132.6 176.5 133.4 175.8 134.4 175.2C135.4 174.6 136.6 174.4 138 174.4C139.2 174.4 140.2 174.6 141.1 175C142 175.4 142.8 175.9 143.4 176.6C144.3 177.6 145 178.8 145.4 180.3C145.8 181.8 146.1 183.4 146.1 185V190.4C146.1 191.9 145.9 193.2 145.6 194.5ZM143.6 181.6C143.4 180.8 143.2 180.1 142.9 179.4C142.6 178.7 142.2 178.2 141.8 177.7C141.4 177.2 140.8 176.9 140.1 176.6C139.5 176.3 138.7 176.2 137.9 176.2C136.8 176.2 135.9 176.4 135.2 176.8C134.5 177.2 133.9 177.8 133.4 178.5C132.9 179.2 132.5 180.1 132.3 181.2C132.1 182.3 131.9 183.4 131.9 184.6V189.1C131.9 189.6 131.9 190 131.9 190.5C131.9 191 132 191.4 132.1 191.9L143.6 181.6ZM144 186.6C144 186.2 144 185.8 143.9 185.2C143.9 184.7 143.8 184.2 143.8 183.7L132.4 194C132.6 194.8 132.8 195.5 133.1 196.2C133.4 196.8 133.8 197.4 134.3 197.8C134.7 198.2 135.3 198.6 135.9 198.8C136.5 199 137.2 199.2 138 199.2C139 199.2 139.9 199 140.7 198.6C141.4 198.2 142 197.6 142.5 196.9C143 196.1 143.4 195.2 143.7 194.2C143.9 193.1 144.1 192 144.1 190.8V186.6H144Z" fill="url(#paint58_linear_3:10148)"/>
    <path d="M159.9 200.6V177.5L152.7 180.6V178.6L161.7 174.9H162V200.7H159.9V200.6Z" fill="url(#paint59_linear_3:10148)"/>
    <path d="M189.2 194.5C188.9 195.8 188.4 196.9 187.7 197.9C187 198.9 186.2 199.6 185.2 200.2C184.2 200.8 183 201 181.6 201C180.5 201 179.4 200.8 178.5 200.4C177.6 200 176.8 199.5 176.2 198.8C175.2 197.8 174.5 196.6 174.1 195.1C173.7 193.6 173.5 192.1 173.5 190.4V185C173.5 183.5 173.7 182.2 174 180.9C174.3 179.6 174.8 178.5 175.5 177.5C176.2 176.5 177 175.8 178 175.2C179 174.7 180.2 174.4 181.6 174.4C182.8 174.4 183.8 174.6 184.7 175C185.6 175.4 186.4 175.9 187 176.6C187.9 177.6 188.6 178.8 189 180.3C189.4 181.8 189.7 183.4 189.7 185V190.4C189.7 191.9 189.5 193.2 189.2 194.5ZM187.2 181.6C187 180.8 186.8 180.1 186.5 179.4C186.2 178.7 185.8 178.2 185.4 177.7C185 177.2 184.4 176.9 183.7 176.6C183.1 176.3 182.3 176.2 181.5 176.2C180.4 176.2 179.5 176.4 178.8 176.8C178.1 177.2 177.5 177.8 177 178.5C176.5 179.2 176.1 180.1 175.9 181.2C175.7 182.3 175.5 183.4 175.5 184.6V189.1C175.5 189.6 175.5 190 175.5 190.5C175.5 191 175.6 191.4 175.7 191.9L187.2 181.6ZM187.6 186.6C187.6 186.2 187.6 185.8 187.5 185.2C187.5 184.7 187.4 184.2 187.4 183.7L176 194C176.2 194.8 176.4 195.5 176.7 196.2C177 196.8 177.4 197.4 177.9 197.8C178.3 198.2 178.9 198.6 179.5 198.8C180.1 199 180.8 199.2 181.6 199.2C182.6 199.2 183.5 199 184.3 198.6C185 198.2 185.6 197.6 186.1 196.9C186.6 196.1 187 195.2 187.3 194.2C187.5 193.1 187.7 192 187.7 190.8V186.6H187.6Z" fill="url(#paint60_linear_3:10148)"/>
    <path d="M203.5 200.6V177.5L196.3 180.6V178.6L205.3 174.9H205.6V200.7H203.5V200.6Z" fill="url(#paint61_linear_3:10148)"/>
    <path d="M232.8 194.5C232.5 195.8 232 196.9 231.3 197.9C230.6 198.9 229.8 199.6 228.8 200.2C227.8 200.8 226.6 201 225.2 201C224.1 201 223 200.8 222.1 200.4C221.2 200 220.4 199.5 219.8 198.8C218.8 197.8 218.1 196.6 217.7 195.1C217.3 193.6 217.1 192.1 217.1 190.4V185C217.1 183.5 217.3 182.2 217.6 180.9C217.9 179.6 218.4 178.5 219.1 177.5C219.8 176.5 220.6 175.8 221.6 175.2C222.6 174.6 223.8 174.4 225.2 174.4C226.4 174.4 227.4 174.6 228.3 175C229.2 175.4 230 175.9 230.6 176.6C231.5 177.6 232.2 178.8 232.6 180.3C233 181.8 233.3 183.4 233.3 185V190.4C233.3 191.9 233.2 193.2 232.8 194.5ZM230.9 181.6C230.7 180.8 230.5 180.1 230.2 179.4C229.9 178.7 229.5 178.2 229.1 177.7C228.7 177.2 228.1 176.9 227.4 176.6C226.8 176.3 226 176.2 225.2 176.2C224.1 176.2 223.2 176.4 222.5 176.8C221.8 177.2 221.2 177.8 220.7 178.5C220.2 179.2 219.8 180.1 219.6 181.2C219.4 182.3 219.2 183.4 219.2 184.6V189.1C219.2 189.6 219.2 190 219.2 190.5C219.2 191 219.3 191.4 219.4 191.9L230.9 181.6ZM231.2 186.6C231.2 186.2 231.2 185.8 231.1 185.2C231 184.6 231 184.2 231 183.7L219.6 194C219.8 194.8 220 195.5 220.3 196.2C220.6 196.8 221 197.4 221.5 197.8C221.9 198.2 222.5 198.6 223.1 198.8C223.7 199 224.4 199.2 225.2 199.2C226.2 199.2 227.1 199 227.9 198.6C228.6 198.2 229.2 197.6 229.7 196.9C230.2 196.1 230.6 195.2 230.9 194.2C231.1 193.1 231.3 192 231.3 190.8V186.6H231.2Z" fill="url(#paint62_linear_3:10148)"/>
    <path d="M247.1 200.6V177.5L239.9 180.6V178.6L248.9 174.9H249.2V200.7H247.1V200.6Z" fill="url(#paint63_linear_3:10148)"/>
    <path d="M268.9 200.6V177.5L261.7 180.6V178.6L270.7 174.9H271V200.7H268.9V200.6Z" fill="url(#paint64_linear_3:10148)"/>
    <path d="M7.20001 244.3V221.2L0 224.3V222.3L9 218.6H9.30002V244.4H7.20001V244.3Z" fill="url(#paint65_linear_3:10148)"/>
    <path d="M29 244.3V221.2L21.8 224.3V222.3L30.8 218.6H31.1001V244.4H29V244.3Z" fill="url(#paint66_linear_3:10148)"/>
    <path d="M50.8 244.3V221.2L43.6 224.3V222.3L52.6 218.6H52.9V244.4H50.8V244.3Z" fill="url(#paint67_linear_3:10148)"/>
    <path d="M80.2 238.1C79.9 239.4 79.4 240.5 78.7 241.5C78 242.5 77.2 243.2 76.2 243.8C75.2 244.4 74 244.6 72.6 244.6C71.5 244.6 70.4 244.4 69.5 244C68.6 243.6 67.8 243.1 67.2 242.4C66.2 241.4 65.5 240.2 65.1 238.7C64.7 237.2 64.5 235.7 64.5 234V228.6C64.5 227.1 64.7 225.8 65 224.5C65.3 223.2 65.8 222.1 66.5 221.1C67.2 220.1 68 219.4 69 218.8C70 218.2 71.2 218 72.6 218C73.8 218 74.8 218.2 75.7 218.6C76.6 219 77.4 219.5 78 220.2C78.9 221.2 79.6 222.4 80 223.9C80.4 225.4 80.7 227 80.7 228.6V234C80.7 235.5 80.5 236.9 80.2 238.1ZM78.2 225.2C78 224.4 77.8 223.7 77.5 223C77.2 222.3 76.8 221.8 76.4 221.3C76 220.8 75.4 220.5 74.7 220.2C74.1 219.9 73.3 219.8 72.5 219.8C71.4 219.8 70.5 220 69.8 220.4C69.1 220.8 68.5 221.4 68 222.1C67.5 222.8 67.1 223.7 66.9 224.8C66.7 225.9 66.5 227 66.5 228.2V232.7C66.5 233.2 66.5 233.6 66.5 234.1C66.5 234.6 66.6 235 66.7 235.5L78.2 225.2ZM78.5 230.2C78.5 229.8 78.5 229.4 78.4 228.8C78.4 228.3 78.3 227.8 78.3 227.3L66.9 237.6C67.1 238.4 67.3 239.1 67.6 239.8C67.9 240.4 68.3 241 68.8 241.4C69.2 241.8 69.8 242.2 70.4 242.4C71 242.6 71.7 242.8 72.5 242.8C73.5 242.8 74.4 242.6 75.2 242.2C76 241.8 76.5 241.2 77 240.5C77.5 239.7 77.9 238.8 78.2 237.8C78.5 236.8 78.6 235.6 78.6 234.4V230.2H78.5Z" fill="url(#paint68_linear_3:10148)"/>
    <path d="M102 238.1C101.7 239.4 101.2 240.5 100.5 241.5C99.8 242.5 99 243.2 98 243.8C97 244.4 95.8 244.6 94.4 244.6C93.3 244.6 92.2 244.4 91.3 244C90.4 243.6 89.6 243.1 89 242.4C88 241.4 87.3 240.2 86.9 238.7C86.5 237.2 86.3 235.7 86.3 234V228.6C86.3 227.1 86.5 225.8 86.8 224.5C87.1 223.2 87.6 222.1 88.3 221.1C89 220.1 89.8 219.4 90.8 218.8C91.8 218.2 93 218 94.4 218C95.6 218 96.6 218.2 97.5 218.6C98.4 219 99.2 219.5 99.8 220.2C100.7 221.2 101.4 222.4 101.8 223.9C102.2 225.4 102.5 227 102.5 228.6V234C102.5 235.5 102.3 236.9 102 238.1ZM100 225.2C99.8 224.4 99.6 223.7 99.3 223C99 222.3 98.6 221.8 98.2 221.3C97.7 220.8 97.2 220.5 96.5 220.2C95.9 219.9 95.1 219.8 94.3 219.8C93.2 219.8 92.3 220 91.6 220.4C90.9 220.8 90.3 221.4 89.8 222.1C89.3 222.8 88.9 223.7 88.7 224.8C88.5 225.9 88.3 227 88.3 228.2V232.7C88.3 233.2 88.3 233.6 88.3 234.1C88.3 234.6 88.4 235 88.5 235.5L100 225.2ZM100.3 230.2C100.3 229.8 100.3 229.4 100.2 228.8C100.2 228.3 100.1 227.8 100.1 227.3L88.7 237.6C88.9 238.4 89.1 239.1 89.4 239.8C89.7 240.4 90.1 241 90.6 241.4C91 241.8 91.6 242.2 92.2 242.4C92.8 242.6 93.5 242.8 94.3 242.8C95.3 242.8 96.2 242.6 97 242.2C97.8 241.8 98.3 241.2 98.8 240.5C99.3 239.7 99.7 238.8 100 237.8C100.2 236.7 100.4 235.6 100.4 234.4V230.2H100.3Z" fill="url(#paint69_linear_3:10148)"/>
    <path d="M123.8 238.1C123.5 239.4 123 240.5 122.3 241.5C121.6 242.5 120.8 243.2 119.8 243.8C118.8 244.4 117.6 244.6 116.2 244.6C115.1 244.6 114 244.4 113.1 244C112.2 243.6 111.4 243.1 110.8 242.4C109.8 241.4 109.1 240.2 108.7 238.7C108.3 237.2 108.1 235.7 108.1 234V228.6C108.1 227.1 108.3 225.8 108.6 224.5C108.9 223.2 109.4 222.1 110.1 221.1C110.8 220.1 111.6 219.4 112.6 218.8C113.6 218.2 114.8 218 116.2 218C117.4 218 118.4 218.2 119.3 218.6C120.2 219 121 219.5 121.6 220.2C122.5 221.2 123.2 222.4 123.6 223.9C124 225.4 124.3 227 124.3 228.6V234C124.3 235.5 124.1 236.9 123.8 238.1ZM121.8 225.2C121.6 224.4 121.4 223.7 121.1 223C120.8 222.3 120.4 221.8 120 221.3C119.6 220.8 119 220.5 118.3 220.2C117.7 219.9 116.9 219.8 116.1 219.8C115 219.8 114.1 220 113.4 220.4C112.7 220.8 112.1 221.4 111.6 222.1C111.1 222.8 110.7 223.7 110.5 224.8C110.3 225.9 110.1 227 110.1 228.2V232.7C110.1 233.2 110.1 233.6 110.1 234.1C110.1 234.6 110.2 235 110.3 235.5L121.8 225.2ZM122.2 230.2C122.2 229.8 122.2 229.4 122.1 228.8C122.1 228.3 122 227.8 122 227.3L110.6 237.6C110.8 238.4 111 239.1 111.3 239.8C111.6 240.4 112 241 112.5 241.4C112.9 241.8 113.5 242.2 114.1 242.4C114.7 242.6 115.4 242.8 116.2 242.8C117.2 242.8 118.1 242.6 118.9 242.2C119.7 241.8 120.2 241.2 120.7 240.5C121.2 239.7 121.6 238.8 121.9 237.8C122.1 236.7 122.3 235.6 122.3 234.4V230.2H122.2Z" fill="url(#paint70_linear_3:10148)"/>
    <path d="M138.1 244.3V221.2L130.9 224.3V222.3L139.9 218.6H140.2V244.4H138.1V244.3Z" fill="url(#paint71_linear_3:10148)"/>
    <path d="M167.4 238.1C167.1 239.4 166.6 240.5 165.9 241.5C165.2 242.5 164.4 243.2 163.4 243.8C162.4 244.4 161.2 244.6 159.8 244.6C158.7 244.6 157.6 244.4 156.7 244C155.8 243.6 155 243.1 154.4 242.4C153.4 241.4 152.7 240.2 152.3 238.7C151.9 237.2 151.7 235.7 151.7 234V228.6C151.7 227.1 151.9 225.8 152.2 224.5C152.5 223.2 153 222.1 153.7 221.1C154.4 220.1 155.2 219.4 156.2 218.8C157.2 218.3 158.4 218 159.8 218C161 218 162 218.2 162.9 218.6C163.8 219 164.6 219.5 165.2 220.2C166.1 221.2 166.8 222.4 167.2 223.9C167.6 225.4 167.9 227 167.9 228.6V234C167.9 235.5 167.7 236.9 167.4 238.1ZM165.4 225.2C165.2 224.4 165 223.7 164.7 223C164.4 222.3 164 221.8 163.6 221.3C163.2 220.8 162.6 220.5 161.9 220.2C161.3 219.9 160.5 219.8 159.7 219.8C158.6 219.8 157.7 220 157 220.4C156.3 220.8 155.7 221.4 155.2 222.1C154.7 222.8 154.3 223.7 154.1 224.8C153.9 225.9 153.7 227 153.7 228.2V232.7C153.7 233.2 153.7 233.6 153.7 234.1C153.7 234.6 153.8 235 153.9 235.5L165.4 225.2ZM165.8 230.2C165.8 229.8 165.8 229.4 165.7 228.8C165.7 228.3 165.6 227.8 165.6 227.3L154.2 237.6C154.4 238.4 154.6 239.1 154.9 239.8C155.2 240.5 155.6 241 156.1 241.4C156.5 241.8 157.1 242.2 157.7 242.4C158.3 242.6 159 242.8 159.8 242.8C160.8 242.8 161.7 242.6 162.5 242.2C163.3 241.8 163.8 241.2 164.3 240.5C164.8 239.7 165.2 238.8 165.5 237.8C165.7 236.7 165.9 235.6 165.9 234.4V230.2H165.8Z" fill="url(#paint72_linear_3:10148)"/>
    <path d="M181.7 244.3V221.2L174.5 224.3V222.3L183.5 218.6H183.8V244.4H181.7V244.3Z" fill="url(#paint73_linear_3:10148)"/>
    <path d="M203.5 244.3V221.2L196.3 224.3V222.3L205.3 218.6H205.6V244.4H203.5V244.3Z" fill="url(#paint74_linear_3:10148)"/>
    <path d="M232.8 238.1C232.5 239.4 232 240.5 231.3 241.5C230.6 242.5 229.8 243.2 228.8 243.8C227.8 244.4 226.6 244.6 225.2 244.6C224.1 244.6 223 244.4 222.1 244C221.2 243.6 220.4 243.1 219.8 242.4C218.8 241.4 218.1 240.2 217.7 238.7C217.3 237.2 217.1 235.7 217.1 234V228.6C217.1 227.1 217.3 225.8 217.6 224.5C217.9 223.2 218.4 222.1 219.1 221.1C219.8 220.1 220.6 219.4 221.6 218.8C222.6 218.2 223.8 218 225.2 218C226.4 218 227.4 218.2 228.3 218.6C229.2 219 230 219.5 230.6 220.2C231.5 221.2 232.2 222.4 232.6 223.9C233 225.4 233.3 227 233.3 228.6V234C233.3 235.5 233.2 236.9 232.8 238.1ZM230.9 225.2C230.7 224.4 230.5 223.7 230.2 223C229.9 222.3 229.5 221.8 229.1 221.3C228.7 220.8 228.1 220.5 227.4 220.2C226.8 219.9 226 219.8 225.2 219.8C224.1 219.8 223.2 220 222.5 220.4C221.8 220.8 221.2 221.4 220.7 222.1C220.2 222.8 219.8 223.7 219.6 224.8C219.4 225.9 219.2 227 219.2 228.2V232.7C219.2 233.2 219.2 233.6 219.2 234.1C219.2 234.6 219.3 235 219.4 235.5L230.9 225.2ZM231.2 230.2C231.2 229.8 231.2 229.4 231.1 228.8C231.1 228.3 231 227.8 231 227.3L219.6 237.6C219.8 238.4 220 239.1 220.3 239.8C220.6 240.4 221 241 221.5 241.4C221.9 241.8 222.5 242.2 223.1 242.4C223.7 242.6 224.4 242.8 225.2 242.8C226.2 242.8 227.1 242.6 227.9 242.2C228.7 241.8 229.2 241.2 229.7 240.5C230.2 239.7 230.6 238.8 230.9 237.8C231.1 236.7 231.3 235.6 231.3 234.4V230.2H231.2Z" fill="url(#paint75_linear_3:10148)"/>
    <path d="M247.1 244.3V221.2L239.9 224.3V222.3L248.9 218.6H249.2V244.4H247.1V244.3Z" fill="url(#paint76_linear_3:10148)"/>
    <path d="M268.9 244.3V221.2L261.7 224.3V222.3L270.7 218.6H271V244.4H268.9V244.3Z" fill="url(#paint77_linear_3:10148)"/>
    <path d="M7.20001 287.9V264.8L0 267.9V265.9L9 262.2H9.30002V288H7.20001V287.9Z" fill="url(#paint78_linear_3:10148)"/>
    <path d="M36.6 281.7C36.3 283 35.8 284.1 35.1 285.1C34.4 286.1 33.6 286.8 32.6 287.4C31.6 288 30.4 288.2 29 288.2C27.9 288.2 26.8 288 25.9 287.6C25 287.2 24.2 286.7 23.6 286C22.6 285 21.9 283.8 21.5 282.3C21.1 280.8 20.9 279.3 20.9 277.6V272.2C20.9 270.7 21.1 269.4 21.4 268.1C21.7 266.8 22.2 265.7 22.9 264.7C23.6 263.7 24.4 263 25.4 262.4C26.4 261.9 27.6 261.6 29 261.6C30.2 261.6 31.2 261.8 32.1 262.2C33 262.6 33.8 263.1 34.4 263.8C35.3 264.8 36 266 36.4 267.5C36.8 269 37.1 270.6 37.1 272.2V277.6C37.1 279.1 36.9 280.5 36.6 281.7ZM34.6 268.8C34.4 268 34.2 267.3 33.9 266.6C33.6 265.9 33.2 265.4 32.8 264.9C32.4 264.4 31.8 264.1 31.1 263.8C30.5 263.5 29.7 263.4 28.9 263.4C27.8 263.4 26.9 263.6 26.2 264C25.5 264.4 24.9 265 24.4 265.7C23.9 266.4 23.5 267.3 23.3 268.4C23.1 269.5 22.9 270.6 22.9 271.8V276.3C22.9 276.8 22.9 277.2 22.9 277.7C22.9 278.2 23 278.6 23.1 279.1L34.6 268.8ZM34.9 273.8C34.9 273.4 34.9 273 34.8 272.4C34.8 271.9 34.7 271.4 34.7 270.9L23.3 281.2C23.5 282 23.7 282.7 24 283.4C24.3 284 24.7 284.6 25.2 285C25.6 285.4 26.2 285.8 26.8 286C27.4 286.2 28.1 286.4 28.9 286.4C29.9 286.4 30.8 286.2 31.6 285.8C32.4 285.4 32.9 284.8 33.4 284.1C33.9 283.3 34.3 282.4 34.6 281.4C34.8 280.3 35 279.2 35 278V273.8H34.9Z" fill="url(#paint79_linear_3:10148)"/>
    <path d="M58.4 281.7C58.1 283 57.6 284.1 56.9 285.1C56.2 286.1 55.4 286.8 54.4 287.4C53.4 288 52.2 288.2 50.8 288.2C49.7 288.2 48.6 288 47.7 287.6C46.8 287.2 46 286.7 45.4 286C44.4 285 43.7 283.8 43.3 282.3C42.9 280.8 42.7 279.3 42.7 277.6V272.2C42.7 270.7 42.9 269.4 43.2 268.1C43.5 266.8 44 265.7 44.7 264.7C45.4 263.7 46.2 263 47.2 262.4C48.2 261.9 49.4 261.6 50.8 261.6C52 261.6 53 261.8 53.9 262.2C54.8 262.6 55.6 263.1 56.2 263.8C57.1 264.8 57.8 266 58.2 267.5C58.6 269 58.9 270.6 58.9 272.2V277.6C58.9 279.1 58.7 280.5 58.4 281.7ZM56.4 268.8C56.2 268 56 267.3 55.7 266.6C55.4 265.9 55 265.4 54.6 264.9C54.2 264.4 53.6 264.1 52.9 263.8C52.3 263.5 51.5 263.4 50.7 263.4C49.6 263.4 48.7 263.6 48 264C47.3 264.4 46.7 265 46.2 265.7C45.7 266.4 45.3 267.3 45.1 268.4C44.9 269.5 44.7 270.6 44.7 271.8V276.3C44.7 276.8 44.7 277.2 44.7 277.7C44.7 278.2 44.8 278.6 44.9 279.1L56.4 268.8ZM56.7 273.8C56.7 273.4 56.7 273 56.6 272.4C56.6 271.9 56.5 271.4 56.5 270.9L45.1 281.2C45.3 282 45.5 282.7 45.8 283.4C46.1 284 46.5 284.6 47 285C47.4 285.4 48 285.8 48.6 286C49.2 286.2 49.9 286.4 50.7 286.4C51.7 286.4 52.6 286.2 53.4 285.8C54.2 285.4 54.7 284.8 55.2 284.1C55.7 283.3 56.1 282.4 56.4 281.4C56.6 280.3 56.8 279.2 56.8 278V273.8H56.7Z" fill="url(#paint80_linear_3:10148)"/>
    <path d="M72.6 287.9V264.8L65.4 267.9V265.9L74.4 262.2H74.7V288H72.6V287.9Z" fill="url(#paint81_linear_3:10148)"/>
    <path d="M102 281.7C101.7 283 101.2 284.1 100.5 285.1C99.8 286.1 99 286.8 98 287.4C97 288 95.8 288.2 94.4 288.2C93.3 288.2 92.2 288 91.3 287.6C90.4 287.2 89.6 286.7 89 286C88 285 87.3 283.8 86.9 282.3C86.5 280.8 86.3 279.3 86.3 277.6V272.2C86.3 270.7 86.5 269.4 86.8 268.1C87.1 266.8 87.6 265.7 88.3 264.7C89 263.7 89.8 263 90.8 262.4C91.8 261.8 93 261.6 94.4 261.6C95.6 261.6 96.6 261.8 97.5 262.2C98.4 262.6 99.2 263.1 99.8 263.8C100.7 264.8 101.4 266 101.8 267.5C102.2 269 102.5 270.6 102.5 272.2V277.6C102.5 279.1 102.3 280.5 102 281.7ZM100 268.8C99.8 268 99.6 267.3 99.3 266.6C99 265.9 98.6 265.4 98.2 264.9C97.7 264.4 97.2 264.1 96.5 263.8C95.9 263.5 95.1 263.4 94.3 263.4C93.2 263.4 92.3 263.6 91.6 264C90.9 264.4 90.3 265 89.8 265.7C89.3 266.4 88.9 267.3 88.7 268.4C88.5 269.5 88.3 270.6 88.3 271.8V276.3C88.3 276.8 88.3 277.2 88.3 277.7C88.3 278.2 88.4 278.6 88.5 279.1L100 268.8ZM100.3 273.8C100.3 273.4 100.3 273 100.2 272.4C100.1 271.8 100.1 271.4 100.1 270.9L88.7 281.2C88.9 282 89.1 282.7 89.4 283.4C89.7 284 90.1 284.6 90.6 285C91 285.4 91.6 285.8 92.2 286C92.8 286.2 93.5 286.4 94.3 286.4C95.3 286.4 96.2 286.2 97 285.8C97.8 285.4 98.3 284.8 98.8 284.1C99.3 283.3 99.7 282.4 100 281.4C100.2 280.3 100.4 279.2 100.4 278V273.8H100.3Z" fill="url(#paint82_linear_3:10148)"/>
    <path d="M116.2 287.9V264.8L109 267.9V265.9L118 262.2H118.3V288H116.2V287.9Z" fill="url(#paint83_linear_3:10148)"/>
    <path d="M145.6 281.7C145.3 283 144.8 284.1 144.1 285.1C143.4 286.1 142.6 286.8 141.6 287.4C140.6 288 139.4 288.2 138 288.2C136.9 288.2 135.8 288 134.9 287.6C134 287.2 133.2 286.7 132.6 286C131.6 285 130.9 283.8 130.5 282.3C130.1 280.8 129.9 279.3 129.9 277.6V272.2C129.9 270.7 130.1 269.4 130.4 268.1C130.7 266.8 131.2 265.7 131.9 264.7C132.6 263.7 133.4 263 134.4 262.4C135.4 261.8 136.6 261.6 138 261.6C139.2 261.6 140.2 261.8 141.1 262.2C142 262.6 142.8 263.1 143.4 263.8C144.3 264.8 145 266 145.4 267.5C145.8 269 146.1 270.6 146.1 272.2V277.6C146.1 279.1 145.9 280.5 145.6 281.7ZM143.6 268.8C143.4 268 143.2 267.3 142.9 266.6C142.6 265.9 142.2 265.4 141.8 264.9C141.4 264.4 140.8 264.1 140.1 263.8C139.5 263.5 138.7 263.4 137.9 263.4C136.8 263.4 135.9 263.6 135.2 264C134.5 264.4 133.9 265 133.4 265.7C132.9 266.4 132.5 267.3 132.3 268.4C132.1 269.5 131.9 270.6 131.9 271.8V276.3C131.9 276.8 131.9 277.2 131.9 277.7C131.9 278.2 132 278.6 132.1 279.1L143.6 268.8ZM144 273.8C144 273.4 144 273 143.9 272.4C143.9 271.9 143.8 271.4 143.8 270.9L132.3 281.2C132.5 282 132.7 282.7 133 283.4C133.3 284 133.7 284.6 134.2 285C134.6 285.4 135.2 285.8 135.8 286C136.4 286.2 137.1 286.4 137.9 286.4C138.9 286.4 139.8 286.2 140.6 285.8C141.3 285.4 141.9 284.8 142.4 284.1C142.9 283.3 143.3 282.4 143.6 281.4C143.8 280.3 144 279.2 144 278V273.8Z" fill="url(#paint84_linear_3:10148)"/>
    <path d="M167.4 281.7C167.1 283 166.6 284.1 165.9 285.1C165.2 286.1 164.4 286.8 163.4 287.4C162.4 288 161.2 288.2 159.8 288.2C158.7 288.2 157.6 288 156.7 287.6C155.8 287.2 155 286.7 154.4 286C153.4 285 152.7 283.8 152.3 282.3C151.9 280.8 151.7 279.3 151.7 277.6V272.2C151.7 270.7 151.9 269.4 152.2 268.1C152.5 266.8 153 265.7 153.7 264.7C154.4 263.7 155.2 263 156.2 262.4C157.2 261.9 158.4 261.6 159.8 261.6C161 261.6 162 261.8 162.9 262.2C163.8 262.6 164.6 263.1 165.2 263.8C166.1 264.8 166.8 266 167.2 267.5C167.6 269 167.9 270.6 167.9 272.2V277.6C167.9 279.1 167.7 280.5 167.4 281.7ZM165.4 268.8C165.2 268 165 267.3 164.7 266.6C164.4 265.9 164 265.4 163.6 264.9C163.2 264.4 162.6 264.1 161.9 263.8C161.3 263.5 160.5 263.4 159.7 263.4C158.6 263.4 157.7 263.6 157 264C156.3 264.4 155.7 265 155.2 265.7C154.7 266.4 154.3 267.3 154.1 268.4C153.9 269.5 153.7 270.6 153.7 271.8V276.3C153.7 276.8 153.7 277.2 153.7 277.7C153.7 278.2 153.8 278.6 153.9 279.1L165.4 268.8ZM165.8 273.8C165.8 273.4 165.8 273 165.7 272.4C165.7 271.9 165.6 271.4 165.6 270.9L154.2 281.2C154.4 282 154.6 282.7 154.9 283.4C155.2 284 155.6 284.6 156.1 285C156.5 285.4 157.1 285.8 157.7 286C158.3 286.2 159 286.4 159.8 286.4C160.8 286.4 161.7 286.2 162.5 285.8C163.3 285.4 163.8 284.8 164.3 284.1C164.8 283.3 165.2 282.4 165.5 281.4C165.7 280.3 165.9 279.2 165.9 278V273.8H165.8Z" fill="url(#paint85_linear_3:10148)"/>
    <path d="M181.7 287.9V264.8L174.5 267.9V265.9L183.5 262.2H183.8V288H181.7V287.9Z" fill="url(#paint86_linear_3:10148)"/>
    <path d="M211 281.7C210.7 283 210.2 284.1 209.5 285.1C208.8 286.1 208 286.8 207 287.4C206 288 204.8 288.2 203.4 288.2C202.3 288.2 201.2 288 200.3 287.6C199.4 287.2 198.6 286.7 198 286C197 285 196.3 283.8 195.9 282.3C195.5 280.8 195.3 279.3 195.3 277.6V272.2C195.3 270.7 195.5 269.4 195.8 268.1C196.1 266.8 196.6 265.7 197.3 264.7C198 263.7 198.8 263 199.8 262.4C200.8 261.8 202 261.6 203.4 261.6C204.6 261.6 205.6 261.8 206.5 262.2C207.4 262.6 208.2 263.1 208.8 263.8C209.7 264.8 210.4 266 210.8 267.5C211.2 269 211.5 270.6 211.5 272.2V277.6C211.5 279.1 211.4 280.5 211 281.7ZM209.1 268.8C208.9 268 208.7 267.3 208.4 266.6C208.1 265.9 207.7 265.4 207.3 264.9C206.8 264.4 206.3 264.1 205.6 263.8C205 263.5 204.2 263.4 203.4 263.4C202.3 263.4 201.4 263.6 200.7 264C200 264.4 199.4 265 198.9 265.7C198.4 266.4 198 267.3 197.8 268.4C197.6 269.5 197.4 270.6 197.4 271.8V276.3C197.4 276.8 197.4 277.2 197.4 277.7C197.4 278.2 197.5 278.6 197.6 279.1L209.1 268.8ZM209.4 273.8C209.4 273.4 209.4 273 209.3 272.4C209.2 271.8 209.2 271.4 209.2 270.9L197.8 281.2C198 282 198.2 282.7 198.5 283.4C198.8 284 199.2 284.6 199.7 285C200.1 285.4 200.7 285.8 201.3 286C201.9 286.2 202.6 286.4 203.4 286.4C204.4 286.4 205.3 286.2 206.1 285.8C206.9 285.4 207.4 284.8 207.9 284.1C208.4 283.3 208.8 282.4 209.1 281.4C209.3 280.3 209.5 279.2 209.5 278V273.8H209.4Z" fill="url(#paint87_linear_3:10148)"/>
    <path d="M225.3 287.9V264.8L218.1 267.9V265.9L227.1 262.2H227.4V288H225.3V287.9Z" fill="url(#paint88_linear_3:10148)"/>
    <path d="M247.1 287.9V264.8L239.9 267.9V265.9L248.9 262.2H249.2V288H247.1V287.9Z" fill="url(#paint89_linear_3:10148)"/>
    <path d="M276.5 281.7C276.2 283 275.7 284.1 275 285.1C274.3 286.1 273.5 286.8 272.5 287.4C271.5 288 270.3 288.2 268.9 288.2C267.8 288.2 266.7 288 265.8 287.6C264.9 287.2 264.1 286.7 263.5 286C262.5 285 261.8 283.8 261.4 282.3C261 280.8 260.8 279.3 260.8 277.6V272.2C260.8 270.7 261 269.4 261.3 268.1C261.6 266.8 262.1 265.7 262.8 264.7C263.5 263.7 264.3 263 265.3 262.4C266.3 261.9 267.5 261.6 268.9 261.6C270.1 261.6 271.1 261.8 272 262.2C272.9 262.6 273.7 263.1 274.3 263.8C275.2 264.8 275.9 266 276.3 267.5C276.7 269 277 270.6 277 272.2V277.6C276.9 279.1 276.8 280.5 276.5 281.7ZM274.5 268.8C274.3 268 274.1 267.3 273.8 266.6C273.5 265.9 273.1 265.4 272.7 264.9C272.3 264.4 271.7 264.1 271 263.8C270.4 263.5 269.6 263.4 268.8 263.4C267.7 263.4 266.8 263.6 266.1 264C265.4 264.4 264.8 265 264.3 265.7C263.8 266.4 263.4 267.3 263.2 268.4C263 269.5 262.8 270.6 262.8 271.8V276.3C262.8 276.8 262.8 277.2 262.8 277.7C262.8 278.2 262.9 278.6 263 279.1L274.5 268.8ZM274.8 273.8C274.8 273.4 274.8 273 274.7 272.4C274.7 271.9 274.6 271.4 274.6 270.9L263.2 281.2C263.4 282 263.6 282.7 263.9 283.4C264.2 284 264.6 284.6 265.1 285C265.5 285.4 266.1 285.8 266.7 286C267.3 286.2 268 286.4 268.8 286.4C269.8 286.4 270.7 286.2 271.5 285.8C272.3 285.4 272.8 284.8 273.3 284.1C273.8 283.3 274.2 282.4 274.5 281.4C274.7 280.3 274.9 279.2 274.9 278V273.8H274.8Z" fill="url(#paint90_linear_3:10148)"/>
    <path d="M7.20001 331.5V308.4L0 311.5V309.5L9 305.8H9.30002V331.6H7.20001V331.5Z" fill="url(#paint91_linear_3:10148)"/>
    <path d="M29 331.5V308.4L21.8 311.5V309.5L30.8 305.8H31.1001V331.6H29V331.5Z" fill="url(#paint92_linear_3:10148)"/>
    <path d="M50.8 331.5V308.4L43.6 311.5V309.5L52.6 305.8H52.9V331.6H50.8V331.5Z" fill="url(#paint93_linear_3:10148)"/>
    <path d="M80.2 325.4C79.9 326.7 79.4 327.8 78.7 328.8C78 329.8 77.2 330.5 76.2 331.1C75.2 331.7 74 331.9 72.6 331.9C71.5 331.9 70.4 331.7 69.5 331.3C68.6 330.9 67.8 330.4 67.2 329.7C66.2 328.7 65.5 327.5 65.1 326C64.7 324.5 64.5 323 64.5 321.3V315.9C64.5 314.4 64.7 313.1 65 311.8C65.3 310.5 65.8 309.4 66.5 308.4C67.2 307.4 68 306.7 69 306.1C70 305.6 71.2 305.3 72.6 305.3C73.8 305.3 74.8 305.5 75.7 305.9C76.6 306.3 77.4 306.8 78 307.5C78.9 308.5 79.6 309.7 80 311.2C80.4 312.7 80.7 314.3 80.7 315.9V321.3C80.7 322.7 80.5 324.1 80.2 325.4ZM78.2 312.5C78 311.7 77.8 311 77.5 310.3C77.2 309.6 76.8 309.1 76.4 308.6C76 308.1 75.4 307.8 74.7 307.5C74 307.2 73.3 307.1 72.5 307.1C71.4 307.1 70.5 307.3 69.8 307.7C69.1 308.1 68.5 308.7 68 309.4C67.5 310.1 67.1 311 66.9 312.1C66.7 313.2 66.5 314.3 66.5 315.5V320C66.5 320.5 66.5 320.9 66.5 321.4C66.5 321.9 66.6 322.3 66.7 322.8L78.2 312.5ZM78.5 317.4C78.5 317 78.5 316.6 78.4 316C78.4 315.5 78.3 315 78.3 314.5L66.9 324.8C67.1 325.6 67.3 326.3 67.6 327C67.9 327.6 68.3 328.2 68.8 328.6C69.2 329 69.8 329.4 70.4 329.6C71 329.8 71.7 330 72.5 330C73.5 330 74.4 329.8 75.2 329.4C75.9 329 76.5 328.4 77 327.7C77.5 326.9 77.9 326 78.2 325C78.4 323.9 78.6 322.8 78.6 321.6V317.4H78.5Z" fill="url(#paint94_linear_3:10148)"/>
    <path d="M94.4 331.5V308.4L87.2 311.5V309.5L96.2 305.8H96.5V331.6H94.4V331.5Z" fill="url(#paint95_linear_3:10148)"/>
    <path d="M123.8 325.4C123.5 326.7 123 327.8 122.3 328.8C121.6 329.8 120.8 330.5 119.8 331.1C118.8 331.7 117.6 331.9 116.2 331.9C115.1 331.9 114 331.7 113.1 331.3C112.2 330.9 111.4 330.4 110.8 329.7C109.8 328.7 109.1 327.5 108.7 326C108.3 324.5 108.1 323 108.1 321.3V315.9C108.1 314.4 108.3 313.1 108.6 311.8C108.9 310.5 109.4 309.4 110.1 308.4C110.8 307.4 111.6 306.7 112.6 306.1C113.6 305.6 114.8 305.3 116.2 305.3C117.4 305.3 118.4 305.5 119.3 305.9C120.2 306.3 121 306.8 121.6 307.5C122.5 308.5 123.2 309.7 123.6 311.2C124 312.7 124.3 314.3 124.3 315.9V321.3C124.3 322.7 124.1 324.1 123.8 325.4ZM121.8 312.5C121.6 311.7 121.4 311 121.1 310.3C120.8 309.6 120.4 309.1 120 308.6C119.6 308.1 119 307.8 118.3 307.5C117.7 307.2 116.9 307.1 116.1 307.1C115 307.1 114.1 307.3 113.4 307.7C112.7 308.1 112.1 308.7 111.6 309.4C111.1 310.1 110.7 311 110.5 312.1C110.3 313.2 110.1 314.3 110.1 315.5V320C110.1 320.5 110.1 320.9 110.1 321.4C110.1 321.9 110.2 322.3 110.3 322.8L121.8 312.5ZM122.2 317.4C122.2 317 122.2 316.6 122.1 316C122.1 315.5 122 315 122 314.5L110.6 324.8C110.8 325.6 111 326.3 111.3 327C111.6 327.6 112 328.2 112.5 328.6C112.9 329 113.5 329.4 114.1 329.6C114.7 329.8 115.4 330 116.2 330C117.2 330 118.1 329.8 118.9 329.4C119.6 329 120.2 328.4 120.7 327.7C121.2 326.9 121.6 326 121.9 325C122.1 323.9 122.3 322.8 122.3 321.6V317.4H122.2Z" fill="url(#paint96_linear_3:10148)"/>
    <path d="M138.1 331.5V308.4L130.9 311.5V309.5L139.9 305.8H140.2V331.6H138.1V331.5Z" fill="url(#paint97_linear_3:10148)"/>
    <path d="M167.4 325.4C167.1 326.7 166.6 327.8 165.9 328.8C165.2 329.8 164.4 330.5 163.4 331.1C162.4 331.7 161.2 331.9 159.8 331.9C158.7 331.9 157.6 331.7 156.7 331.3C155.8 330.9 155 330.4 154.4 329.7C153.4 328.7 152.7 327.5 152.3 326C151.9 324.5 151.7 323 151.7 321.3V315.9C151.7 314.4 151.9 313.1 152.2 311.8C152.5 310.5 153 309.4 153.7 308.4C154.4 307.4 155.2 306.7 156.2 306.1C157.2 305.6 158.4 305.3 159.8 305.3C161 305.3 162 305.5 162.9 305.9C163.8 306.3 164.6 306.8 165.2 307.5C166.1 308.5 166.8 309.7 167.2 311.2C167.6 312.7 167.9 314.3 167.9 315.9V321.3C167.9 322.7 167.7 324.1 167.4 325.4ZM165.4 312.5C165.2 311.7 165 311 164.7 310.3C164.4 309.6 164 309.1 163.6 308.6C163.2 308.1 162.6 307.8 161.9 307.5C161.3 307.2 160.5 307.1 159.7 307.1C158.6 307.1 157.7 307.3 157 307.7C156.3 308.1 155.7 308.7 155.2 309.4C154.7 310.1 154.3 311 154.1 312.1C153.9 313.2 153.7 314.3 153.7 315.5V320C153.7 320.5 153.7 320.9 153.7 321.4C153.7 321.9 153.8 322.3 153.9 322.8L165.4 312.5ZM165.8 317.4C165.8 317 165.8 316.6 165.7 316C165.7 315.5 165.6 315 165.6 314.5L154.2 324.8C154.4 325.6 154.6 326.3 154.9 327C155.2 327.6 155.6 328.2 156.1 328.6C156.5 329 157.1 329.4 157.7 329.6C158.3 329.8 159 330 159.8 330C160.8 330 161.7 329.8 162.5 329.4C163.2 329 163.8 328.4 164.3 327.7C164.8 326.9 165.2 326 165.5 325C165.7 323.9 165.9 322.8 165.9 321.6V317.4H165.8Z" fill="url(#paint98_linear_3:10148)"/>
    <path d="M181.7 331.5V308.4L174.5 311.5V309.5L183.5 305.8H183.8V331.6H181.7V331.5Z" fill="url(#paint99_linear_3:10148)"/>
    <path d="M211 325.4C210.7 326.7 210.2 327.8 209.5 328.8C208.8 329.8 208 330.5 207 331.1C206 331.7 204.8 331.9 203.4 331.9C202.3 331.9 201.2 331.7 200.3 331.3C199.4 330.9 198.6 330.4 198 329.7C197 328.7 196.3 327.5 195.9 326C195.5 324.5 195.3 323 195.3 321.3V315.9C195.3 314.4 195.5 313.1 195.8 311.8C196.1 310.5 196.6 309.4 197.3 308.4C198 307.4 198.8 306.7 199.8 306.1C200.8 305.6 202 305.3 203.4 305.3C204.6 305.3 205.6 305.5 206.5 305.9C207.4 306.3 208.2 306.8 208.8 307.5C209.7 308.5 210.4 309.7 210.8 311.2C211.2 312.7 211.5 314.3 211.5 315.9V321.3C211.5 322.7 211.4 324.1 211 325.4ZM209.1 312.5C208.9 311.7 208.7 311 208.4 310.3C208.1 309.6 207.7 309.1 207.3 308.6C206.8 308.1 206.3 307.8 205.6 307.5C205 307.2 204.2 307.1 203.4 307.1C202.3 307.1 201.4 307.3 200.7 307.7C200 308.1 199.4 308.7 198.9 309.4C198.4 310.1 198 311 197.8 312.1C197.6 313.2 197.4 314.3 197.4 315.5V320C197.4 320.5 197.4 320.9 197.4 321.4C197.4 321.9 197.5 322.3 197.6 322.8L209.1 312.5ZM209.4 317.4C209.4 317 209.4 316.6 209.3 316C209.2 315.4 209.2 315 209.2 314.5L197.8 324.8C198 325.6 198.2 326.3 198.5 327C198.8 327.6 199.2 328.2 199.7 328.6C200.1 329 200.7 329.4 201.3 329.6C201.9 329.8 202.6 330 203.4 330C204.4 330 205.3 329.8 206.1 329.4C206.8 329 207.4 328.4 207.9 327.7C208.4 326.9 208.8 326 209.1 325C209.3 323.9 209.5 322.8 209.5 321.6V317.4H209.4Z" fill="url(#paint100_linear_3:10148)"/>
    <path d="M225.3 331.5V308.4L218.1 311.5V309.5L227.1 305.8H227.4V331.6H225.3V331.5Z" fill="url(#paint101_linear_3:10148)"/>
    <path d="M247.1 331.5V308.4L239.9 311.5V309.5L248.9 305.8H249.2V331.6H247.1V331.5Z" fill="url(#paint102_linear_3:10148)"/>
    <path d="M268.9 331.5V308.4L261.7 311.5V309.5L270.7 305.8H271V331.6H268.9V331.5Z" fill="url(#paint103_linear_3:10148)"/>
    <defs>
    <linearGradient id="paint0_linear_3:10148" x1="165.801" y1="536.009" x2="-79.5061" y2="-275.142" gradientUnits="userSpaceOnUse">
    <stop stop-color="#0053BA"/>
    <stop offset="0.5344" stop-color="#3D8DF5"/>
    <stop offset="0.8962" stop-color="#0072EF"/>
    </linearGradient>
    <linearGradient id="paint1_linear_3:10148" x1="185.216" y1="530.138" x2="-60.0924" y2="-281.014" gradientUnits="userSpaceOnUse">
    <stop stop-color="#0053BA"/>
    <stop offset="0.5344" stop-color="#3D8DF5"/>
    <stop offset="0.8962" stop-color="#0072EF"/>
    </linearGradient>
    <linearGradient id="paint2_linear_3:10148" x1="205.763" y1="523.923" x2="-39.5449" y2="-287.227" gradientUnits="userSpaceOnUse">
    <stop stop-color="#0053BA"/>
    <stop offset="0.5344" stop-color="#3D8DF5"/>
    <stop offset="0.8962" stop-color="#0072EF"/>
    </linearGradient>
    <linearGradient id="paint3_linear_3:10148" x1="225.178" y1="518.052" x2="-20.1299" y2="-293.099" gradientUnits="userSpaceOnUse">
    <stop stop-color="#0053BA"/>
    <stop offset="0.5344" stop-color="#3D8DF5"/>
    <stop offset="0.8962" stop-color="#0072EF"/>
    </linearGradient>
    <linearGradient id="paint4_linear_3:10148" x1="245.726" y1="511.838" x2="0.417627" y2="-299.313" gradientUnits="userSpaceOnUse">
    <stop stop-color="#0053BA"/>
    <stop offset="0.5344" stop-color="#3D8DF5"/>
    <stop offset="0.8962" stop-color="#0072EF"/>
    </linearGradient>
    <linearGradient id="paint5_linear_3:10148" x1="265.707" y1="505.795" x2="20.3988" y2="-305.355" gradientUnits="userSpaceOnUse">
    <stop stop-color="#0053BA"/>
    <stop offset="0.5344" stop-color="#3D8DF5"/>
    <stop offset="0.8962" stop-color="#0072EF"/>
    </linearGradient>
    <linearGradient id="paint6_linear_3:10148" x1="285.688" y1="499.752" x2="40.3801" y2="-311.398" gradientUnits="userSpaceOnUse">
    <stop stop-color="#0053BA"/>
    <stop offset="0.5344" stop-color="#3D8DF5"/>
    <stop offset="0.8962" stop-color="#0072EF"/>
    </linearGradient>
    <linearGradient id="paint7_linear_3:10148" x1="305.103" y1="493.881" x2="59.795" y2="-317.27" gradientUnits="userSpaceOnUse">
    <stop stop-color="#0053BA"/>
    <stop offset="0.5344" stop-color="#3D8DF5"/>
    <stop offset="0.8962" stop-color="#0072EF"/>
    </linearGradient>
    <linearGradient id="paint8_linear_3:10148" x1="325.651" y1="487.667" x2="80.3425" y2="-323.484" gradientUnits="userSpaceOnUse">
    <stop stop-color="#0053BA"/>
    <stop offset="0.5344" stop-color="#3D8DF5"/>
    <stop offset="0.8962" stop-color="#0072EF"/>
    </linearGradient>
    <linearGradient id="paint9_linear_3:10148" x1="345.633" y1="481.624" x2="100.326" y2="-329.527" gradientUnits="userSpaceOnUse">
    <stop stop-color="#0053BA"/>
    <stop offset="0.5344" stop-color="#3D8DF5"/>
    <stop offset="0.8962" stop-color="#0072EF"/>
    </linearGradient>
    <linearGradient id="paint10_linear_3:10148" x1="365.613" y1="475.582" x2="120.305" y2="-335.569" gradientUnits="userSpaceOnUse">
    <stop stop-color="#0053BA"/>
    <stop offset="0.5344" stop-color="#3D8DF5"/>
    <stop offset="0.8962" stop-color="#0072EF"/>
    </linearGradient>
    <linearGradient id="paint11_linear_3:10148" x1="385.028" y1="469.711" x2="139.72" y2="-341.441" gradientUnits="userSpaceOnUse">
    <stop stop-color="#0053BA"/>
    <stop offset="0.5344" stop-color="#3D8DF5"/>
    <stop offset="0.8962" stop-color="#0072EF"/>
    </linearGradient>
    <linearGradient id="paint12_linear_3:10148" x1="405.009" y1="463.668" x2="159.701" y2="-347.483" gradientUnits="userSpaceOnUse">
    <stop stop-color="#0053BA"/>
    <stop offset="0.5344" stop-color="#3D8DF5"/>
    <stop offset="0.8962" stop-color="#0072EF"/>
    </linearGradient>
    <linearGradient id="paint13_linear_3:10148" x1="153.718" y1="539.662" x2="-91.5891" y2="-271.488" gradientUnits="userSpaceOnUse">
    <stop stop-color="#0053BA"/>
    <stop offset="0.5344" stop-color="#3D8DF5"/>
    <stop offset="0.8962" stop-color="#0072EF"/>
    </linearGradient>
    <linearGradient id="paint14_linear_3:10148" x1="173.132" y1="533.791" x2="-72.1747" y2="-277.359" gradientUnits="userSpaceOnUse">
    <stop stop-color="#0053BA"/>
    <stop offset="0.5344" stop-color="#3D8DF5"/>
    <stop offset="0.8962" stop-color="#0072EF"/>
    </linearGradient>
    <linearGradient id="paint15_linear_3:10148" x1="193.68" y1="527.577" x2="-51.6277" y2="-283.573" gradientUnits="userSpaceOnUse">
    <stop stop-color="#0053BA"/>
    <stop offset="0.5344" stop-color="#3D8DF5"/>
    <stop offset="0.8962" stop-color="#0072EF"/>
    </linearGradient>
    <linearGradient id="paint16_linear_3:10148" x1="213.095" y1="521.706" x2="-32.2123" y2="-289.444" gradientUnits="userSpaceOnUse">
    <stop stop-color="#0053BA"/>
    <stop offset="0.5344" stop-color="#3D8DF5"/>
    <stop offset="0.8962" stop-color="#0072EF"/>
    </linearGradient>
    <linearGradient id="paint17_linear_3:10148" x1="233.076" y1="515.663" x2="-12.231" y2="-295.487" gradientUnits="userSpaceOnUse">
    <stop stop-color="#0053BA"/>
    <stop offset="0.5344" stop-color="#3D8DF5"/>
    <stop offset="0.8962" stop-color="#0072EF"/>
    </linearGradient>
    <linearGradient id="paint18_linear_3:10148" x1="253.057" y1="509.62" x2="7.74892" y2="-301.529" gradientUnits="userSpaceOnUse">
    <stop stop-color="#0053BA"/>
    <stop offset="0.5344" stop-color="#3D8DF5"/>
    <stop offset="0.8962" stop-color="#0072EF"/>
    </linearGradient>
    <linearGradient id="paint19_linear_3:10148" x1="273.605" y1="503.406" x2="28.2972" y2="-307.744" gradientUnits="userSpaceOnUse">
    <stop stop-color="#0053BA"/>
    <stop offset="0.5344" stop-color="#3D8DF5"/>
    <stop offset="0.8962" stop-color="#0072EF"/>
    </linearGradient>
    <linearGradient id="paint20_linear_3:10148" x1="293.586" y1="497.364" x2="48.2784" y2="-313.786" gradientUnits="userSpaceOnUse">
    <stop stop-color="#0053BA"/>
    <stop offset="0.5344" stop-color="#3D8DF5"/>
    <stop offset="0.8962" stop-color="#0072EF"/>
    </linearGradient>
    <linearGradient id="paint21_linear_3:10148" x1="313.567" y1="491.321" x2="68.2597" y2="-319.829" gradientUnits="userSpaceOnUse">
    <stop stop-color="#0053BA"/>
    <stop offset="0.5344" stop-color="#3D8DF5"/>
    <stop offset="0.8962" stop-color="#0072EF"/>
    </linearGradient>
    <linearGradient id="paint22_linear_3:10148" x1="333.549" y1="485.278" x2="88.2431" y2="-325.873" gradientUnits="userSpaceOnUse">
    <stop stop-color="#0053BA"/>
    <stop offset="0.5344" stop-color="#3D8DF5"/>
    <stop offset="0.8962" stop-color="#0072EF"/>
    </linearGradient>
    <linearGradient id="paint23_linear_3:10148" x1="353.53" y1="479.235" x2="108.222" y2="-331.914" gradientUnits="userSpaceOnUse">
    <stop stop-color="#0053BA"/>
    <stop offset="0.5344" stop-color="#3D8DF5"/>
    <stop offset="0.8962" stop-color="#0072EF"/>
    </linearGradient>
    <linearGradient id="paint24_linear_3:10148" x1="372.945" y1="473.364" x2="127.638" y2="-337.786" gradientUnits="userSpaceOnUse">
    <stop stop-color="#0053BA"/>
    <stop offset="0.5344" stop-color="#3D8DF5"/>
    <stop offset="0.8962" stop-color="#0072EF"/>
    </linearGradient>
    <linearGradient id="paint25_linear_3:10148" x1="393.492" y1="467.15" x2="148.185" y2="-344" gradientUnits="userSpaceOnUse">
    <stop stop-color="#0053BA"/>
    <stop offset="0.5344" stop-color="#3D8DF5"/>
    <stop offset="0.8962" stop-color="#0072EF"/>
    </linearGradient>
    <linearGradient id="paint26_linear_3:10148" x1="141.634" y1="543.317" x2="-103.672" y2="-267.834" gradientUnits="userSpaceOnUse">
    <stop stop-color="#0053BA"/>
    <stop offset="0.5344" stop-color="#3D8DF5"/>
    <stop offset="0.8962" stop-color="#0072EF"/>
    </linearGradient>
    <linearGradient id="paint27_linear_3:10148" x1="161.616" y1="537.274" x2="-83.6913" y2="-273.876" gradientUnits="userSpaceOnUse">
    <stop stop-color="#0053BA"/>
    <stop offset="0.5344" stop-color="#3D8DF5"/>
    <stop offset="0.8962" stop-color="#0072EF"/>
    </linearGradient>
    <linearGradient id="paint28_linear_3:10148" x1="181.03" y1="531.403" x2="-64.2769" y2="-279.747" gradientUnits="userSpaceOnUse">
    <stop stop-color="#0053BA"/>
    <stop offset="0.5344" stop-color="#3D8DF5"/>
    <stop offset="0.8962" stop-color="#0072EF"/>
    </linearGradient>
    <linearGradient id="paint29_linear_3:10148" x1="201.578" y1="525.189" x2="-43.7299" y2="-285.961" gradientUnits="userSpaceOnUse">
    <stop stop-color="#0053BA"/>
    <stop offset="0.5344" stop-color="#3D8DF5"/>
    <stop offset="0.8962" stop-color="#0072EF"/>
    </linearGradient>
    <linearGradient id="paint30_linear_3:10148" x1="221.559" y1="519.146" x2="-23.7487" y2="-292.004" gradientUnits="userSpaceOnUse">
    <stop stop-color="#0053BA"/>
    <stop offset="0.5344" stop-color="#3D8DF5"/>
    <stop offset="0.8962" stop-color="#0072EF"/>
    </linearGradient>
    <linearGradient id="paint31_linear_3:10148" x1="241.54" y1="513.103" x2="-3.76742" y2="-298.047" gradientUnits="userSpaceOnUse">
    <stop stop-color="#0053BA"/>
    <stop offset="0.5344" stop-color="#3D8DF5"/>
    <stop offset="0.8962" stop-color="#0072EF"/>
    </linearGradient>
    <linearGradient id="paint32_linear_3:10148" x1="260.955" y1="507.232" x2="15.6481" y2="-303.918" gradientUnits="userSpaceOnUse">
    <stop stop-color="#0053BA"/>
    <stop offset="0.5344" stop-color="#3D8DF5"/>
    <stop offset="0.8962" stop-color="#0072EF"/>
    </linearGradient>
    <linearGradient id="paint33_linear_3:10148" x1="280.936" y1="501.189" x2="35.6293" y2="-309.961" gradientUnits="userSpaceOnUse">
    <stop stop-color="#0053BA"/>
    <stop offset="0.5344" stop-color="#3D8DF5"/>
    <stop offset="0.8962" stop-color="#0072EF"/>
    </linearGradient>
    <linearGradient id="paint34_linear_3:10148" x1="300.917" y1="495.146" x2="55.6106" y2="-316.004" gradientUnits="userSpaceOnUse">
    <stop stop-color="#0053BA"/>
    <stop offset="0.5344" stop-color="#3D8DF5"/>
    <stop offset="0.8962" stop-color="#0072EF"/>
    </linearGradient>
    <linearGradient id="paint35_linear_3:10148" x1="321.466" y1="488.932" x2="76.1596" y2="-322.218" gradientUnits="userSpaceOnUse">
    <stop stop-color="#0053BA"/>
    <stop offset="0.5344" stop-color="#3D8DF5"/>
    <stop offset="0.8962" stop-color="#0072EF"/>
    </linearGradient>
    <linearGradient id="paint36_linear_3:10148" x1="341.446" y1="482.89" x2="96.1388" y2="-328.26" gradientUnits="userSpaceOnUse">
    <stop stop-color="#0053BA"/>
    <stop offset="0.5344" stop-color="#3D8DF5"/>
    <stop offset="0.8962" stop-color="#0072EF"/>
    </linearGradient>
    <linearGradient id="paint37_linear_3:10148" x1="360.861" y1="477.018" x2="115.554" y2="-334.132" gradientUnits="userSpaceOnUse">
    <stop stop-color="#0053BA"/>
    <stop offset="0.5344" stop-color="#3D8DF5"/>
    <stop offset="0.8962" stop-color="#0072EF"/>
    </linearGradient>
    <linearGradient id="paint38_linear_3:10148" x1="381.409" y1="470.804" x2="136.101" y2="-340.346" gradientUnits="userSpaceOnUse">
    <stop stop-color="#0053BA"/>
    <stop offset="0.5344" stop-color="#3D8DF5"/>
    <stop offset="0.8962" stop-color="#0072EF"/>
    </linearGradient>
    <linearGradient id="paint39_linear_3:10148" x1="129.551" y1="546.972" x2="-115.757" y2="-264.18" gradientUnits="userSpaceOnUse">
    <stop stop-color="#0053BA"/>
    <stop offset="0.5344" stop-color="#3D8DF5"/>
    <stop offset="0.8962" stop-color="#0072EF"/>
    </linearGradient>
    <linearGradient id="paint40_linear_3:10148" x1="149.532" y1="540.929" x2="-95.776" y2="-270.223" gradientUnits="userSpaceOnUse">
    <stop stop-color="#0053BA"/>
    <stop offset="0.5344" stop-color="#3D8DF5"/>
    <stop offset="0.8962" stop-color="#0072EF"/>
    </linearGradient>
    <linearGradient id="paint41_linear_3:10148" x1="169.513" y1="534.887" x2="-75.7959" y2="-276.265" gradientUnits="userSpaceOnUse">
    <stop stop-color="#0053BA"/>
    <stop offset="0.5344" stop-color="#3D8DF5"/>
    <stop offset="0.8962" stop-color="#0072EF"/>
    </linearGradient>
    <linearGradient id="paint42_linear_3:10148" x1="188.927" y1="529.015" x2="-56.3805" y2="-282.136" gradientUnits="userSpaceOnUse">
    <stop stop-color="#0053BA"/>
    <stop offset="0.5344" stop-color="#3D8DF5"/>
    <stop offset="0.8962" stop-color="#0072EF"/>
    </linearGradient>
    <linearGradient id="paint43_linear_3:10148" x1="208.909" y1="522.972" x2="-36.3993" y2="-288.179" gradientUnits="userSpaceOnUse">
    <stop stop-color="#0053BA"/>
    <stop offset="0.5344" stop-color="#3D8DF5"/>
    <stop offset="0.8962" stop-color="#0072EF"/>
    </linearGradient>
    <linearGradient id="paint44_linear_3:10148" x1="228.89" y1="516.93" x2="-16.4192" y2="-294.221" gradientUnits="userSpaceOnUse">
    <stop stop-color="#0053BA"/>
    <stop offset="0.5344" stop-color="#3D8DF5"/>
    <stop offset="0.8962" stop-color="#0072EF"/>
    </linearGradient>
    <linearGradient id="paint45_linear_3:10148" x1="249.438" y1="510.716" x2="4.12896" y2="-300.436" gradientUnits="userSpaceOnUse">
    <stop stop-color="#0053BA"/>
    <stop offset="0.5344" stop-color="#3D8DF5"/>
    <stop offset="0.8962" stop-color="#0072EF"/>
    </linearGradient>
    <linearGradient id="paint46_linear_3:10148" x1="269.419" y1="504.673" x2="24.1102" y2="-306.479" gradientUnits="userSpaceOnUse">
    <stop stop-color="#0053BA"/>
    <stop offset="0.5344" stop-color="#3D8DF5"/>
    <stop offset="0.8962" stop-color="#0072EF"/>
    </linearGradient>
    <linearGradient id="paint47_linear_3:10148" x1="288.834" y1="498.801" x2="43.5256" y2="-312.35" gradientUnits="userSpaceOnUse">
    <stop stop-color="#0053BA"/>
    <stop offset="0.5344" stop-color="#3D8DF5"/>
    <stop offset="0.8962" stop-color="#0072EF"/>
    </linearGradient>
    <linearGradient id="paint48_linear_3:10148" x1="309.382" y1="492.587" x2="64.0748" y2="-318.565" gradientUnits="userSpaceOnUse">
    <stop stop-color="#0053BA"/>
    <stop offset="0.5344" stop-color="#3D8DF5"/>
    <stop offset="0.8962" stop-color="#0072EF"/>
    </linearGradient>
    <linearGradient id="paint49_linear_3:10148" x1="328.796" y1="486.716" x2="83.487" y2="-324.435" gradientUnits="userSpaceOnUse">
    <stop stop-color="#0053BA"/>
    <stop offset="0.5344" stop-color="#3D8DF5"/>
    <stop offset="0.8962" stop-color="#0072EF"/>
    </linearGradient>
    <linearGradient id="paint50_linear_3:10148" x1="349.344" y1="480.502" x2="104.035" y2="-330.649" gradientUnits="userSpaceOnUse">
    <stop stop-color="#0053BA"/>
    <stop offset="0.5344" stop-color="#3D8DF5"/>
    <stop offset="0.8962" stop-color="#0072EF"/>
    </linearGradient>
    <linearGradient id="paint51_linear_3:10148" x1="368.759" y1="474.631" x2="123.451" y2="-336.521" gradientUnits="userSpaceOnUse">
    <stop stop-color="#0053BA"/>
    <stop offset="0.5344" stop-color="#3D8DF5"/>
    <stop offset="0.8962" stop-color="#0072EF"/>
    </linearGradient>
    <linearGradient id="paint52_linear_3:10148" x1="117.467" y1="550.625" x2="-127.84" y2="-260.525" gradientUnits="userSpaceOnUse">
    <stop stop-color="#0053BA"/>
    <stop offset="0.5344" stop-color="#3D8DF5"/>
    <stop offset="0.8962" stop-color="#0072EF"/>
    </linearGradient>
    <linearGradient id="paint53_linear_3:10148" x1="136.882" y1="544.754" x2="-108.425" y2="-266.396" gradientUnits="userSpaceOnUse">
    <stop stop-color="#0053BA"/>
    <stop offset="0.5344" stop-color="#3D8DF5"/>
    <stop offset="0.8962" stop-color="#0072EF"/>
    </linearGradient>
    <linearGradient id="paint54_linear_3:10148" x1="157.429" y1="538.54" x2="-87.8783" y2="-272.61" gradientUnits="userSpaceOnUse">
    <stop stop-color="#0053BA"/>
    <stop offset="0.5344" stop-color="#3D8DF5"/>
    <stop offset="0.8962" stop-color="#0072EF"/>
    </linearGradient>
    <linearGradient id="paint55_linear_3:10148" x1="176.844" y1="532.668" x2="-68.4628" y2="-278.481" gradientUnits="userSpaceOnUse">
    <stop stop-color="#0053BA"/>
    <stop offset="0.5344" stop-color="#3D8DF5"/>
    <stop offset="0.8962" stop-color="#0072EF"/>
    </linearGradient>
    <linearGradient id="paint56_linear_3:10148" x1="197.392" y1="526.454" x2="-47.9158" y2="-284.695" gradientUnits="userSpaceOnUse">
    <stop stop-color="#0053BA"/>
    <stop offset="0.5344" stop-color="#3D8DF5"/>
    <stop offset="0.8962" stop-color="#0072EF"/>
    </linearGradient>
    <linearGradient id="paint57_linear_3:10148" x1="217.373" y1="520.412" x2="-27.9346" y2="-290.738" gradientUnits="userSpaceOnUse">
    <stop stop-color="#0053BA"/>
    <stop offset="0.5344" stop-color="#3D8DF5"/>
    <stop offset="0.8962" stop-color="#0072EF"/>
    </linearGradient>
    <linearGradient id="paint58_linear_3:10148" x1="236.788" y1="514.54" x2="-8.51912" y2="-296.61" gradientUnits="userSpaceOnUse">
    <stop stop-color="#0053BA"/>
    <stop offset="0.5344" stop-color="#3D8DF5"/>
    <stop offset="0.8962" stop-color="#0072EF"/>
    </linearGradient>
    <linearGradient id="paint59_linear_3:10148" x1="257.336" y1="508.326" x2="12.0279" y2="-302.823" gradientUnits="userSpaceOnUse">
    <stop stop-color="#0053BA"/>
    <stop offset="0.5344" stop-color="#3D8DF5"/>
    <stop offset="0.8962" stop-color="#0072EF"/>
    </linearGradient>
    <linearGradient id="paint60_linear_3:10148" x1="276.75" y1="502.455" x2="31.4434" y2="-308.695" gradientUnits="userSpaceOnUse">
    <stop stop-color="#0053BA"/>
    <stop offset="0.5344" stop-color="#3D8DF5"/>
    <stop offset="0.8962" stop-color="#0072EF"/>
    </linearGradient>
    <linearGradient id="paint61_linear_3:10148" x1="297.299" y1="496.241" x2="51.9924" y2="-314.91" gradientUnits="userSpaceOnUse">
    <stop stop-color="#0053BA"/>
    <stop offset="0.5344" stop-color="#3D8DF5"/>
    <stop offset="0.8962" stop-color="#0072EF"/>
    </linearGradient>
    <linearGradient id="paint62_linear_3:10148" x1="316.712" y1="490.37" x2="71.4046" y2="-320.78" gradientUnits="userSpaceOnUse">
    <stop stop-color="#0053BA"/>
    <stop offset="0.5344" stop-color="#3D8DF5"/>
    <stop offset="0.8962" stop-color="#0072EF"/>
    </linearGradient>
    <linearGradient id="paint63_linear_3:10148" x1="337.261" y1="484.156" x2="91.953" y2="-326.994" gradientUnits="userSpaceOnUse">
    <stop stop-color="#0053BA"/>
    <stop offset="0.5344" stop-color="#3D8DF5"/>
    <stop offset="0.8962" stop-color="#0072EF"/>
    </linearGradient>
    <linearGradient id="paint64_linear_3:10148" x1="357.242" y1="478.113" x2="111.934" y2="-333.037" gradientUnits="userSpaceOnUse">
    <stop stop-color="#0053BA"/>
    <stop offset="0.5344" stop-color="#3D8DF5"/>
    <stop offset="0.8962" stop-color="#0072EF"/>
    </linearGradient>
    <linearGradient id="paint65_linear_3:10148" x1="105.384" y1="554.28" x2="-139.923" y2="-256.871" gradientUnits="userSpaceOnUse">
    <stop stop-color="#0053BA"/>
    <stop offset="0.5344" stop-color="#3D8DF5"/>
    <stop offset="0.8962" stop-color="#0072EF"/>
    </linearGradient>
    <linearGradient id="paint66_linear_3:10148" x1="125.365" y1="548.237" x2="-119.942" y2="-262.913" gradientUnits="userSpaceOnUse">
    <stop stop-color="#0053BA"/>
    <stop offset="0.5344" stop-color="#3D8DF5"/>
    <stop offset="0.8962" stop-color="#0072EF"/>
    </linearGradient>
    <linearGradient id="paint67_linear_3:10148" x1="145.346" y1="542.194" x2="-99.9616" y2="-268.956" gradientUnits="userSpaceOnUse">
    <stop stop-color="#0053BA"/>
    <stop offset="0.5344" stop-color="#3D8DF5"/>
    <stop offset="0.8962" stop-color="#0072EF"/>
    </linearGradient>
    <linearGradient id="paint68_linear_3:10148" x1="164.761" y1="536.323" x2="-80.5473" y2="-274.828" gradientUnits="userSpaceOnUse">
    <stop stop-color="#0053BA"/>
    <stop offset="0.5344" stop-color="#3D8DF5"/>
    <stop offset="0.8962" stop-color="#0072EF"/>
    </linearGradient>
    <linearGradient id="paint69_linear_3:10148" x1="184.742" y1="530.281" x2="-60.5661" y2="-280.871" gradientUnits="userSpaceOnUse">
    <stop stop-color="#0053BA"/>
    <stop offset="0.5344" stop-color="#3D8DF5"/>
    <stop offset="0.8962" stop-color="#0072EF"/>
    </linearGradient>
    <linearGradient id="paint70_linear_3:10148" x1="204.723" y1="524.238" x2="-40.5859" y2="-286.913" gradientUnits="userSpaceOnUse">
    <stop stop-color="#0053BA"/>
    <stop offset="0.5344" stop-color="#3D8DF5"/>
    <stop offset="0.8962" stop-color="#0072EF"/>
    </linearGradient>
    <linearGradient id="paint71_linear_3:10148" x1="225.271" y1="518.023" x2="-20.0367" y2="-293.127" gradientUnits="userSpaceOnUse">
    <stop stop-color="#0053BA"/>
    <stop offset="0.5344" stop-color="#3D8DF5"/>
    <stop offset="0.8962" stop-color="#0072EF"/>
    </linearGradient>
    <linearGradient id="paint72_linear_3:10148" x1="244.686" y1="512.152" x2="-0.622267" y2="-298.999" gradientUnits="userSpaceOnUse">
    <stop stop-color="#0053BA"/>
    <stop offset="0.5344" stop-color="#3D8DF5"/>
    <stop offset="0.8962" stop-color="#0072EF"/>
    </linearGradient>
    <linearGradient id="paint73_linear_3:10148" x1="265.233" y1="505.938" x2="19.9258" y2="-305.212" gradientUnits="userSpaceOnUse">
    <stop stop-color="#0053BA"/>
    <stop offset="0.5344" stop-color="#3D8DF5"/>
    <stop offset="0.8962" stop-color="#0072EF"/>
    </linearGradient>
    <linearGradient id="paint74_linear_3:10148" x1="285.215" y1="499.895" x2="39.909" y2="-311.255" gradientUnits="userSpaceOnUse">
    <stop stop-color="#0053BA"/>
    <stop offset="0.5344" stop-color="#3D8DF5"/>
    <stop offset="0.8962" stop-color="#0072EF"/>
    </linearGradient>
    <linearGradient id="paint75_linear_3:10148" x1="304.629" y1="494.024" x2="59.3204" y2="-317.126" gradientUnits="userSpaceOnUse">
    <stop stop-color="#0053BA"/>
    <stop offset="0.5344" stop-color="#3D8DF5"/>
    <stop offset="0.8962" stop-color="#0072EF"/>
    </linearGradient>
    <linearGradient id="paint76_linear_3:10148" x1="325.177" y1="487.81" x2="79.8696" y2="-323.34" gradientUnits="userSpaceOnUse">
    <stop stop-color="#0053BA"/>
    <stop offset="0.5344" stop-color="#3D8DF5"/>
    <stop offset="0.8962" stop-color="#0072EF"/>
    </linearGradient>
    <linearGradient id="paint77_linear_3:10148" x1="345.158" y1="481.767" x2="99.8507" y2="-329.383" gradientUnits="userSpaceOnUse">
    <stop stop-color="#0053BA"/>
    <stop offset="0.5344" stop-color="#3D8DF5"/>
    <stop offset="0.8962" stop-color="#0072EF"/>
    </linearGradient>
    <linearGradient id="paint78_linear_3:10148" x1="93.3005" y1="557.934" x2="-152.007" y2="-253.216" gradientUnits="userSpaceOnUse">
    <stop stop-color="#0053BA"/>
    <stop offset="0.5344" stop-color="#3D8DF5"/>
    <stop offset="0.8962" stop-color="#0072EF"/>
    </linearGradient>
    <linearGradient id="paint79_linear_3:10148" x1="112.715" y1="552.062" x2="-132.592" y2="-259.087" gradientUnits="userSpaceOnUse">
    <stop stop-color="#0053BA"/>
    <stop offset="0.5344" stop-color="#3D8DF5"/>
    <stop offset="0.8962" stop-color="#0072EF"/>
    </linearGradient>
    <linearGradient id="paint80_linear_3:10148" x1="132.696" y1="546.02" x2="-112.611" y2="-265.13" gradientUnits="userSpaceOnUse">
    <stop stop-color="#0053BA"/>
    <stop offset="0.5344" stop-color="#3D8DF5"/>
    <stop offset="0.8962" stop-color="#0072EF"/>
    </linearGradient>
    <linearGradient id="paint81_linear_3:10148" x1="153.244" y1="539.806" x2="-92.0637" y2="-271.344" gradientUnits="userSpaceOnUse">
    <stop stop-color="#0053BA"/>
    <stop offset="0.5344" stop-color="#3D8DF5"/>
    <stop offset="0.8962" stop-color="#0072EF"/>
    </linearGradient>
    <linearGradient id="paint82_linear_3:10148" x1="172.659" y1="533.934" x2="-72.6484" y2="-277.215" gradientUnits="userSpaceOnUse">
    <stop stop-color="#0053BA"/>
    <stop offset="0.5344" stop-color="#3D8DF5"/>
    <stop offset="0.8962" stop-color="#0072EF"/>
    </linearGradient>
    <linearGradient id="paint83_linear_3:10148" x1="193.206" y1="527.72" x2="-52.1013" y2="-283.43" gradientUnits="userSpaceOnUse">
    <stop stop-color="#0053BA"/>
    <stop offset="0.5344" stop-color="#3D8DF5"/>
    <stop offset="0.8962" stop-color="#0072EF"/>
    </linearGradient>
    <linearGradient id="paint84_linear_3:10148" x1="212.621" y1="521.849" x2="-32.6858" y2="-289.301" gradientUnits="userSpaceOnUse">
    <stop stop-color="#0053BA"/>
    <stop offset="0.5344" stop-color="#3D8DF5"/>
    <stop offset="0.8962" stop-color="#0072EF"/>
    </linearGradient>
    <linearGradient id="paint85_linear_3:10148" x1="232.602" y1="515.806" x2="-12.7047" y2="-295.344" gradientUnits="userSpaceOnUse">
    <stop stop-color="#0053BA"/>
    <stop offset="0.5344" stop-color="#3D8DF5"/>
    <stop offset="0.8962" stop-color="#0072EF"/>
    </linearGradient>
    <linearGradient id="paint86_linear_3:10148" x1="253.15" y1="509.592" x2="7.84244" y2="-301.558" gradientUnits="userSpaceOnUse">
    <stop stop-color="#0053BA"/>
    <stop offset="0.5344" stop-color="#3D8DF5"/>
    <stop offset="0.8962" stop-color="#0072EF"/>
    </linearGradient>
    <linearGradient id="paint87_linear_3:10148" x1="272.565" y1="503.721" x2="27.2577" y2="-307.429" gradientUnits="userSpaceOnUse">
    <stop stop-color="#0053BA"/>
    <stop offset="0.5344" stop-color="#3D8DF5"/>
    <stop offset="0.8962" stop-color="#0072EF"/>
    </linearGradient>
    <linearGradient id="paint88_linear_3:10148" x1="293.113" y1="497.507" x2="47.8049" y2="-313.643" gradientUnits="userSpaceOnUse">
    <stop stop-color="#0053BA"/>
    <stop offset="0.5344" stop-color="#3D8DF5"/>
    <stop offset="0.8962" stop-color="#0072EF"/>
    </linearGradient>
    <linearGradient id="paint89_linear_3:10148" x1="313.094" y1="491.464" x2="67.7862" y2="-319.686" gradientUnits="userSpaceOnUse">
    <stop stop-color="#0053BA"/>
    <stop offset="0.5344" stop-color="#3D8DF5"/>
    <stop offset="0.8962" stop-color="#0072EF"/>
    </linearGradient>
    <linearGradient id="paint90_linear_3:10148" x1="332.508" y1="485.593" x2="87.2015" y2="-325.557" gradientUnits="userSpaceOnUse">
    <stop stop-color="#0053BA"/>
    <stop offset="0.5344" stop-color="#3D8DF5"/>
    <stop offset="0.8962" stop-color="#0072EF"/>
    </linearGradient>
    <linearGradient id="paint91_linear_3:10148" x1="81.2171" y1="561.589" x2="-164.091" y2="-249.563" gradientUnits="userSpaceOnUse">
    <stop stop-color="#0053BA"/>
    <stop offset="0.5344" stop-color="#3D8DF5"/>
    <stop offset="0.8962" stop-color="#0072EF"/>
    </linearGradient>
    <linearGradient id="paint92_linear_3:10148" x1="101.198" y1="555.546" x2="-144.11" y2="-255.606" gradientUnits="userSpaceOnUse">
    <stop stop-color="#0053BA"/>
    <stop offset="0.5344" stop-color="#3D8DF5"/>
    <stop offset="0.8962" stop-color="#0072EF"/>
    </linearGradient>
    <linearGradient id="paint93_linear_3:10148" x1="121.179" y1="549.503" x2="-124.129" y2="-261.648" gradientUnits="userSpaceOnUse">
    <stop stop-color="#0053BA"/>
    <stop offset="0.5344" stop-color="#3D8DF5"/>
    <stop offset="0.8962" stop-color="#0072EF"/>
    </linearGradient>
    <linearGradient id="paint94_linear_3:10148" x1="140.594" y1="543.632" x2="-104.714" y2="-267.52" gradientUnits="userSpaceOnUse">
    <stop stop-color="#0053BA"/>
    <stop offset="0.5344" stop-color="#3D8DF5"/>
    <stop offset="0.8962" stop-color="#0072EF"/>
    </linearGradient>
    <linearGradient id="paint95_linear_3:10148" x1="161.142" y1="537.418" x2="-84.1669" y2="-273.734" gradientUnits="userSpaceOnUse">
    <stop stop-color="#0053BA"/>
    <stop offset="0.5344" stop-color="#3D8DF5"/>
    <stop offset="0.8962" stop-color="#0072EF"/>
    </linearGradient>
    <linearGradient id="paint96_linear_3:10148" x1="180.556" y1="531.546" x2="-64.7526" y2="-279.605" gradientUnits="userSpaceOnUse">
    <stop stop-color="#0053BA"/>
    <stop offset="0.5344" stop-color="#3D8DF5"/>
    <stop offset="0.8962" stop-color="#0072EF"/>
    </linearGradient>
    <linearGradient id="paint97_linear_3:10148" x1="201.104" y1="525.332" x2="-44.2045" y2="-285.819" gradientUnits="userSpaceOnUse">
    <stop stop-color="#0053BA"/>
    <stop offset="0.5344" stop-color="#3D8DF5"/>
    <stop offset="0.8962" stop-color="#0072EF"/>
    </linearGradient>
    <linearGradient id="paint98_linear_3:10148" x1="220.519" y1="519.461" x2="-24.7891" y2="-291.69" gradientUnits="userSpaceOnUse">
    <stop stop-color="#0053BA"/>
    <stop offset="0.5344" stop-color="#3D8DF5"/>
    <stop offset="0.8962" stop-color="#0072EF"/>
    </linearGradient>
    <linearGradient id="paint99_linear_3:10148" x1="241.067" y1="513.247" x2="-4.24199" y2="-297.905" gradientUnits="userSpaceOnUse">
    <stop stop-color="#0053BA"/>
    <stop offset="0.5344" stop-color="#3D8DF5"/>
    <stop offset="0.8962" stop-color="#0072EF"/>
    </linearGradient>
    <linearGradient id="paint100_linear_3:10148" x1="260.481" y1="507.375" x2="15.1734" y2="-303.776" gradientUnits="userSpaceOnUse">
    <stop stop-color="#0053BA"/>
    <stop offset="0.5344" stop-color="#3D8DF5"/>
    <stop offset="0.8962" stop-color="#0072EF"/>
    </linearGradient>
    <linearGradient id="paint101_linear_3:10148" x1="281.029" y1="501.162" x2="35.7205" y2="-309.99" gradientUnits="userSpaceOnUse">
    <stop stop-color="#0053BA"/>
    <stop offset="0.5344" stop-color="#3D8DF5"/>
    <stop offset="0.8962" stop-color="#0072EF"/>
    </linearGradient>
    <linearGradient id="paint102_linear_3:10148" x1="301.01" y1="495.119" x2="55.7017" y2="-316.033" gradientUnits="userSpaceOnUse">
    <stop stop-color="#0053BA"/>
    <stop offset="0.5344" stop-color="#3D8DF5"/>
    <stop offset="0.8962" stop-color="#0072EF"/>
    </linearGradient>
    <linearGradient id="paint103_linear_3:10148" x1="320.992" y1="489.076" x2="75.6829" y2="-322.075" gradientUnits="userSpaceOnUse">
    <stop stop-color="#0053BA"/>
    <stop offset="0.5344" stop-color="#3D8DF5"/>
    <stop offset="0.8962" stop-color="#0072EF"/>
    </linearGradient>
    </defs>
    </svg>
