<svg xmlns="http://www.w3.org/2000/svg" viewBox="0 0 628.93 86.81"><defs><style>.cls-1{fill:#ea4334;}.cls-1,.cls-2,.cls-3,.cls-4{fill-rule:evenodd;}.cls-2{fill:#4285f4;}.cls-3{fill:#fcbc05;}.cls-4{fill:#0d9d58;}</style></defs><title>Fichier 4</title><g id="Calque_2" data-name="Calque 2"><g id="Layer_1" data-name="Layer 1"><path d="M255.4,42.13q0,12-7.09,19-8,8.44-20.95,8.44a28.6,28.6,0,0,1-21-8.6,28.79,28.79,0,0,1-8.6-21.19,28.75,28.75,0,0,1,8.6-21.18,28.56,28.56,0,0,1,21-8.6,31.6,31.6,0,0,1,11.87,2.23,23.61,23.61,0,0,1,9.16,6.29l-5.26,5.25a17.61,17.61,0,0,0-6.81-5,22.38,22.38,0,0,0-9-1.8,21.44,21.44,0,0,0-15.77,6.46,22.45,22.45,0,0,0-6.37,16.32,22.48,22.48,0,0,0,6.37,16.33,21.47,21.47,0,0,0,15.77,6.45q8.53,0,14.18-4.78t6.53-13.14H227.36V37.83H255A24.07,24.07,0,0,1,255.4,42.13Z"/><path d="M264.32,68.34v-57h17.44q13.07,0,21,7.88t7.92,20.63q0,12.82-7.92,20.67t-21,7.85Zm7.33-50v43h10.11q10,0,15.69-5.7t5.74-15.81q0-10-5.74-15.77t-15.69-5.73Z"/><path d="M374.23,42.13q0,12-7.09,19-8,8.44-20.95,8.44a28.6,28.6,0,0,1-21-8.6,28.79,28.79,0,0,1-8.6-21.19,28.75,28.75,0,0,1,8.6-21.18,28.56,28.56,0,0,1,21-8.6,31.6,31.6,0,0,1,11.87,2.23,23.61,23.61,0,0,1,9.16,6.29L362,23.81a17.61,17.61,0,0,0-6.81-5,22.38,22.38,0,0,0-9-1.8,21.43,21.43,0,0,0-15.77,6.46,22.45,22.45,0,0,0-6.37,16.32,22.48,22.48,0,0,0,6.37,16.33,21.46,21.46,0,0,0,15.77,6.45q8.52,0,14.18-4.78t6.53-13.14H346.19V37.83h27.64A25,25,0,0,1,374.23,42.13Z"/><path d="M401.62,68.34H393.5l21.5-57h8.29l21.5,57h-8.12l-5.5-15.46h-24Zm17.37-48L409.67,46h18.95L419.3,20.31Z"/><path d="M457.53,11.31v57h-7.32v-57Z"/><path d="M483.34,86.81a22,22,0,0,1-6.13-.83A20,20,0,0,1,472,83.63,16.73,16.73,0,0,1,468,80a14.91,14.91,0,0,1-2.55-4.62l6.93-2.86a11,11,0,0,0,4.14,5.49,11.61,11.61,0,0,0,6.85,2.07q6,0,9.32-3.58T496,66.66V62.92h-.32a14.47,14.47,0,0,1-5.61,4.9,16.86,16.86,0,0,1-7.69,1.79,17.27,17.27,0,0,1-13.14-6,21.62,21.62,0,0,1-5.41-14.82,21.3,21.3,0,0,1,5.41-14.73A17.15,17.15,0,0,1,482.38,28a16.73,16.73,0,0,1,7.69,1.79,14.39,14.39,0,0,1,5.61,4.9H496V29.31h7V66.66q0,9.41-5.33,14.74T483.34,86.81Zm.24-23.89a11.22,11.22,0,0,0,8.84-3.9A14.48,14.48,0,0,0,496,48.82a14.52,14.52,0,0,0-3.58-10.11,11.27,11.27,0,0,0-8.84-4,11.4,11.4,0,0,0-8.84,4,14.53,14.53,0,0,0-3.59,10.11,14.38,14.38,0,0,0,3.59,10.12A11.43,11.43,0,0,0,483.58,62.92Z"/><path d="M521.41,15.85a5.18,5.18,0,1,1-8.84-3.66,5.18,5.18,0,0,1,8.84,3.66ZM519.9,29.31v39h-7.33v-39Z"/><path d="M546.58,69.61a18.65,18.65,0,0,1-14.18-5.89,20.82,20.82,0,0,1-5.58-14.9A21.21,21.21,0,0,1,532.24,34,17.91,17.91,0,0,1,546.1,28q8.67,0,13.82,5.61t5.13,15.73l-.08.8H534.31a12.75,12.75,0,0,0,3.82,9.24,12.28,12.28,0,0,0,8.76,3.5q7,0,11-7l6.53,3.19a19.58,19.58,0,0,1-7.29,7.72A20.16,20.16,0,0,1,546.58,69.61ZM534.87,44.12h22.38a9.73,9.73,0,0,0-3.31-6.73,11.6,11.6,0,0,0-8-2.66,10.66,10.66,0,0,0-7.13,2.54A12.16,12.16,0,0,0,534.87,44.12Z"/><path d="M579.07,68.34h-7.33v-39h7v6.37h.32a10.61,10.61,0,0,1,4.58-5.3,12.8,12.8,0,0,1,6.81-2.19,13.72,13.72,0,0,1,5.42,1l-2.23,7.09a12.23,12.23,0,0,0-4.31-.56,9.47,9.47,0,0,0-7.2,3.35,11.16,11.16,0,0,0-3.07,7.8Z"/><path d="M628.93,57.5a10.61,10.61,0,0,1-4.46,8.61,19.4,19.4,0,0,1-21.59.43,17,17,0,0,1-6.37-8.08L603,55.67a12.15,12.15,0,0,0,4.18,5.46,10.2,10.2,0,0,0,6,1.95,10.66,10.66,0,0,0,5.85-1.51A4.3,4.3,0,0,0,621.44,58q0-3.73-5.73-5.49L609,50.81q-11.4-2.87-11.39-11A10.14,10.14,0,0,1,602,31.26Q606.31,28,613.08,28a18.12,18.12,0,0,1,9.36,2.46,13.44,13.44,0,0,1,5.85,6.61l-6.53,2.71A8.24,8.24,0,0,0,618.14,36a11.39,11.39,0,0,0-5.62-1.39A9.41,9.41,0,0,0,607.38,36a4.14,4.14,0,0,0-2.27,3.5c0,2.23,2.1,3.83,6.3,4.78l5.89,1.52Q628.92,48.67,628.93,57.5Z"/><g id="Group"><path id="Rectangle-Copy" class="cls-1" d="M52.8,1.76,7,28.21a13.12,13.12,0,0,0-4.8,17.93h0a13.11,13.11,0,0,0,17.92,4.8L65.92,24.49A13.13,13.13,0,0,0,70.73,6.56h0A13.14,13.14,0,0,0,52.8,1.76Z"/><path id="Rectangle-Copy-2" class="cls-2" d="M65.51,54.88,19.69,28.42A13.13,13.13,0,0,0,1.76,33.23h0a13.12,13.12,0,0,0,4.8,17.92L52.38,77.61A13.13,13.13,0,0,0,70.31,72.8h0A13.12,13.12,0,0,0,65.51,54.88Z"/><path id="Rectangle" class="cls-3" d="M96.15,55.29,142,28.84a13.14,13.14,0,0,1,17.93,4.8h0a13.13,13.13,0,0,1-4.81,17.93L109.27,78a13.11,13.11,0,0,1-17.92-4.8h0A13.12,13.12,0,0,1,96.15,55.29Z"/><path class="cls-4" d="M109.69,2.18l45.82,26.45a13.12,13.12,0,0,1,4.8,17.93h0a13.12,13.12,0,0,1-17.92,4.8L96.57,24.91A13.13,13.13,0,0,1,91.76,7h0A13.12,13.12,0,0,1,109.69,2.18Z"/></g></g></g></svg>