<svg width="795" height="204" viewBox="0 0 795 204" fill="none" xmlns="http://www.w3.org/2000/svg">
    <path d="M795 0H0V204H795V0Z" fill="#202124"/>
    <path d="M44.5 102.7C45.5 99 47 95.9 49 93.2C51 90.6 53.4 88.5 56.2 87.1C59 85.7 62.3 84.9 65.9 84.9C69 84.9 71.7 85.5 74 86.6C76.3 87.7 78.4 89.3 80.2 91.3V61.5H95.3V144.6H81.7L80.9 138.5C79.1 140.8 76.9 142.5 74.4 143.8C71.9 145.1 69 145.7 65.7 145.7C62.1 145.7 58.9 145 56.1 143.5C53.3 142 50.9 139.9 48.9 137.3C46.9 134.7 45.4 131.5 44.4 127.9C43.4 124.3 42.8 120.3 42.8 116.1V115C43 110.4 43.5 106.4 44.5 102.7ZM58.7 122.9C59.1 125 59.8 126.8 60.7 128.4C61.6 130 62.8 131.2 64.3 132.1C65.8 133 67.6 133.5 69.7 133.5C72.3 133.5 74.5 132.9 76.2 131.8C77.9 130.7 79.3 129.1 80.3 127.2V103.5C79.3 101.5 77.9 100 76.2 98.9C74.5 97.8 72.4 97.2 69.8 97.2C67.7 97.2 65.9 97.7 64.4 98.6C62.9 99.5 61.7 100.8 60.7 102.4C59.8 104 59.1 105.9 58.6 108.1C58.2 110.2 58 112.5 58 115V116.1C58 118.5 58.3 120.7 58.7 122.9Z" fill="white" stroke="black" stroke-width="2" stroke-miterlimit="10"/>
    <path d="M127.2 143.4C123.5 141.9 120.4 139.9 117.7 137.3C115.1 134.8 113 131.8 111.6 128.3C110.2 124.9 109.5 121.2 109.5 117.2V115C109.5 110.5 110.2 106.4 111.6 102.7C113 99 115 95.8 117.5 93.1C120 90.4 123 88.4 126.5 86.9C130 85.4 133.7 84.7 137.8 84.7C142 84.7 145.8 85.4 149.1 86.8C152.4 88.2 155.2 90.1 157.5 92.7C159.8 95.2 161.5 98.3 162.7 101.8C163.9 105.3 164.5 109.3 164.5 113.6V120H124.8V120.2C125.3 122.5 126 124.4 126.7 125.9C127.5 127.3 128.6 128.6 129.9 129.8C131.3 131 132.8 131.9 134.6 132.6C136.4 133.2 138.3 133.6 140.4 133.6C143.4 133.6 146.2 133 149 131.9C151.8 130.8 154 129.1 155.8 126.9L163.3 135C161.4 137.7 158.4 140.2 154.2 142.4C150 144.6 145.1 145.7 139.5 145.7C135 145.7 130.9 144.9 127.2 143.4ZM133.1 98C131.7 98.6 130.5 99.5 129.4 100.6C128.3 101.7 127.4 103.1 126.7 104.6C126 106.1 125.4 107.9 125.1 109.8H149.8V108.6C149.8 107 149.5 105.5 148.9 104.1C148.3 102.7 147.5 101.5 146.5 100.4C145.5 99.4 144.3 98.6 142.8 98C141.3 97.4 139.7 97.1 137.7 97.1C136 97.1 134.5 97.4 133.1 98Z" fill="white" stroke="black" stroke-width="2" stroke-miterlimit="10"/>
    <path d="M173.9 86H189.6L202.5 127.3L203.3 131.4L204.1 127.3L216.9 86H232.6L210.4 144.6H196.3L173.9 86Z" fill="white" stroke="black" stroke-width="2" stroke-miterlimit="10"/>
    <path d="M258.7 97.1H243.3V86H258.7V82.8C258.7 78.9 259.3 75.5 260.5 72.6C261.7 69.7 263.5 67.2 265.7 65.1C268 63.1 270.7 61.6 274 60.5C277.2 59.5 280.9 59 284.9 59C286.2 59 287.4 59 288.6 59.1C289.8 59.2 290.9 59.3 292 59.5C293.1 59.6 294.2 59.8 295.4 60C296.6 60.2 297.7 60.4 298.9 60.6L297.9 72.4C296.5 72.1 295 71.9 293.2 71.6C291.4 71.3 289.4 71.3 287.1 71.3C284.6 71.3 282.4 71.6 280.7 72.2C278.9 72.8 277.5 73.6 276.5 74.7C275.6 75.6 274.9 76.8 274.4 78.2C273.9 79.6 273.7 81.1 273.7 82.9V86.1H294.8V97.2H273.7V144.7H258.6V97.1H258.7Z" fill="white" stroke="black" stroke-width="2" stroke-miterlimit="10"/>
    <path d="M326.8 143.4C323.1 141.9 320 139.9 317.3 137.3C314.7 134.8 312.6 131.8 311.2 128.3C309.8 124.9 309.1 121.2 309.1 117.2V115C309.1 110.5 309.8 106.4 311.2 102.7C312.6 99 314.6 95.8 317.1 93.1C319.6 90.4 322.6 88.4 326.1 86.9C329.6 85.4 333.3 84.7 337.4 84.7C341.6 84.7 345.4 85.4 348.7 86.8C352 88.2 354.8 90.1 357.1 92.7C359.4 95.2 361.1 98.3 362.3 101.8C363.5 105.3 364.1 109.3 364.1 113.6V120H324.4V120.2C324.9 122.5 325.6 124.4 326.3 125.9C327.1 127.3 328.2 128.6 329.5 129.8C330.9 131 332.4 131.9 334.2 132.6C336 133.2 337.9 133.6 340 133.6C343 133.6 345.8 133 348.6 131.9C351.4 130.8 353.6 129.1 355.4 126.9L362.9 135C361 137.7 358 140.2 353.8 142.4C349.6 144.6 344.7 145.7 339.1 145.7C334.5 145.7 330.4 144.9 326.8 143.4ZM332.6 98C331.2 98.6 330 99.5 328.9 100.6C327.8 101.7 326.9 103.1 326.2 104.6C325.5 106.2 324.9 107.9 324.6 109.8H349.3V108.6C349.3 107 349 105.5 348.4 104.1C347.8 102.7 347 101.5 346 100.4C345 99.4 343.8 98.6 342.3 98C340.8 97.4 339.2 97.1 337.2 97.1C335.6 97.1 334 97.4 332.6 98Z" fill="white" stroke="black" stroke-width="2" stroke-miterlimit="10"/>
    <path d="M414.3 126.1C413.9 125.4 413.2 124.8 412.1 124.2C411 123.6 409.6 123.1 407.8 122.6C406 122.1 403.8 121.6 401.1 121.1C397.7 120.4 394.5 119.6 391.7 118.5C388.9 117.5 386.4 116.2 384.4 114.7C382.4 113.3 380.8 111.6 379.7 109.7C378.6 107.8 378 105.6 378 103.1C378 100.7 378.6 98.4 379.7 96.2C380.9 94 382.5 92.1 384.7 90.4C386.9 88.7 389.5 87.4 392.6 86.4C395.7 85.4 399.2 84.9 403.1 84.9C407.2 84.9 410.8 85.4 414.1 86.3C417.3 87.3 420.1 88.6 422.4 90.2C424.6 91.9 426.4 93.9 427.5 96.2C428.7 98.5 429.3 101 429.3 103.7H414.3C414.3 102.7 414.1 101.8 413.8 101C413.5 100.2 413 99.4 412.3 98.7C411.4 97.8 410.2 97.1 408.6 96.5C407 95.9 405.2 95.7 403.1 95.7C401.3 95.7 399.7 95.9 398.3 96.2C396.9 96.6 395.8 97.1 394.9 97.7C394.1 98.3 393.5 99 393.1 99.7C392.7 100.5 392.5 101.3 392.5 102.2C392.5 103.1 392.7 103.9 393 104.6C393.4 105.3 394 106 394.9 106.6C395.8 107.2 397 107.8 398.6 108.3C400.2 108.8 402.2 109.2 404.7 109.6C408.2 110.2 411.5 110.9 414.6 111.8C417.6 112.7 420.2 113.9 422.4 115.3C424.6 116.7 426.3 118.5 427.6 120.5C428.9 122.5 429.5 125 429.5 127.8C429.5 130.4 428.9 132.8 427.6 135C426.4 137.2 424.6 139.1 422.3 140.7C420 142.3 417.2 143.5 414 144.4C410.8 145.3 407.1 145.7 403.1 145.7C398.7 145.7 394.8 145.1 391.4 144C388 142.9 385.2 141.3 382.9 139.5C380.6 137.7 378.9 135.6 377.7 133.2C376.5 130.8 375.9 128.5 375.9 126.1H390.2C390.3 127.7 390.7 129 391.5 130.2C392.3 131.3 393.2 132.2 394.4 132.9C395.6 133.6 397 134.1 398.5 134.5C400 134.8 401.6 135 403.2 135C405.1 135 406.9 134.8 408.3 134.5C409.8 134.2 411 133.7 411.9 133.1C412.8 132.5 413.5 131.9 413.9 131.1C414.4 130.3 414.6 129.5 414.6 128.6C414.9 127.6 414.7 126.8 414.3 126.1Z" fill="white" stroke="black" stroke-width="2" stroke-miterlimit="10"/>
    <path d="M471.3 86H493.2V97.1H471.3V122.3C471.3 124.4 471.5 126.2 472 127.6C472.5 129 473.2 130.2 474.1 131C475 131.9 476.1 132.5 477.4 132.8C478.7 133.2 480.1 133.3 481.7 133.3C482.9 133.3 484 133.2 485.2 133.1C486.4 133 487.6 132.8 488.7 132.7C489.8 132.6 490.8 132.4 491.8 132.2C492.8 132 493.6 131.8 494.3 131.7L495.8 142C494.8 142.6 493.5 143.1 492.1 143.6C490.7 144.1 489.2 144.4 487.6 144.7C486 145 484.4 145.2 482.6 145.4C480.9 145.6 479.2 145.6 477.5 145.6C474.3 145.6 471.4 145.2 468.8 144.3C466.2 143.4 464 142.1 462.1 140.3C460.2 138.5 458.8 136.3 457.8 133.5C456.8 130.7 456.3 127.4 456.3 123.6V97H442.9V85.9H456.3V71.6H471.3V86Z" fill="white" stroke="black" stroke-width="2" stroke-miterlimit="10"/>
    <path d="M508.7 144.6V137.4L534.5 108.7C536.8 106.1 538.7 103.9 540.3 101.9C541.9 99.9 543.1 98.1 544 96.4C544.9 94.7 545.6 93.2 546 91.7C546.4 90.2 546.6 88.7 546.6 87.1C546.6 85.2 546.3 83.3 545.7 81.6C545.1 79.9 544.2 78.4 543 77.1C541.8 75.8 540.3 74.8 538.6 74.1C536.9 73.4 534.9 73 532.8 73C530.2 73 527.9 73.4 526 74.1C524.1 74.8 522.5 75.9 521.2 77.3C519.9 78.7 518.9 80.4 518.3 82.4C517.7 84.4 517.4 86.6 517.4 89.1H507.3C507.3 85.8 507.9 82.7 509 79.7C510.2 76.8 511.8 74.2 514 72C516.2 69.8 518.8 68 522 66.8C525.2 65.5 528.8 64.9 532.8 64.9C536.5 64.9 539.9 65.5 542.8 66.6C545.8 67.7 548.3 69.2 550.3 71.2C552.4 73.1 553.9 75.5 555 78.1C556.1 80.7 556.7 83.7 556.7 86.8C556.7 89.1 556.3 91.5 555.5 93.8C554.7 96.1 553.6 98.4 552.3 100.6C550.9 102.8 549.4 105 547.6 107.2C545.8 109.4 543.9 111.6 541.9 113.7L520.7 136.6H560.3V144.8H508.7V144.6Z" fill="white" stroke="black" stroke-width="2" stroke-miterlimit="10"/>
    <path d="M626.2 127.8C625 131.7 623.4 134.9 621.2 137.6C619 140.3 616.4 142.3 613.2 143.7C610.1 145.1 606.5 145.8 602.4 145.8C598.4 145.8 594.8 145.1 591.6 143.8C588.4 142.4 585.7 140.4 583.5 137.7C581.3 135.1 579.6 131.8 578.5 127.9C577.3 124 576.8 119.6 576.8 114.6V96.1C576.8 91.1 577.4 86.6 578.5 82.8C579.7 78.9 581.3 75.6 583.5 73C585.7 70.3 588.3 68.3 591.5 66.9C594.7 65.5 598.2 64.8 602.2 64.8C606.2 64.8 609.8 65.5 613 66.9C616.2 68.3 618.8 70.3 621 73C623.2 75.7 624.8 78.9 626 82.8C627.2 86.7 627.7 91.1 627.7 96.1V114.4C627.9 119.5 627.4 123.9 626.2 127.8ZM617.7 88.9C617.4 86.3 616.9 84 616.2 82C615.5 80 614.5 78.3 613.2 77C612 75.6 610.5 74.6 608.7 73.9C606.9 73.2 604.8 72.9 602.5 72.9C600.1 72.9 598 73.3 596.2 74C594.4 74.7 592.8 75.8 591.6 77.2C590.1 79 589 81.3 588.2 84C587.5 86.8 587.1 90 587.1 93.7V106.9C587.1 107.8 587.1 108.7 587.1 109.6C587.1 110.5 587.1 111.4 587.1 112.4L617.7 88.9ZM617.9 105.4C617.9 104.9 617.9 103.8 617.9 102.3C617.9 100.8 617.9 99.5 617.9 98.5L587.3 121.9C587.6 124.5 588.2 126.9 589 128.9C589.8 130.9 590.9 132.6 592.2 133.9C593.4 135.1 594.9 136.1 596.6 136.7C598.3 137.3 600.3 137.6 602.4 137.6C604.7 137.6 606.7 137.3 608.5 136.6C610.3 135.9 611.8 134.9 613 133.6C614.7 131.8 615.9 129.5 616.7 126.7C617.5 123.8 617.9 120.5 617.9 116.6V105.4Z" fill="white" stroke="black" stroke-width="2" stroke-miterlimit="10"/>
    <path d="M641.7 144.6V137.4L667.5 108.7C669.8 106.1 671.7 103.9 673.3 101.9C674.9 99.9 676.1 98.1 677 96.4C677.9 94.7 678.6 93.2 679 91.7C679.4 90.2 679.6 88.7 679.6 87.1C679.6 85.2 679.3 83.3 678.7 81.6C678.1 79.9 677.2 78.4 676 77.1C674.8 75.8 673.3 74.8 671.6 74.1C669.9 73.4 667.9 73 665.8 73C663.2 73 660.9 73.4 659 74.1C657.1 74.8 655.5 75.9 654.2 77.3C652.9 78.7 651.9 80.4 651.3 82.4C650.7 84.4 650.4 86.6 650.4 89.1H640.3C640.3 85.8 640.9 82.7 642 79.7C643.2 76.8 644.8 74.2 647 72C649.2 69.8 651.8 68 655 66.8C658.2 65.5 661.8 64.9 665.8 64.9C669.5 64.9 672.9 65.5 675.8 66.6C678.8 67.7 681.3 69.2 683.3 71.2C685.4 73.1 686.9 75.5 688 78.1C689.1 80.7 689.7 83.7 689.7 86.8C689.7 89.1 689.3 91.5 688.5 93.8C687.7 96.1 686.6 98.4 685.3 100.6C683.9 102.8 682.4 105 680.6 107.2C678.8 109.4 676.9 111.6 674.9 113.7L653.7 136.6H693.3V144.8H641.7V144.6Z" fill="white" stroke="black" stroke-width="2" stroke-miterlimit="10"/>
    <path d="M734 144.6V78.6L713.4 86.4V77.3L743.2 65.8H744V144.6H734Z" fill="white" stroke="black" stroke-width="2" stroke-miterlimit="10"/>
    <path d="M23.9 102.4C23.9 99.6 21.6 97.3 18.8 97.3C16 97.3 13.7 99.6 13.7 102.4C13.7 105.2 16 107.5 18.8 107.5C21.6 107.5 23.9 105.2 23.9 102.4Z" fill="white"/>
    <path d="M781 102.4C781 99.4 778.6 97 775.6 97C772.6 97 770.2 99.4 770.2 102.4C770.2 105.4 772.6 107.8 775.6 107.8C778.5 107.8 781 105.4 781 102.4Z" fill="white"/>
</svg>
