<?xml version="1.0" encoding="utf-8"?>
<!-- Generator: Adobe Illustrator 24.1.3, SVG Export Plug-In . SVG Version: 6.00 Build 0)  -->
<svg version="1.1" id="Layer_1" xmlns="http://www.w3.org/2000/svg" xmlns:xlink="http://www.w3.org/1999/xlink" x="0px" y="0px"
	 viewBox="0 0 588.1 948.8" style="enable-background:new 0 0 588.1 948.8;" xml:space="preserve">
<style type="text/css">
	.st0{fill:#FFFFFF;stroke:#000000;stroke-width:5;}
</style>
<path class="st0" d="M259.3,3.4L259.3,3.4C347.2-2.1,428.4,17,485.1,60.3c56.5,43.1,88.8,110.4,78.6,202.1
	c-6.8,60.8-46.5,100.2-85,133.3c-14.5,12.5-29.9,23.1-45.4,33.7c-5.9,4.1-11.8,8.1-17.7,12.3c-21.1,15-41.5,31.3-57.8,53.6l0,0
	c-10.2,13.9-16,31.5-19.5,50.9c-3.4,18.7-4.6,39.3-5.6,60.2H190.7c2.4-66.9,8-120.8,37.4-161.8l0,0c15.2-21.2,37.5-39.1,60.8-56.7
	c2.7-2.1,5.5-4.2,8.3-6.2c20.6-15.5,41.4-31.2,57.8-49c10-10.8,25.5-29.2,36.2-50.6c10.7-21.3,16.8-46,7.1-69.1l-2.3,1l2.3-1
	c-9-21.3-28.2-35.5-52.4-43.5c-24.2-8-53.7-10-83.9-6.8c-31,3.3-55.1,16.1-71.6,35.8c-16,19.1-24.8,44.4-26.3,73.1H2.6
	c4.1-83,27.4-147.1,69.6-191.9C114.9,34.3,177.1,8.5,259.3,3.4z"/>
<path class="st0" d="M351.3,733.6c0,49-40.4,88.8-90.3,88.8c-49.9,0-90.3-39.8-90.3-88.8c0-49,40.4-88.8,90.3-88.8
	C310.9,644.8,351.3,684.6,351.3,733.6z"/>
</svg>
