<svg xmlns="http://www.w3.org/2000/svg" xmlns:xlink="http://www.w3.org/1999/xlink" width="799.08" height="731.16" viewBox="0 0 799.08 731.16"><defs><style>.a{fill:none;}.b,.e{fill:#fff;}.c{clip-path:url(#a);}.d{fill:#202124;}.e{stroke:#000;stroke-width:0.25px;}.e,.h{stroke-miterlimit:10;}.f{fill:#5e6369;}.g{fill:#3b4043;}.h{fill:#010101;stroke:#fff;fill-rule:evenodd;}</style><clipPath id="a"><rect class="a" x="36.02" y="266.81" width="650.88" height="213.07"/></clipPath></defs><title>DEFESSSST FINAAAAAAL [Recovered]</title><path class="b" d="M744.5,319.76A75.89,75.89,0,0,0,743,217.29h0l0,0a75.9,75.9,0,0,0-52.77-23.94h0l-1.48,0-1.15,0-1.16,0-1.47,0h0a75.9,75.9,0,0,0-52.76,23.94l0,0h0a75.89,75.89,0,0,0-1.47,102.47.26.26,0,0,1,0,.08c0,.06.12.09.17.15A75.89,75.89,0,0,0,685,345.35h0l1.48,0c.39,0,.77,0,1.16,0l1.15,0,1.47,0h0a75.9,75.9,0,0,0,54.11-25.41c0-.05.09-.06.12-.11S744.48,319.79,744.5,319.76ZM616.82,272h31.49A97.06,97.06,0,0,0,654.65,304a96.59,96.59,0,0,0-21.28,10.84A70.55,70.55,0,0,1,616.82,272Zm18-49.79a96.37,96.37,0,0,0,20.73,10.19,96.83,96.83,0,0,0-7.22,34.35H616.82A70.55,70.55,0,0,1,634.8,222.16ZM758.37,266.7H726.88a96.83,96.83,0,0,0-7.22-34.35,96.37,96.37,0,0,0,20.73-10.19A70.55,70.55,0,0,1,758.37,266.7ZM685,232.5a91.94,91.94,0,0,1-22.22-3.37A91.5,91.5,0,0,1,685,200.18Zm0,5.25V266.7H653.56a91.81,91.81,0,0,1,7-32.73A97.11,97.11,0,0,0,685,237.75Zm5.25,0A97.11,97.11,0,0,0,714.64,234a91.59,91.59,0,0,1,7,32.73H690.22Zm0-5.25V200.18a91.68,91.68,0,0,1,22.23,28.95A92.09,92.09,0,0,1,690.22,232.5Zm27.31-5a96.85,96.85,0,0,0-20.7-28.43,70.66,70.66,0,0,1,39.84,19.2A91.69,91.69,0,0,1,717.53,227.54Zm-59.87,0a91.93,91.93,0,0,1-19.14-9.23,70.66,70.66,0,0,1,39.84-19.2A96.85,96.85,0,0,0,657.66,227.54ZM653.56,272H685v26.34a96.66,96.66,0,0,0-25.35,4A91.73,91.73,0,0,1,653.56,272ZM685,303.54v34.94a91.73,91.73,0,0,1-23.31-31.27A91.55,91.55,0,0,1,685,303.54Zm5.25,34.94V303.54a91.55,91.55,0,0,1,23.31,3.67A91.73,91.73,0,0,1,690.22,338.48Zm0-40.19V272h31.41a91.49,91.49,0,0,1-6.07,30.38A96.52,96.52,0,0,0,690.22,298.29ZM726.88,272h31.49a70.49,70.49,0,0,1-16.55,42.9A96.59,96.59,0,0,0,720.54,304,97.06,97.06,0,0,0,726.88,272Zm-90,46.83a90.77,90.77,0,0,1,19.73-9.92,96.75,96.75,0,0,0,21.7,30.69A70.71,70.71,0,0,1,636.93,318.78Zm59.9,20.77a96.64,96.64,0,0,0,21.7-30.69,90.77,90.77,0,0,1,19.73,9.92A70.71,70.71,0,0,1,696.83,339.55Z"/><g class="c"><rect class="d" x="36.02" y="266.81" width="650.88" height="213.07"/><path class="e" d="M75.09,373.94a22.86,22.86,0,0,1,3.7-7.75,16.93,16.93,0,0,1,5.92-5,17.29,17.29,0,0,1,8-1.77,15.39,15.39,0,0,1,6.63,1.35,15.85,15.85,0,0,1,5.07,3.83V340.17h12.37v68.08H105.6l-.62-5a16.3,16.3,0,0,1-5.32,4.35,15.49,15.49,0,0,1-7.09,1.55,16.63,16.63,0,0,1-7.86-1.84,17.36,17.36,0,0,1-5.88-5.08,23.63,23.63,0,0,1-3.72-7.69,34.7,34.7,0,0,1-1.29-9.68v-.93A37.13,37.13,0,0,1,75.09,373.94Zm11.57,16.51a13.71,13.71,0,0,0,1.66,4.5,8.72,8.72,0,0,0,3,3.06,8.35,8.35,0,0,0,4.43,1.11,9.57,9.57,0,0,0,5.3-1.37,9.79,9.79,0,0,0,3.34-3.77V374.56a9.6,9.6,0,0,0-3.32-3.79,9.43,9.43,0,0,0-5.23-1.35,8.42,8.42,0,0,0-4.46,1.13,8.92,8.92,0,0,0-3,3.08,15.07,15.07,0,0,0-1.68,4.64,28.1,28.1,0,0,0-.53,5.65v.93A28.92,28.92,0,0,0,86.66,390.45Z"/><path class="e" d="M142.79,407.32a23.65,23.65,0,0,1-7.76-5,21.38,21.38,0,0,1-5-7.33A23.4,23.4,0,0,1,128.3,386v-1.78a27.88,27.88,0,0,1,1.73-10,23.23,23.23,0,0,1,4.83-7.82,21.77,21.77,0,0,1,7.35-5.1,25.28,25.28,0,0,1,18.51-.11,19.42,19.42,0,0,1,6.89,4.81,21.09,21.09,0,0,1,4.26,7.47,30.33,30.33,0,0,1,1.46,9.64v5.23H140.8v.13a16.79,16.79,0,0,0,1.59,4.63,11.51,11.51,0,0,0,2.62,3.17,12.18,12.18,0,0,0,3.85,2.26,13.49,13.49,0,0,0,4.75.8,18.77,18.77,0,0,0,7-1.37,13,13,0,0,0,5.54-4.12l6.16,6.64a20.7,20.7,0,0,1-7.44,6,25.32,25.32,0,0,1-12.06,2.71A26.81,26.81,0,0,1,142.79,407.32Zm4.79-37.21a8.82,8.82,0,0,0-3,2.11,11.73,11.73,0,0,0-2.21,3.28,17.64,17.64,0,0,0-1.33,4.25h20.21v-1a9.61,9.61,0,0,0-.71-3.68,9.35,9.35,0,0,0-2-3,9.08,9.08,0,0,0-3-2,10.81,10.81,0,0,0-4.14-.73A9.62,9.62,0,0,0,147.58,370.11Z"/><path class="e" d="M181,360.29h12.85l10.55,33.82.66,3.37.67-3.37,10.5-33.82h12.86l-18.22,48H199.3Z"/><path class="e" d="M250.45,369.38H237.86v-9.09h12.59v-2.61A21.64,21.64,0,0,1,252,349.3a16.56,16.56,0,0,1,4.3-6.12,18.43,18.43,0,0,1,6.78-3.74,29.51,29.51,0,0,1,8.91-1.26c1,0,2,0,3,.11s1.9.17,2.81.28,1.84.26,2.77.4l2.91.49-.8,9.66c-1.12-.23-2.39-.44-3.81-.62a42.68,42.68,0,0,0-5-.26,16.84,16.84,0,0,0-5.27.71,8,8,0,0,0-3.46,2.08,7,7,0,0,0-1.71,2.84,12.12,12.12,0,0,0-.55,3.81v2.61H280.1v9.09H262.82v38.87H250.45Z"/><path class="e" d="M306.21,407.32a23.65,23.65,0,0,1-7.76-5,21.24,21.24,0,0,1-5-7.33,23.4,23.4,0,0,1-1.75-9.06v-1.78a28.1,28.1,0,0,1,1.72-10,23.41,23.41,0,0,1,4.84-7.82,21.68,21.68,0,0,1,7.35-5.1,23.4,23.4,0,0,1,9.27-1.81,23.64,23.64,0,0,1,9.24,1.7,19.42,19.42,0,0,1,6.89,4.81,21.09,21.09,0,0,1,4.26,7.47,30.33,30.33,0,0,1,1.46,9.64v5.23H304.22v.13a16.79,16.79,0,0,0,1.59,4.63,11.51,11.51,0,0,0,2.62,3.17,12.07,12.07,0,0,0,3.85,2.26,13.48,13.48,0,0,0,4.74.8,18.78,18.78,0,0,0,7.05-1.37,13,13,0,0,0,5.54-4.12l6.16,6.64a20.7,20.7,0,0,1-7.44,6,25.32,25.32,0,0,1-12.06,2.71A26.78,26.78,0,0,1,306.21,407.32ZM311,370.11a8.73,8.73,0,0,0-3,2.11,11.73,11.73,0,0,0-2.21,3.28,17.64,17.64,0,0,0-1.33,4.25h20.21v-1a9.61,9.61,0,0,0-.71-3.68,9.35,9.35,0,0,0-1.95-3,9.08,9.08,0,0,0-3-2,10.85,10.85,0,0,0-4.14-.73A9.62,9.62,0,0,0,311,370.11Z"/><path class="e" d="M377.9,393.14a4.92,4.92,0,0,0-1.79-1.6,18.45,18.45,0,0,0-3.5-1.33c-1.45-.41-3.28-.83-5.5-1.24a51.79,51.79,0,0,1-7.69-2.11,23.32,23.32,0,0,1-6-3.08,13.5,13.5,0,0,1-3.88-4.12,10.38,10.38,0,0,1-1.4-5.41,12.1,12.1,0,0,1,1.42-5.67,14.51,14.51,0,0,1,4.08-4.74,20.76,20.76,0,0,1,6.47-3.24,28.61,28.61,0,0,1,8.6-1.19,32,32,0,0,1,9,1.17,21.76,21.76,0,0,1,6.78,3.21,14.57,14.57,0,0,1,4.21,4.92,13.32,13.32,0,0,1,1.46,6.16H377.88a6.09,6.09,0,0,0-.4-2.23,5.42,5.42,0,0,0-1.2-1.89,7.69,7.69,0,0,0-3-1.77,13.76,13.76,0,0,0-4.54-.67,15.31,15.31,0,0,0-3.94.45,7.78,7.78,0,0,0-2.75,1.24,5,5,0,0,0-1.49,1.66,4.24,4.24,0,0,0-.51,2,4.38,4.38,0,0,0,.45,2,4,4,0,0,0,1.59,1.62,11.67,11.67,0,0,0,3.06,1.35,33.5,33.5,0,0,0,5,1,64.12,64.12,0,0,1,8.07,1.82,25.22,25.22,0,0,1,6.43,2.84,13.56,13.56,0,0,1,4.23,4.27,11.22,11.22,0,0,1,1.53,6,11.67,11.67,0,0,1-1.53,5.88,14.36,14.36,0,0,1-4.32,4.63,22.2,22.2,0,0,1-6.83,3,33.66,33.66,0,0,1-8.91,1.09,29.38,29.38,0,0,1-9.55-1.42,21.74,21.74,0,0,1-6.93-3.72,15.5,15.5,0,0,1-4.24-5.16,13,13,0,0,1-1.44-5.83h11.75a6.74,6.74,0,0,0,1.06,3.34,7.06,7.06,0,0,0,2.4,2.24,10.76,10.76,0,0,0,3.34,1.29,19.13,19.13,0,0,0,3.88.4,17.94,17.94,0,0,0,4.19-.43,9.77,9.77,0,0,0,2.95-1.13,5,5,0,0,0,1.66-1.64,3.89,3.89,0,0,0,.55-2A3.68,3.68,0,0,0,377.9,393.14Z"/><path class="e" d="M424.55,360.29h17.91v9.09H424.55V390a13.57,13.57,0,0,0,.6,4.36,6.48,6.48,0,0,0,1.71,2.77,6.18,6.18,0,0,0,2.68,1.51,12.78,12.78,0,0,0,3.52.45c.95,0,1.92-.05,2.91-.14s1.94-.2,2.85-.35,1.73-.25,2.51-.4,1.45-.3,2-.44l1.19,8.46a15,15,0,0,1-3,1.31,29.55,29.55,0,0,1-3.68.91c-1.3.23-2.65.42-4.06.55s-2.78.2-4.14.2a23.27,23.27,0,0,1-7.16-1,13.73,13.73,0,0,1-5.47-3.26,14.2,14.2,0,0,1-3.55-5.56,23.64,23.64,0,0,1-1.24-8.13V369.38h-11v-9.09h11V348.55h12.32Z"/><path class="e" d="M455.18,408.25v-5.9l21.14-23.49c1.89-2.09,3.47-4,4.74-5.58a35.43,35.43,0,0,0,3.06-4.52,16.28,16.28,0,0,0,1.64-3.88,14.54,14.54,0,0,0,.49-3.79,12.82,12.82,0,0,0-.78-4.5,10.66,10.66,0,0,0-2.23-3.66,11.26,11.26,0,0,0-3.62-2.46,12,12,0,0,0-4.76-.9,15.33,15.33,0,0,0-5.61.93,10.38,10.38,0,0,0-3.92,2.61,11,11,0,0,0-2.37,4.17,17.8,17.8,0,0,0-.78,5.45h-8.24a20.76,20.76,0,0,1,1.42-7.69,18.3,18.3,0,0,1,4.12-6.32,19.44,19.44,0,0,1,6.54-4.3,23.11,23.11,0,0,1,8.84-1.59,23.62,23.62,0,0,1,8.22,1.35,17.72,17.72,0,0,1,6.18,3.75,16.07,16.07,0,0,1,3.88,5.67,18.57,18.57,0,0,1,1.35,7.14,17.27,17.27,0,0,1-1,5.69A29.47,29.47,0,0,1,490.9,372a47.59,47.59,0,0,1-3.87,5.43c-1.47,1.79-3,3.57-4.64,5.34l-17.33,18.8h32.4v6.69Z"/><path class="e" d="M551.45,394.49a22.78,22.78,0,0,1-4.08,8,17.06,17.06,0,0,1-6.51,5,21.89,21.89,0,0,1-8.82,1.69,22.26,22.26,0,0,1-8.82-1.67,17,17,0,0,1-6.61-5,22.19,22.19,0,0,1-4.12-8,38.22,38.22,0,0,1-1.42-10.93V368.45a38.22,38.22,0,0,1,1.42-10.93,22.55,22.55,0,0,1,4.12-8,17.18,17.18,0,0,1,6.54-5,23.6,23.6,0,0,1,17.64,0,17.63,17.63,0,0,1,6.58,5,23.16,23.16,0,0,1,4.08,8,38.58,38.58,0,0,1,1.42,10.93v15.11A38.58,38.58,0,0,1,551.45,394.49Zm-7-31.85a23.89,23.89,0,0,0-1.27-5.65,11.65,11.65,0,0,0-2.46-4.1,9.52,9.52,0,0,0-3.7-2.53,14.11,14.11,0,0,0-5.07-.84,13.63,13.63,0,0,0-5.17.91,10.28,10.28,0,0,0-3.79,2.64,14,14,0,0,0-2.77,5.6,31.58,31.58,0,0,0-.91,8v15.29Zm.17,13.52v-5.67l-25.08,19.19a21.94,21.94,0,0,0,1.41,5.69,12,12,0,0,0,2.66,4.06,9.83,9.83,0,0,0,3.64,2.28,13.83,13.83,0,0,0,4.79.78,13.68,13.68,0,0,0,5-.84,10.09,10.09,0,0,0,3.68-2.44,13.11,13.11,0,0,0,3-5.68,31.37,31.37,0,0,0,1-8.24Z"/><path class="e" d="M564.13,408.25v-5.9l21.14-23.49c1.89-2.09,3.47-4,4.74-5.58a35.43,35.43,0,0,0,3.06-4.52,16.7,16.7,0,0,0,1.64-3.88,15,15,0,0,0,.49-3.79,12.82,12.82,0,0,0-.78-4.5,10.68,10.68,0,0,0-2.24-3.66,11.22,11.22,0,0,0-3.61-2.46,12,12,0,0,0-4.77-.9,15.31,15.31,0,0,0-5.6.93,10.38,10.38,0,0,0-3.92,2.61,10.87,10.87,0,0,0-2.38,4.17,18.12,18.12,0,0,0-.77,5.45h-8.25A21,21,0,0,1,564.3,355a18.44,18.44,0,0,1,4.12-6.32,19.64,19.64,0,0,1,6.54-4.3,23.18,23.18,0,0,1,8.84-1.59,23.64,23.64,0,0,1,8.23,1.35,17.81,17.81,0,0,1,6.18,3.75,16.2,16.2,0,0,1,3.88,5.67,18.57,18.57,0,0,1,1.35,7.14,17.29,17.29,0,0,1-1,5.69,30,30,0,0,1-2.61,5.56,47.7,47.7,0,0,1-3.88,5.43q-2.19,2.68-4.63,5.34L574,401.56h32.4v6.69Z"/><path class="e" d="M639.7,408.25V354.18l-16.89,6.42v-7.49l24.42-9.39h.67v64.53Z"/><path class="f" d="M75.09,280.65a23,23,0,0,1,3.7-7.76,16.61,16.61,0,0,1,13.87-6.78,15.39,15.39,0,0,1,6.63,1.35,15.74,15.74,0,0,1,5.07,3.84V246.88h12.37V315H105.6l-.62-5a16.14,16.14,0,0,1-5.32,4.34,15.49,15.49,0,0,1-7.09,1.55A16.52,16.52,0,0,1,84.71,314a17.33,17.33,0,0,1-5.88-5.07,23.63,23.63,0,0,1-3.72-7.69,34.72,34.72,0,0,1-1.29-9.69v-.93A37.05,37.05,0,0,1,75.09,280.65Zm11.57,16.51a13.71,13.71,0,0,0,1.66,4.5,8.72,8.72,0,0,0,3,3.06,8.34,8.34,0,0,0,4.43,1.1,9.49,9.49,0,0,0,5.3-1.37,9.72,9.72,0,0,0,3.34-3.77V281.27a8.85,8.85,0,0,0-8.55-5.14,8.42,8.42,0,0,0-4.46,1.13,8.83,8.83,0,0,0-3,3.08A15,15,0,0,0,86.68,285a28.17,28.17,0,0,0-.53,5.65v.93A29.1,29.1,0,0,0,86.66,297.16Z"/><path class="f" d="M142.79,314a23.63,23.63,0,0,1-7.76-5,21.42,21.42,0,0,1-5-7.34,23.4,23.4,0,0,1-1.75-9.06v-1.77a27.85,27.85,0,0,1,1.73-10,23.13,23.13,0,0,1,4.83-7.82,21.77,21.77,0,0,1,7.35-5.1,25.15,25.15,0,0,1,18.51-.11,19.42,19.42,0,0,1,6.89,4.81,21,21,0,0,1,4.26,7.47,30.33,30.33,0,0,1,1.46,9.64V295H140.8v.13a16.91,16.91,0,0,0,1.59,4.63A11.66,11.66,0,0,0,145,302.9a12.37,12.37,0,0,0,3.85,2.26,13.73,13.73,0,0,0,4.75.8,18.59,18.59,0,0,0,7-1.38,12.87,12.87,0,0,0,5.54-4.12l6.16,6.65a20.7,20.7,0,0,1-7.44,6,25.43,25.43,0,0,1-12.06,2.7A26.62,26.62,0,0,1,142.79,314Zm4.79-37.2a8.66,8.66,0,0,0-3,2.1,12,12,0,0,0-2.21,3.28,17.72,17.72,0,0,0-1.33,4.26h20.21v-1a9.65,9.65,0,0,0-.71-3.68,9.3,9.3,0,0,0-2-3,8.93,8.93,0,0,0-3-2,10.81,10.81,0,0,0-4.14-.74A9.62,9.62,0,0,0,147.58,276.82Z"/><path class="f" d="M181,267h12.85l10.55,33.82.66,3.36.67-3.36L216.23,267h12.86l-18.22,48H199.3Z"/><path class="f" d="M250.45,276.08H237.86V267h12.59v-2.62A21.59,21.59,0,0,1,252,256a16.4,16.4,0,0,1,4.3-6.12,18.45,18.45,0,0,1,6.78-3.75,29.51,29.51,0,0,1,8.91-1.26c1,0,2,0,3,.11s1.9.17,2.81.29,1.84.25,2.77.4l2.91.49-.8,9.66c-1.12-.24-2.39-.44-3.81-.62a40.43,40.43,0,0,0-5-.27,17.14,17.14,0,0,0-5.27.71,8.08,8.08,0,0,0-3.46,2.08,7.1,7.1,0,0,0-1.71,2.84,12.12,12.12,0,0,0-.55,3.81V267H280.1v9.08H262.82V315H250.45Z"/><path class="f" d="M306.21,314a23.63,23.63,0,0,1-7.76-5,21.28,21.28,0,0,1-5-7.34,23.4,23.4,0,0,1-1.75-9.06v-1.77a28.06,28.06,0,0,1,1.72-10,23.31,23.31,0,0,1,4.84-7.82,21.68,21.68,0,0,1,7.35-5.1,25.15,25.15,0,0,1,18.51-.11,19.42,19.42,0,0,1,6.89,4.81,21,21,0,0,1,4.26,7.47,30.33,30.33,0,0,1,1.46,9.64V295H304.22v.13a16.91,16.91,0,0,0,1.59,4.63,11.66,11.66,0,0,0,2.62,3.17,12.26,12.26,0,0,0,3.85,2.26,13.71,13.71,0,0,0,4.74.8,18.6,18.6,0,0,0,7.05-1.38,12.93,12.93,0,0,0,5.54-4.12l6.16,6.65a20.7,20.7,0,0,1-7.44,6,25.43,25.43,0,0,1-12.06,2.7A26.58,26.58,0,0,1,306.21,314Zm4.79-37.2a8.57,8.57,0,0,0-3,2.1,12,12,0,0,0-2.21,3.28,17.72,17.72,0,0,0-1.33,4.26h20.21v-1a9.65,9.65,0,0,0-.71-3.68,9.3,9.3,0,0,0-1.95-3,8.93,8.93,0,0,0-3-2,10.85,10.85,0,0,0-4.14-.74A9.62,9.62,0,0,0,311,276.82Z"/><path class="f" d="M377.9,299.84a5,5,0,0,0-1.79-1.59,17.8,17.8,0,0,0-3.5-1.33c-1.45-.42-3.28-.83-5.5-1.25a53.06,53.06,0,0,1-7.69-2.1,23.64,23.64,0,0,1-6-3.08,13.62,13.62,0,0,1-3.88-4.12,10.41,10.41,0,0,1-1.4-5.41,12.1,12.1,0,0,1,1.42-5.67,14.44,14.44,0,0,1,4.08-4.75,20.75,20.75,0,0,1,6.47-3.23,28.6,28.6,0,0,1,8.6-1.2,31.6,31.6,0,0,1,9,1.18,21.76,21.76,0,0,1,6.78,3.21,14.57,14.57,0,0,1,4.21,4.92,13.29,13.29,0,0,1,1.46,6.16H377.88a6.14,6.14,0,0,0-.4-2.24,5.48,5.48,0,0,0-1.2-1.88,7.69,7.69,0,0,0-3-1.77,13.5,13.5,0,0,0-4.54-.67,15.8,15.8,0,0,0-3.94.44,8,8,0,0,0-2.75,1.24,5,5,0,0,0-1.49,1.67,4.17,4.17,0,0,0-.51,2,4.43,4.43,0,0,0,.45,2A4,4,0,0,0,362.1,284a11.34,11.34,0,0,0,3.06,1.36,36.3,36.3,0,0,0,5,1,66,66,0,0,1,8.07,1.81,25.57,25.57,0,0,1,6.43,2.84,13.58,13.58,0,0,1,4.23,4.28,11.2,11.2,0,0,1,1.53,6,11.63,11.63,0,0,1-1.53,5.87,14.26,14.26,0,0,1-4.32,4.63,22.21,22.21,0,0,1-6.83,3,34.08,34.08,0,0,1-8.91,1.09,29.66,29.66,0,0,1-9.55-1.42,22,22,0,0,1-6.93-3.73,15.31,15.31,0,0,1-4.24-5.16,13,13,0,0,1-1.44-5.83h11.75a6.78,6.78,0,0,0,1.06,3.35,7.06,7.06,0,0,0,2.4,2.24,10.51,10.51,0,0,0,3.34,1.28,20,20,0,0,0,8.07,0,10,10,0,0,0,2.95-1.13,5.1,5.1,0,0,0,1.66-1.64,3.9,3.9,0,0,0,.55-2A3.68,3.68,0,0,0,377.9,299.84Z"/><path class="f" d="M424.55,267h17.91v9.08H424.55v20.61a13.63,13.63,0,0,0,.6,4.37,6.54,6.54,0,0,0,1.71,2.77,6.29,6.29,0,0,0,2.68,1.51,13.19,13.19,0,0,0,3.52.44c.95,0,1.92,0,2.91-.13s1.94-.21,2.85-.36,1.73-.25,2.51-.4,1.45-.29,2-.44l1.19,8.47a15,15,0,0,1-3,1.3,27.88,27.88,0,0,1-3.68.91c-1.3.24-2.65.42-4.06.56s-2.78.2-4.14.2a23,23,0,0,1-7.16-1.05,13.71,13.71,0,0,1-5.47-3.25,14.24,14.24,0,0,1-3.55-5.57,23.64,23.64,0,0,1-1.24-8.13V276.08h-11V267h11V255.25h12.32Z"/><path class="f" d="M455.18,315v-5.9l21.14-23.49q2.83-3.15,4.74-5.59a34.74,34.74,0,0,0,3.06-4.52,16.39,16.39,0,0,0,1.64-3.87,14.54,14.54,0,0,0,.49-3.79,12.82,12.82,0,0,0-.78-4.5,10.48,10.48,0,0,0-2.23-3.66,11.26,11.26,0,0,0-3.62-2.46,11.82,11.82,0,0,0-4.76-.91,15.33,15.33,0,0,0-5.61.93,10.29,10.29,0,0,0-3.92,2.62A11,11,0,0,0,463,264a17.91,17.91,0,0,0-.78,5.46h-8.24a20.72,20.72,0,0,1,1.42-7.69,18.21,18.21,0,0,1,4.12-6.32,19.29,19.29,0,0,1,6.54-4.3,23.11,23.11,0,0,1,8.84-1.6,23.62,23.62,0,0,1,8.22,1.36,17.85,17.85,0,0,1,6.18,3.74,16.19,16.19,0,0,1,3.88,5.68,18.52,18.52,0,0,1,1.35,7.13,17.33,17.33,0,0,1-1,5.7,29.76,29.76,0,0,1-2.62,5.56,49.43,49.43,0,0,1-3.87,5.43c-1.47,1.79-3,3.57-4.64,5.34l-17.33,18.79h32.4V315Z"/><path class="f" d="M551.45,301.19a22.61,22.61,0,0,1-4.08,8,17.09,17.09,0,0,1-6.51,5,21.89,21.89,0,0,1-8.82,1.68,22.26,22.26,0,0,1-8.82-1.66,17,17,0,0,1-6.61-5,22,22,0,0,1-4.12-8,38.15,38.15,0,0,1-1.42-10.92V275.15a38.15,38.15,0,0,1,1.42-10.92,22.6,22.6,0,0,1,4.12-8.05,17.16,17.16,0,0,1,6.54-5,23.6,23.6,0,0,1,17.64,0,17.6,17.6,0,0,1,6.58,5,23.21,23.21,0,0,1,4.08,8.05,38.5,38.5,0,0,1,1.42,10.92v15.12A38.5,38.5,0,0,1,551.45,301.19Zm-7-31.84a23.89,23.89,0,0,0-1.27-5.65,11.65,11.65,0,0,0-2.46-4.1,9.31,9.31,0,0,0-3.7-2.53,14.11,14.11,0,0,0-5.07-.84,13.63,13.63,0,0,0-5.17.91,10.15,10.15,0,0,0-3.79,2.63,14.06,14.06,0,0,0-2.77,5.61,31.52,31.52,0,0,0-.91,8v15.29Zm.17,13.52v-5.68l-25.08,19.19a22,22,0,0,0,1.41,5.7,11.94,11.94,0,0,0,2.66,4.05,9.85,9.85,0,0,0,3.64,2.29,14.07,14.07,0,0,0,4.79.77,13.68,13.68,0,0,0,5-.84,9.85,9.85,0,0,0,3.68-2.44,13.08,13.08,0,0,0,3-5.67,31.37,31.37,0,0,0,1-8.24Z"/><path class="f" d="M564.13,315v-5.9l21.14-23.49q2.84-3.15,4.74-5.59a34.74,34.74,0,0,0,3.06-4.52,16.82,16.82,0,0,0,1.64-3.87,15,15,0,0,0,.49-3.79,12.82,12.82,0,0,0-.78-4.5,10.5,10.5,0,0,0-2.24-3.66,11.22,11.22,0,0,0-3.61-2.46,11.83,11.83,0,0,0-4.77-.91,15.31,15.31,0,0,0-5.6.93,10.29,10.29,0,0,0-3.92,2.62A10.9,10.9,0,0,0,571.9,264a18.23,18.23,0,0,0-.77,5.46h-8.25a20.93,20.93,0,0,1,1.42-7.69,18.35,18.35,0,0,1,4.12-6.32,19.49,19.49,0,0,1,6.54-4.3,23.18,23.18,0,0,1,8.84-1.6,23.64,23.64,0,0,1,8.23,1.36,17.94,17.94,0,0,1,6.18,3.74,16.33,16.33,0,0,1,3.88,5.68,18.52,18.52,0,0,1,1.35,7.13,17.34,17.34,0,0,1-1,5.7,30.35,30.35,0,0,1-2.61,5.56,49.55,49.55,0,0,1-3.88,5.43q-2.19,2.69-4.63,5.34L574,308.26h32.4V315Z"/><path class="f" d="M639.7,315V260.88l-16.89,6.43v-7.49l24.42-9.4h.67V315Z"/><path class="g" d="M67.42,467.24a22.91,22.91,0,0,1,3.7-7.76,17,17,0,0,1,5.92-5A17.29,17.29,0,0,1,85,452.7a15.39,15.39,0,0,1,6.63,1.35,15.74,15.74,0,0,1,5.07,3.84V433.46h12.37v68.08H97.93l-.62-5A16.14,16.14,0,0,1,92,500.88a15.49,15.49,0,0,1-7.09,1.55A16.52,16.52,0,0,1,77,500.59a17.33,17.33,0,0,1-5.88-5.07,23.63,23.63,0,0,1-3.72-7.69,34.72,34.72,0,0,1-1.29-9.69v-.93A37.05,37.05,0,0,1,67.42,467.24ZM79,483.75a13.71,13.71,0,0,0,1.66,4.5,8.72,8.72,0,0,0,3,3.06,8.44,8.44,0,0,0,4.43,1.1,9.49,9.49,0,0,0,5.3-1.37,9.72,9.72,0,0,0,3.34-3.77V467.86a8.85,8.85,0,0,0-8.55-5.14,8.33,8.33,0,0,0-4.46,1.13,8.83,8.83,0,0,0-3,3.08A15,15,0,0,0,79,471.56a28.17,28.17,0,0,0-.53,5.65v.93A29.1,29.1,0,0,0,79,483.75Z"/><path class="g" d="M135.12,500.61a23.63,23.63,0,0,1-7.76-5,21.42,21.42,0,0,1-5-7.34,23.4,23.4,0,0,1-1.75-9.06v-1.77a27.85,27.85,0,0,1,1.73-10,23.27,23.27,0,0,1,4.83-7.83,21.89,21.89,0,0,1,7.35-5.09,25.15,25.15,0,0,1,18.51-.11,19.3,19.3,0,0,1,6.89,4.81,21,21,0,0,1,4.26,7.46,30.42,30.42,0,0,1,1.46,9.64v5.23H133.13v.14a16.91,16.91,0,0,0,1.59,4.63,11.66,11.66,0,0,0,2.62,3.17,12.37,12.37,0,0,0,3.85,2.26,13.73,13.73,0,0,0,4.75.8,18.59,18.59,0,0,0,7-1.38,12.87,12.87,0,0,0,5.54-4.12l6.16,6.65a20.8,20.8,0,0,1-7.44,6,25.43,25.43,0,0,1-12.06,2.7A26.58,26.58,0,0,1,135.12,500.61Zm4.79-37.21a8.82,8.82,0,0,0-3,2.11,12,12,0,0,0-2.21,3.28,17.78,17.78,0,0,0-1.33,4.25h20.21v-1a9.65,9.65,0,0,0-.71-3.68,9.3,9.3,0,0,0-1.95-3,9.1,9.1,0,0,0-3-2,11,11,0,0,0-4.14-.73A9.8,9.8,0,0,0,139.91,463.4Z"/><path class="g" d="M173.33,453.59h12.85l10.55,33.82.66,3.36.67-3.36,10.5-33.82h12.86l-18.22,48H191.63Z"/><path class="g" d="M242.78,462.67H230.19v-9.08h12.59V451a21.68,21.68,0,0,1,1.51-8.38,16.44,16.44,0,0,1,4.3-6.11,18.45,18.45,0,0,1,6.78-3.75,29.51,29.51,0,0,1,8.91-1.26c1,0,2,0,3,.11s1.9.17,2.81.29,1.84.25,2.77.4l2.91.49-.8,9.66c-1.12-.24-2.39-.45-3.81-.62a40.43,40.43,0,0,0-5-.27,17.14,17.14,0,0,0-5.27.71,8,8,0,0,0-3.46,2.08,7.1,7.1,0,0,0-1.71,2.84,12.12,12.12,0,0,0-.55,3.81v2.62h17.28v9.08H255.15v38.87H242.78Z"/><path class="g" d="M298.54,500.61a23.63,23.63,0,0,1-7.76-5,21.28,21.28,0,0,1-5-7.34,23.4,23.4,0,0,1-1.75-9.06v-1.77a28.06,28.06,0,0,1,1.72-10,23.45,23.45,0,0,1,4.84-7.83,21.79,21.79,0,0,1,7.35-5.09,25.15,25.15,0,0,1,18.51-.11,19.3,19.3,0,0,1,6.89,4.81,21,21,0,0,1,4.26,7.46,30.42,30.42,0,0,1,1.46,9.64v5.23H296.55v.14a16.91,16.91,0,0,0,1.59,4.63,11.66,11.66,0,0,0,2.62,3.17,12.26,12.26,0,0,0,3.85,2.26,13.71,13.71,0,0,0,4.74.8,18.6,18.6,0,0,0,7-1.38,12.93,12.93,0,0,0,5.54-4.12l6.16,6.65a20.89,20.89,0,0,1-7.44,6,25.43,25.43,0,0,1-12.06,2.7A26.58,26.58,0,0,1,298.54,500.61Zm4.79-37.21a8.73,8.73,0,0,0-3,2.11,12,12,0,0,0-2.21,3.28,17.78,17.78,0,0,0-1.33,4.25H317v-1a9.65,9.65,0,0,0-.71-3.68,9.3,9.3,0,0,0-1.95-3,9.1,9.1,0,0,0-3-2,11,11,0,0,0-4.14-.73A9.8,9.8,0,0,0,303.33,463.4Z"/><path class="g" d="M370.23,486.43a5.11,5.11,0,0,0-1.79-1.6,18.51,18.51,0,0,0-3.5-1.32c-1.45-.42-3.28-.83-5.5-1.25a53.06,53.06,0,0,1-7.69-2.1,23.64,23.64,0,0,1-6-3.08,13.62,13.62,0,0,1-3.88-4.12,10.41,10.41,0,0,1-1.4-5.41,12.1,12.1,0,0,1,1.42-5.67,14.44,14.44,0,0,1,4.08-4.75,20.75,20.75,0,0,1,6.47-3.23,28.6,28.6,0,0,1,8.6-1.2,31.6,31.6,0,0,1,9,1.18,21.76,21.76,0,0,1,6.78,3.21,14.57,14.57,0,0,1,4.21,4.92,13.29,13.29,0,0,1,1.46,6.16H370.21a6.14,6.14,0,0,0-.4-2.24,5.48,5.48,0,0,0-1.2-1.88,7.82,7.82,0,0,0-3-1.78,13.77,13.77,0,0,0-4.54-.66,15.94,15.94,0,0,0-3.95.44,8,8,0,0,0-2.74,1.24A5,5,0,0,0,352.9,465a4.17,4.17,0,0,0-.51,2,4.35,4.35,0,0,0,.45,2,4,4,0,0,0,1.59,1.62,11,11,0,0,0,3.06,1.35,34.69,34.69,0,0,0,5,1,64.16,64.16,0,0,1,8.07,1.81,25.57,25.57,0,0,1,6.43,2.84,13.58,13.58,0,0,1,4.23,4.28,11.2,11.2,0,0,1,1.53,6,11.63,11.63,0,0,1-1.53,5.87,14.26,14.26,0,0,1-4.32,4.63,22.21,22.21,0,0,1-6.83,3,34.08,34.08,0,0,1-8.91,1.09,29.61,29.61,0,0,1-9.55-1.42,22,22,0,0,1-6.93-3.73,15.31,15.31,0,0,1-4.24-5.16,13,13,0,0,1-1.44-5.83h11.75a6.78,6.78,0,0,0,1.06,3.35,7.16,7.16,0,0,0,2.4,2.24,10.51,10.51,0,0,0,3.34,1.28,20,20,0,0,0,8.07,0,10.15,10.15,0,0,0,2.95-1.13,5.1,5.1,0,0,0,1.66-1.64,3.9,3.9,0,0,0,.55-2A3.68,3.68,0,0,0,370.23,486.43Z"/><path class="g" d="M416.88,453.59h17.91v9.08H416.88v20.61a13.63,13.63,0,0,0,.6,4.37,6.54,6.54,0,0,0,1.71,2.77,6.29,6.29,0,0,0,2.68,1.51,13.19,13.19,0,0,0,3.52.44c.95,0,1.92,0,2.91-.13s1.94-.21,2.85-.36,1.73-.25,2.51-.4,1.45-.29,2-.44l1.19,8.47a15.3,15.3,0,0,1-3,1.3,27.88,27.88,0,0,1-3.68.91c-1.3.24-2.65.42-4.06.56s-2.78.2-4.14.2a23,23,0,0,1-7.16-1.05,13.71,13.71,0,0,1-5.47-3.25,14.24,14.24,0,0,1-3.55-5.57,23.64,23.64,0,0,1-1.24-8.13V462.67H393.61v-9.08h10.95V441.84h12.32Z"/><path class="g" d="M447.51,501.54v-5.89l21.14-23.49q2.84-3.15,4.74-5.59a34.74,34.74,0,0,0,3.06-4.52,16.28,16.28,0,0,0,1.64-3.88,14.48,14.48,0,0,0,.49-3.79,12.8,12.8,0,0,0-.78-4.49,10.48,10.48,0,0,0-2.23-3.66,11.26,11.26,0,0,0-3.62-2.46,11.82,11.82,0,0,0-4.76-.91,15.33,15.33,0,0,0-5.61.93,10.29,10.29,0,0,0-3.92,2.62,11,11,0,0,0-2.37,4.16,17.89,17.89,0,0,0-.78,5.45h-8.24a20.8,20.8,0,0,1,1.42-7.69,18.26,18.26,0,0,1,4.12-6.31,19.29,19.29,0,0,1,6.54-4.3,23.11,23.11,0,0,1,8.84-1.6,23.39,23.39,0,0,1,8.22,1.36,17.85,17.85,0,0,1,6.18,3.74,16.25,16.25,0,0,1,3.88,5.67,18.6,18.6,0,0,1,1.35,7.14,17.33,17.33,0,0,1-1,5.7,29.76,29.76,0,0,1-2.62,5.56,49.43,49.43,0,0,1-3.87,5.43c-1.47,1.79-3,3.57-4.64,5.34l-17.33,18.79h32.4v6.69Z"/><path class="g" d="M543.78,487.78a22.61,22.61,0,0,1-4.08,8,17.09,17.09,0,0,1-6.51,5,22,22,0,0,1-8.82,1.68,22.26,22.26,0,0,1-8.82-1.66,16.9,16.9,0,0,1-6.61-5,22,22,0,0,1-4.12-8,38.15,38.15,0,0,1-1.42-10.92V461.74a38.15,38.15,0,0,1,1.42-10.92,22.6,22.6,0,0,1,4.12-8.05,17.16,17.16,0,0,1,6.54-5,23.6,23.6,0,0,1,17.64,0,17.6,17.6,0,0,1,6.58,5,23.21,23.21,0,0,1,4.08,8.05,38.5,38.5,0,0,1,1.42,10.92v15.12A38.5,38.5,0,0,1,543.78,487.78Zm-7-31.84a24,24,0,0,0-1.27-5.66,11.6,11.6,0,0,0-2.46-4.09,9.31,9.31,0,0,0-3.7-2.53,14.11,14.11,0,0,0-5.07-.84,13.63,13.63,0,0,0-5.17.91,10.15,10.15,0,0,0-3.79,2.63,14.06,14.06,0,0,0-2.77,5.61,31.52,31.52,0,0,0-.91,8v15.29Zm.17,13.51v-5.67L511.87,483a22,22,0,0,0,1.41,5.7,11.94,11.94,0,0,0,2.66,4.05,9.85,9.85,0,0,0,3.64,2.29,14.07,14.07,0,0,0,4.79.77,13.68,13.68,0,0,0,5-.84A9.85,9.85,0,0,0,533,492.5a13.24,13.24,0,0,0,3-5.67,31.43,31.43,0,0,0,1-8.24Z"/><path class="g" d="M556.46,501.54v-5.89l21.14-23.49q2.83-3.15,4.74-5.59a34.74,34.74,0,0,0,3.06-4.52,16.7,16.7,0,0,0,1.64-3.88,14.92,14.92,0,0,0,.49-3.79,12.8,12.8,0,0,0-.78-4.49,10.5,10.5,0,0,0-2.24-3.66,11.22,11.22,0,0,0-3.61-2.46,11.83,11.83,0,0,0-4.77-.91,15.31,15.31,0,0,0-5.6.93,10.29,10.29,0,0,0-3.92,2.62,10.9,10.9,0,0,0-2.38,4.16,18.21,18.21,0,0,0-.77,5.45h-8.25a21,21,0,0,1,1.42-7.69,18.4,18.4,0,0,1,4.12-6.31,19.49,19.49,0,0,1,6.54-4.3,25.39,25.39,0,0,1,17.07-.24,17.94,17.94,0,0,1,6.18,3.74,16.38,16.38,0,0,1,3.88,5.67,18.6,18.6,0,0,1,1.35,7.14,17.34,17.34,0,0,1-1,5.7,30.35,30.35,0,0,1-2.61,5.56,49.55,49.55,0,0,1-3.88,5.43c-1.46,1.79-3,3.57-4.63,5.34l-17.33,18.79h32.4v6.69Z"/><path class="g" d="M632,501.54V447.47l-16.89,6.43v-7.49l24.42-9.4h.67v64.53Z"/><path class="b" d="M56.67,375.7a5.86,5.86,0,1,0-5.86,5.86,5.86,5.86,0,0,0,5.86-5.86"/><path class="b" d="M676.69,379.55a5.86,5.86,0,1,0-5.86,5.86,5.87,5.87,0,0,0,5.86-5.86"/><rect class="a" x="35.4" y="268.12" width="650.88" height="213.07"/></g><rect class="b" x="35.4" y="479.88" width="193.5" height="130.91"/><path class="h" d="M113.51,520.17,83.27,537.63a8.65,8.65,0,0,0-3.17,11.83h0a8.66,8.66,0,0,0,11.83,3.17l30.24-17.46a8.66,8.66,0,0,0,3.17-11.83h0A8.66,8.66,0,0,0,113.51,520.17Z"/><path class="h" d="M121.89,555.22,91.65,537.76a8.66,8.66,0,0,0-11.83,3.18h0A8.67,8.67,0,0,0,83,552.77l30.24,17.46a8.66,8.66,0,0,0,11.83-3.17h0A8.67,8.67,0,0,0,121.89,555.22Z"/><path class="h" d="M142.12,555.5,172.36,538a8.66,8.66,0,0,1,11.83,3.17h0A8.66,8.66,0,0,1,181,553L150.78,570.5A8.66,8.66,0,0,1,139,567.33h0A8.66,8.66,0,0,1,142.12,555.5Z"/><path class="h" d="M151.05,520.44,181.3,537.9a8.66,8.66,0,0,1,3.17,11.83h0a8.66,8.66,0,0,1-11.84,3.17l-30.24-17.46a8.66,8.66,0,0,1-3.17-11.83h0A8.66,8.66,0,0,1,151.05,520.44Z"/></svg>