<svg xmlns="http://www.w3.org/2000/svg" xmlns:xlink="http://www.w3.org/1999/xlink" width="737.67" height="429.35" viewBox="0 0 737.67 429.35"><defs><style>.a{fill:none;}.b,.e{fill:#fff;}.c{clip-path:url(#a);}.d{fill:#202124;}.e{stroke:#000;stroke-width:0.25px;}.e,.h{stroke-miterlimit:10;}.f{fill:#5e6369;}.g{fill:#3b4043;}.h{fill:#010101;stroke:#fff;fill-rule:evenodd;}</style><clipPath id="a"><rect class="a" x="6.45" y="85.37" width="650.88" height="213.07"/></clipPath></defs><title>logo devfest</title><path class="b" d="M714.93,138.32a75.89,75.89,0,0,0-1.47-102.47h0l0,0a75.9,75.9,0,0,0-52.77-23.94h0l-1.48,0-1.16,0-1.15,0-1.48,0h0a75.86,75.86,0,0,0-52.76,23.94l0,0h0a75.86,75.86,0,0,0-1.47,102.47.26.26,0,0,0,0,.08c.05.06.12.09.17.15a75.89,75.89,0,0,0,54.07,25.36h0l1.48,0,1.15,0c.39,0,.77,0,1.16,0l1.47,0h0a75.92,75.92,0,0,0,54.11-25.41c0-.05.09-.06.12-.11S714.91,138.35,714.93,138.32ZM587.25,90.51h31.49a97.06,97.06,0,0,0,6.34,32.06,96.37,96.37,0,0,0-21.28,10.84A70.49,70.49,0,0,1,587.25,90.51Zm18-49.79A96.37,96.37,0,0,0,626,50.91a96.83,96.83,0,0,0-7.22,34.35H587.25A70.49,70.49,0,0,1,605.23,40.72ZM728.8,85.26H697.31a96.83,96.83,0,0,0-7.22-34.35,96.37,96.37,0,0,0,20.73-10.19A70.55,70.55,0,0,1,728.8,85.26Zm-73.4-34.2a92,92,0,0,1-22.23-3.37A91.68,91.68,0,0,1,655.4,18.74Zm0,5.25v29H624a91.59,91.59,0,0,1,7-32.73A97.11,97.11,0,0,0,655.4,56.31Zm5.25,0a97.11,97.11,0,0,0,24.42-3.78,91.59,91.59,0,0,1,7,32.73H660.65Zm0-5.25V18.74a91.5,91.5,0,0,1,22.22,29A91.94,91.94,0,0,1,660.65,51.06Zm27.31-5a96.85,96.85,0,0,0-20.7-28.43,70.66,70.66,0,0,1,39.84,19.2A91.93,91.93,0,0,1,688,46.1Zm-59.87,0A91.69,91.69,0,0,1,609,36.87a70.66,70.66,0,0,1,39.84-19.2A96.67,96.67,0,0,0,628.09,46.1ZM624,90.51H655.4v26.34a96.66,96.66,0,0,0-25.35,4A91.48,91.48,0,0,1,624,90.51ZM655.4,122.1V157a91.73,91.73,0,0,1-23.31-31.27A91.55,91.55,0,0,1,655.4,122.1ZM660.65,157V122.1A91.62,91.62,0,0,1,684,125.77,91.86,91.86,0,0,1,660.65,157Zm0-40.19V90.51h31.41A91.49,91.49,0,0,1,686,120.89,96.58,96.58,0,0,0,660.65,116.85Zm36.66-26.34H728.8a70.49,70.49,0,0,1-16.55,42.9A96.59,96.59,0,0,0,691,122.57,97.06,97.06,0,0,0,697.31,90.51Zm-89.95,46.83a90.92,90.92,0,0,1,19.72-9.92,96.94,96.94,0,0,0,21.71,30.69A70.71,70.71,0,0,1,607.36,137.34Zm59.9,20.77A96.8,96.8,0,0,0,689,127.42a90.77,90.77,0,0,1,19.73,9.92A70.73,70.73,0,0,1,667.26,158.11Z"/><g class="c"><rect class="d" x="6.45" y="85.37" width="650.88" height="213.07"/><path class="e" d="M45.52,192.5a22.86,22.86,0,0,1,3.7-7.75,16.9,16.9,0,0,1,5.91-5,17.34,17.34,0,0,1,8-1.77,15.39,15.39,0,0,1,6.63,1.35,16,16,0,0,1,5.07,3.83V158.73H87.16v68.08H76l-.62-5a16.3,16.3,0,0,1-5.32,4.35A15.52,15.52,0,0,1,63,227.7a16.67,16.67,0,0,1-7.87-1.84,17.32,17.32,0,0,1-5.87-5.08,23.63,23.63,0,0,1-3.72-7.69,34.7,34.7,0,0,1-1.29-9.68v-.93A36.73,36.73,0,0,1,45.52,192.5ZM57.08,209a13.72,13.72,0,0,0,1.67,4.5,8.63,8.63,0,0,0,3,3.06,8.35,8.35,0,0,0,4.43,1.11,9.57,9.57,0,0,0,5.3-1.37,9.87,9.87,0,0,0,3.34-3.77V193.12a9.68,9.68,0,0,0-3.32-3.79A9.43,9.43,0,0,0,66.24,188a8.39,8.39,0,0,0-4.46,1.13,8.92,8.92,0,0,0-3,3.08,15.07,15.07,0,0,0-1.68,4.64,28.08,28.08,0,0,0-.54,5.65v.93A28.92,28.92,0,0,0,57.08,209Z"/><path class="e" d="M113.22,225.88a23.65,23.65,0,0,1-7.76-5,21.24,21.24,0,0,1-5-7.33,23.4,23.4,0,0,1-1.75-9.06v-1.78a28.1,28.1,0,0,1,1.72-10,23.41,23.41,0,0,1,4.84-7.82,21.68,21.68,0,0,1,7.35-5.1,23.4,23.4,0,0,1,9.27-1.81,23.64,23.64,0,0,1,9.24,1.7,19.42,19.42,0,0,1,6.89,4.81A21.09,21.09,0,0,1,142.3,192a30.33,30.33,0,0,1,1.46,9.64v5.23H111.23V207a16.79,16.79,0,0,0,1.59,4.63,11.51,11.51,0,0,0,2.62,3.17,12.07,12.07,0,0,0,3.85,2.26,13.48,13.48,0,0,0,4.74.8,18.78,18.78,0,0,0,7.05-1.37,13,13,0,0,0,5.54-4.12l6.16,6.64a20.7,20.7,0,0,1-7.44,6,25.32,25.32,0,0,1-12.06,2.71A26.78,26.78,0,0,1,113.22,225.88ZM118,188.67a8.73,8.73,0,0,0-3,2.11,11.73,11.73,0,0,0-2.21,3.28,17.64,17.64,0,0,0-1.33,4.25h20.21v-1a9.61,9.61,0,0,0-.71-3.68,9.35,9.35,0,0,0-1.95-3,9.08,9.08,0,0,0-3-2,10.85,10.85,0,0,0-4.14-.73A9.62,9.62,0,0,0,118,188.67Z"/><path class="e" d="M151.43,178.85h12.85l10.55,33.82.66,3.37.67-3.37,10.5-33.82h12.86l-18.22,48H169.73Z"/><path class="e" d="M220.88,187.94H208.29v-9.09h12.59v-2.61a21.64,21.64,0,0,1,1.51-8.38,16.56,16.56,0,0,1,4.3-6.12,18.43,18.43,0,0,1,6.78-3.74,29.51,29.51,0,0,1,8.91-1.26c1,0,2,0,3,.11s1.9.17,2.81.28,1.84.26,2.77.4l2.91.49-.8,9.66c-1.12-.23-2.39-.44-3.81-.62a42.68,42.68,0,0,0-5-.26,17,17,0,0,0-5.28.71,8,8,0,0,0-3.45,2.08,7,7,0,0,0-1.71,2.84,12.12,12.12,0,0,0-.55,3.81v2.61h17.28v9.09H233.25v38.87H220.88Z"/><path class="e" d="M276.64,225.88a23.55,23.55,0,0,1-7.76-5,21.24,21.24,0,0,1-5-7.33,23.4,23.4,0,0,1-1.75-9.06v-1.78a28.1,28.1,0,0,1,1.72-10,23.55,23.55,0,0,1,4.83-7.82,21.81,21.81,0,0,1,7.36-5.1,23.4,23.4,0,0,1,9.27-1.81,23.64,23.64,0,0,1,9.24,1.7,19.42,19.42,0,0,1,6.89,4.81,20.92,20.92,0,0,1,4.25,7.47,30,30,0,0,1,1.47,9.64v5.23H274.64V207a17.1,17.1,0,0,0,1.6,4.63,11.65,11.65,0,0,0,2.61,3.17,12.23,12.23,0,0,0,3.86,2.26,13.48,13.48,0,0,0,4.74.8,18.78,18.78,0,0,0,7.05-1.37,13,13,0,0,0,5.54-4.12L306.2,219a20.79,20.79,0,0,1-7.44,6,25.32,25.32,0,0,1-12.06,2.71A26.78,26.78,0,0,1,276.64,225.88Zm4.79-37.21a8.73,8.73,0,0,0-3,2.11,11.73,11.73,0,0,0-2.21,3.28,17.2,17.2,0,0,0-1.33,4.25h20.21v-1a9.61,9.61,0,0,0-.71-3.68,9.51,9.51,0,0,0-1.95-3,9.08,9.08,0,0,0-3-2,10.89,10.89,0,0,0-4.14-.73A9.62,9.62,0,0,0,281.43,188.67Z"/><path class="e" d="M348.33,211.7a4.92,4.92,0,0,0-1.79-1.6,18.31,18.31,0,0,0-3.51-1.33c-1.44-.41-3.28-.83-5.49-1.24a51.79,51.79,0,0,1-7.69-2.11,23.32,23.32,0,0,1-6-3.08,13.5,13.5,0,0,1-3.88-4.12,10.38,10.38,0,0,1-1.4-5.41,12.1,12.1,0,0,1,1.42-5.67,14.51,14.51,0,0,1,4.08-4.74,20.76,20.76,0,0,1,6.47-3.24,28.61,28.61,0,0,1,8.6-1.19,32,32,0,0,1,9,1.17,21.76,21.76,0,0,1,6.78,3.21,14.57,14.57,0,0,1,4.21,4.92,13.32,13.32,0,0,1,1.46,6.16H348.31a6.09,6.09,0,0,0-.4-2.23,5.57,5.57,0,0,0-1.2-1.89,7.76,7.76,0,0,0-3-1.77,13.76,13.76,0,0,0-4.54-.67,15.45,15.45,0,0,0-3.95.45,7.73,7.73,0,0,0-2.74,1.24,5,5,0,0,0-1.49,1.66,4.24,4.24,0,0,0-.51,2,4.51,4.51,0,0,0,.44,2,4.05,4.05,0,0,0,1.6,1.62,11.67,11.67,0,0,0,3.06,1.35,33.5,33.5,0,0,0,5,1,64.12,64.12,0,0,1,8.07,1.82,25.22,25.22,0,0,1,6.43,2.84,13.56,13.56,0,0,1,4.23,4.27,11.22,11.22,0,0,1,1.53,6,11.67,11.67,0,0,1-1.53,5.88,14.36,14.36,0,0,1-4.32,4.63,22.2,22.2,0,0,1-6.83,3,33.66,33.66,0,0,1-8.91,1.09,29.34,29.34,0,0,1-9.55-1.42,21.9,21.9,0,0,1-6.94-3.72,15.59,15.59,0,0,1-4.23-5.16,13,13,0,0,1-1.44-5.83h11.75a6.74,6.74,0,0,0,1.06,3.34,7.12,7.12,0,0,0,2.39,2.24,10.82,10.82,0,0,0,3.35,1.29,19.13,19.13,0,0,0,3.88.4,18,18,0,0,0,4.19-.43,9.7,9.7,0,0,0,2.94-1.13,5,5,0,0,0,1.67-1.64,3.89,3.89,0,0,0,.55-2A3.68,3.68,0,0,0,348.33,211.7Z"/><path class="e" d="M395,178.85h17.91v9.09H395v20.61a13.57,13.57,0,0,0,.6,4.36,6.48,6.48,0,0,0,1.71,2.77,6.13,6.13,0,0,0,2.68,1.51,12.78,12.78,0,0,0,3.52.45c.95,0,1.91,0,2.9-.14s1.95-.2,2.86-.35,1.72-.25,2.51-.4,1.45-.3,2-.44l1.2,8.46a15.3,15.3,0,0,1-3,1.31,30,30,0,0,1-3.68.91c-1.3.23-2.65.42-4.06.55s-2.78.2-4.14.2a23.27,23.27,0,0,1-7.16-1,13.73,13.73,0,0,1-5.47-3.26,14.2,14.2,0,0,1-3.55-5.56,23.64,23.64,0,0,1-1.24-8.13V187.94h-11v-9.09h11V167.11H395Z"/><path class="e" d="M425.61,226.81v-5.9l21.14-23.49c1.89-2.09,3.47-4,4.74-5.58a35.43,35.43,0,0,0,3.06-4.52,16.28,16.28,0,0,0,1.64-3.88,14.54,14.54,0,0,0,.49-3.79,12.82,12.82,0,0,0-.78-4.5,10.53,10.53,0,0,0-2.24-3.66,11.11,11.11,0,0,0-3.61-2.46,12,12,0,0,0-4.76-.9,15.33,15.33,0,0,0-5.61.93,10.38,10.38,0,0,0-3.92,2.61,10.72,10.72,0,0,0-2.37,4.17,17.8,17.8,0,0,0-.78,5.45h-8.24a20.76,20.76,0,0,1,1.42-7.69,18.3,18.3,0,0,1,4.12-6.32,19.44,19.44,0,0,1,6.54-4.3,23.11,23.11,0,0,1,8.84-1.59,23.62,23.62,0,0,1,8.22,1.35,17.72,17.72,0,0,1,6.18,3.75,16.07,16.07,0,0,1,3.88,5.67,18.57,18.57,0,0,1,1.35,7.14,17.27,17.27,0,0,1-1,5.69,29.47,29.47,0,0,1-2.62,5.56,46.49,46.49,0,0,1-3.88,5.43q-2.19,2.69-4.63,5.34l-17.33,18.8h32.4v6.69Z"/><path class="e" d="M521.88,213.05a22.78,22.78,0,0,1-4.08,8,17,17,0,0,1-6.52,5,21.89,21.89,0,0,1-8.82,1.69,22.26,22.26,0,0,1-8.82-1.67,16.91,16.91,0,0,1-6.6-5,22.19,22.19,0,0,1-4.12-8,38.22,38.22,0,0,1-1.42-10.93V187a38.22,38.22,0,0,1,1.42-10.93,22.55,22.55,0,0,1,4.12-8,17.18,17.18,0,0,1,6.54-5,23.6,23.6,0,0,1,17.64,0,17.63,17.63,0,0,1,6.58,5,23.16,23.16,0,0,1,4.08,8A38.58,38.58,0,0,1,523.3,187v15.11A38.58,38.58,0,0,1,521.88,213.05Zm-7-31.85a23.42,23.42,0,0,0-1.26-5.65,11.65,11.65,0,0,0-2.46-4.1,9.52,9.52,0,0,0-3.7-2.53,14.11,14.11,0,0,0-5.07-.84,13.59,13.59,0,0,0-5.17.91,10.28,10.28,0,0,0-3.79,2.64,14,14,0,0,0-2.77,5.6,31.58,31.58,0,0,0-.91,8v15.29Zm.18,13.52v-5.67L490,208.24a21.54,21.54,0,0,0,1.41,5.69A12,12,0,0,0,494,218a9.83,9.83,0,0,0,3.64,2.28,15.08,15.08,0,0,0,9.75-.06,10.09,10.09,0,0,0,3.68-2.44,13.22,13.22,0,0,0,3-5.68,31.8,31.8,0,0,0,.95-8.24Z"/><path class="e" d="M534.55,226.81v-5.9l21.15-23.49c1.89-2.09,3.47-4,4.74-5.58a35.43,35.43,0,0,0,3.06-4.52,16.7,16.7,0,0,0,1.64-3.88,15,15,0,0,0,.48-3.79,12.82,12.82,0,0,0-.77-4.5,10.68,10.68,0,0,0-2.24-3.66A11.22,11.22,0,0,0,559,169a12,12,0,0,0-4.77-.9,15.31,15.31,0,0,0-5.6.93,10.5,10.5,0,0,0-3.93,2.61,11,11,0,0,0-2.37,4.17,18.12,18.12,0,0,0-.77,5.45h-8.25a21,21,0,0,1,1.42-7.69,18.44,18.44,0,0,1,4.12-6.32,19.64,19.64,0,0,1,6.54-4.3,23.15,23.15,0,0,1,8.84-1.59,23.64,23.64,0,0,1,8.23,1.35,17.9,17.9,0,0,1,6.18,3.75,16.2,16.2,0,0,1,3.88,5.67,18.57,18.57,0,0,1,1.35,7.14,17.29,17.29,0,0,1-1,5.69,30,30,0,0,1-2.61,5.56A47.7,47.7,0,0,1,566.4,196c-1.46,1.79-3,3.57-4.63,5.34l-17.33,18.8h32.4v6.69Z"/><path class="e" d="M610.12,226.81V172.74l-16.88,6.42v-7.49l24.42-9.39h.66v64.53Z"/><path class="f" d="M45.52,99.21a23,23,0,0,1,3.7-7.76,17.11,17.11,0,0,1,5.91-5,17.34,17.34,0,0,1,8-1.77A15.39,15.39,0,0,1,69.72,86a15.85,15.85,0,0,1,5.07,3.84V65.44H87.16v68.08H76l-.62-5a16.14,16.14,0,0,1-5.32,4.34A15.52,15.52,0,0,1,63,134.4a16.56,16.56,0,0,1-7.87-1.84,17.29,17.29,0,0,1-5.87-5.07,23.63,23.63,0,0,1-3.72-7.69,34.72,34.72,0,0,1-1.29-9.69v-.93A36.66,36.66,0,0,1,45.52,99.21Zm11.56,16.51a13.72,13.72,0,0,0,1.67,4.5,8.63,8.63,0,0,0,3,3.06,8.34,8.34,0,0,0,4.43,1.1,9.49,9.49,0,0,0,5.3-1.37,9.8,9.8,0,0,0,3.34-3.77V99.83A9.54,9.54,0,0,0,71.47,96a9.43,9.43,0,0,0-5.23-1.35,8.39,8.39,0,0,0-4.46,1.13,8.83,8.83,0,0,0-3,3.08,15,15,0,0,0-1.68,4.63,28.15,28.15,0,0,0-.54,5.65v.93A29.1,29.1,0,0,0,57.08,115.72Z"/><path class="f" d="M113.22,132.58a23.63,23.63,0,0,1-7.76-5,21.28,21.28,0,0,1-5-7.34,23.4,23.4,0,0,1-1.75-9.06v-1.77a28.06,28.06,0,0,1,1.72-10,23.31,23.31,0,0,1,4.84-7.82,21.68,21.68,0,0,1,7.35-5.1,25.15,25.15,0,0,1,18.51-.11A19.42,19.42,0,0,1,138,91.19a21,21,0,0,1,4.26,7.47,30.33,30.33,0,0,1,1.46,9.64v5.23H111.23v.13a16.91,16.91,0,0,0,1.59,4.63,11.66,11.66,0,0,0,2.62,3.17,12.26,12.26,0,0,0,3.85,2.26,13.71,13.71,0,0,0,4.74.8,18.6,18.6,0,0,0,7.05-1.38,12.93,12.93,0,0,0,5.54-4.12l6.16,6.65a20.7,20.7,0,0,1-7.44,6,25.43,25.43,0,0,1-12.06,2.7A26.58,26.58,0,0,1,113.22,132.58ZM118,95.38a8.57,8.57,0,0,0-3,2.1,12,12,0,0,0-2.21,3.28,17.72,17.72,0,0,0-1.33,4.26h20.21v-1a9.65,9.65,0,0,0-.71-3.68,9.3,9.3,0,0,0-1.95-3,8.93,8.93,0,0,0-3-2,10.85,10.85,0,0,0-4.14-.74A9.62,9.62,0,0,0,118,95.38Z"/><path class="f" d="M151.43,85.56h12.85l10.55,33.82.66,3.36.67-3.36,10.5-33.82h12.86l-18.22,48H169.73Z"/><path class="f" d="M220.88,94.64H208.29V85.56h12.59V82.94a21.59,21.59,0,0,1,1.51-8.37,16.4,16.4,0,0,1,4.3-6.12,18.45,18.45,0,0,1,6.78-3.75,29.51,29.51,0,0,1,8.91-1.26c1,0,2,0,3,.11s1.9.17,2.81.29,1.84.25,2.77.4l2.91.49-.8,9.66c-1.12-.24-2.39-.44-3.81-.62a40.43,40.43,0,0,0-5-.27,17.25,17.25,0,0,0-5.28.71,8,8,0,0,0-3.45,2.08,7.1,7.1,0,0,0-1.71,2.84,12.12,12.12,0,0,0-.55,3.81v2.62h17.28v9.08H233.25v38.88H220.88Z"/><path class="f" d="M276.64,132.58a23.53,23.53,0,0,1-7.76-5,21.28,21.28,0,0,1-5-7.34,23.4,23.4,0,0,1-1.75-9.06v-1.77a28.06,28.06,0,0,1,1.72-10,23.45,23.45,0,0,1,4.83-7.82,21.81,21.81,0,0,1,7.36-5.1,25.15,25.15,0,0,1,18.51-.11,19.42,19.42,0,0,1,6.89,4.81,20.83,20.83,0,0,1,4.25,7.47,30,30,0,0,1,1.47,9.64v5.23H274.64v.13a17.23,17.23,0,0,0,1.6,4.63,11.81,11.81,0,0,0,2.61,3.17,12.42,12.42,0,0,0,3.86,2.26,13.71,13.71,0,0,0,4.74.8,18.6,18.6,0,0,0,7.05-1.38A12.93,12.93,0,0,0,300,119l6.16,6.65a20.79,20.79,0,0,1-7.44,6,25.43,25.43,0,0,1-12.06,2.7A26.58,26.58,0,0,1,276.64,132.58Zm4.79-37.2a8.57,8.57,0,0,0-3,2.1,12,12,0,0,0-2.21,3.28,17.28,17.28,0,0,0-1.33,4.26h20.21v-1a9.65,9.65,0,0,0-.71-3.68,9.47,9.47,0,0,0-1.95-3,8.93,8.93,0,0,0-3-2,10.88,10.88,0,0,0-4.14-.74A9.62,9.62,0,0,0,281.43,95.38Z"/><path class="f" d="M348.33,118.4a5,5,0,0,0-1.79-1.59,17.67,17.67,0,0,0-3.51-1.33c-1.44-.42-3.28-.83-5.49-1.25a53.06,53.06,0,0,1-7.69-2.1,23.64,23.64,0,0,1-6-3.08,13.62,13.62,0,0,1-3.88-4.12,10.41,10.41,0,0,1-1.4-5.41A12.1,12.1,0,0,1,320,93.85a14.44,14.44,0,0,1,4.08-4.75,20.75,20.75,0,0,1,6.47-3.23,28.6,28.6,0,0,1,8.6-1.2,31.6,31.6,0,0,1,9,1.18A21.76,21.76,0,0,1,355,89.06,14.57,14.57,0,0,1,359.17,94a13.29,13.29,0,0,1,1.46,6.16H348.31a6.14,6.14,0,0,0-.4-2.24,5.63,5.63,0,0,0-1.2-1.88,7.76,7.76,0,0,0-3-1.77,13.5,13.5,0,0,0-4.54-.67,15.94,15.94,0,0,0-3.95.44,7.91,7.91,0,0,0-2.74,1.24A5,5,0,0,0,331,96.93a4.17,4.17,0,0,0-.51,2,4.56,4.56,0,0,0,.44,2,4.1,4.1,0,0,0,1.6,1.61,11.34,11.34,0,0,0,3.06,1.36,36.3,36.3,0,0,0,5,1,66,66,0,0,1,8.07,1.81,25.57,25.57,0,0,1,6.43,2.84,13.58,13.58,0,0,1,4.23,4.28,11.2,11.2,0,0,1,1.53,6,11.63,11.63,0,0,1-1.53,5.87,14.26,14.26,0,0,1-4.32,4.63,22.21,22.21,0,0,1-6.83,3,34.08,34.08,0,0,1-8.91,1.09,29.61,29.61,0,0,1-9.55-1.42,22.12,22.12,0,0,1-6.94-3.73,15.39,15.39,0,0,1-4.23-5.16,13,13,0,0,1-1.44-5.83h11.75a6.78,6.78,0,0,0,1.06,3.35,7.12,7.12,0,0,0,2.39,2.24,10.57,10.57,0,0,0,3.35,1.28,20,20,0,0,0,8.07,0,10,10,0,0,0,2.94-1.13,5,5,0,0,0,1.67-1.64,3.9,3.9,0,0,0,.55-2A3.68,3.68,0,0,0,348.33,118.4Z"/><path class="f" d="M395,85.56h17.91v9.08H395v20.61a13.63,13.63,0,0,0,.6,4.37,6.54,6.54,0,0,0,1.71,2.77A6.23,6.23,0,0,0,400,123.9a13.19,13.19,0,0,0,3.52.44c.95,0,1.91,0,2.9-.13s1.95-.21,2.86-.36,1.72-.25,2.51-.4,1.45-.29,2-.44l1.2,8.47a15.3,15.3,0,0,1-3,1.3,28.28,28.28,0,0,1-3.68.91c-1.3.24-2.65.42-4.06.56s-2.78.2-4.14.2a23,23,0,0,1-7.16-1,13.71,13.71,0,0,1-5.47-3.25,14.24,14.24,0,0,1-3.55-5.57,23.64,23.64,0,0,1-1.24-8.13V94.64h-11V85.56h11V73.81H395Z"/><path class="f" d="M425.61,133.52v-5.9l21.14-23.49q2.83-3.15,4.74-5.59A34.74,34.74,0,0,0,454.55,94a16.39,16.39,0,0,0,1.64-3.87,14.54,14.54,0,0,0,.49-3.79,12.82,12.82,0,0,0-.78-4.5,10.35,10.35,0,0,0-2.24-3.66,11.11,11.11,0,0,0-3.61-2.46,11.82,11.82,0,0,0-4.76-.91,15.33,15.33,0,0,0-5.61.93,10.29,10.29,0,0,0-3.92,2.62,10.75,10.75,0,0,0-2.37,4.16,17.91,17.91,0,0,0-.78,5.46h-8.24a20.72,20.72,0,0,1,1.42-7.69A18.21,18.21,0,0,1,429.91,74a19.29,19.29,0,0,1,6.54-4.3,23.11,23.11,0,0,1,8.84-1.6,23.62,23.62,0,0,1,8.22,1.36,17.85,17.85,0,0,1,6.18,3.74,16.19,16.19,0,0,1,3.88,5.68A18.52,18.52,0,0,1,464.92,86a17.33,17.33,0,0,1-1,5.7,29.76,29.76,0,0,1-2.62,5.56,48.24,48.24,0,0,1-3.88,5.43q-2.19,2.69-4.63,5.34l-17.33,18.79h32.4v6.7Z"/><path class="f" d="M521.88,119.75a22.61,22.61,0,0,1-4.08,8,17,17,0,0,1-6.52,5,21.89,21.89,0,0,1-8.82,1.68,22.26,22.26,0,0,1-8.82-1.66,16.94,16.94,0,0,1-6.6-5,22,22,0,0,1-4.12-8,38.15,38.15,0,0,1-1.42-10.92V93.71a38.15,38.15,0,0,1,1.42-10.92A22.6,22.6,0,0,1,487,74.74a17.16,17.16,0,0,1,6.54-5,23.6,23.6,0,0,1,17.64,0,17.6,17.6,0,0,1,6.58,5,23.21,23.21,0,0,1,4.08,8.05,38.5,38.5,0,0,1,1.42,10.92v15.12A38.5,38.5,0,0,1,521.88,119.75Zm-7-31.84a23.42,23.42,0,0,0-1.26-5.65,11.65,11.65,0,0,0-2.46-4.1,9.31,9.31,0,0,0-3.7-2.53,14.11,14.11,0,0,0-5.07-.84,13.59,13.59,0,0,0-5.17.91,10.15,10.15,0,0,0-3.79,2.63,14.06,14.06,0,0,0-2.77,5.61,31.52,31.52,0,0,0-.91,8v15.29Zm.18,13.52V95.75L490,114.94a21.62,21.62,0,0,0,1.41,5.7,11.94,11.94,0,0,0,2.66,4,9.85,9.85,0,0,0,3.64,2.29,14.06,14.06,0,0,0,4.78.77,13.7,13.7,0,0,0,5-.84,9.85,9.85,0,0,0,3.68-2.44,13.18,13.18,0,0,0,3-5.67,31.8,31.8,0,0,0,.95-8.24Z"/><path class="f" d="M534.55,133.52v-5.9l21.15-23.49q2.84-3.15,4.74-5.59A34.74,34.74,0,0,0,563.5,94a16.82,16.82,0,0,0,1.64-3.87,15,15,0,0,0,.48-3.79,12.82,12.82,0,0,0-.77-4.5,10.5,10.5,0,0,0-2.24-3.66A11.22,11.22,0,0,0,559,75.74a11.87,11.87,0,0,0-4.77-.91,15.31,15.31,0,0,0-5.6.93,10.4,10.4,0,0,0-3.93,2.62,11,11,0,0,0-2.37,4.16,18.23,18.23,0,0,0-.77,5.46h-8.25a20.93,20.93,0,0,1,1.42-7.69A18.35,18.35,0,0,1,538.85,74a19.49,19.49,0,0,1,6.54-4.3,23.15,23.15,0,0,1,8.84-1.6,23.64,23.64,0,0,1,8.23,1.36,18,18,0,0,1,6.18,3.74,16.33,16.33,0,0,1,3.88,5.68A18.52,18.52,0,0,1,573.87,86a17.34,17.34,0,0,1-1,5.7,30.35,30.35,0,0,1-2.61,5.56,49.55,49.55,0,0,1-3.88,5.43c-1.46,1.79-3,3.57-4.63,5.34l-17.33,18.79h32.4v6.7Z"/><path class="f" d="M610.12,133.52V79.44l-16.88,6.43V78.38L617.66,69h.66v64.54Z"/><path class="g" d="M37.85,285.8a22.91,22.91,0,0,1,3.7-7.76,17,17,0,0,1,5.91-5,17.34,17.34,0,0,1,8-1.77,15.39,15.39,0,0,1,6.63,1.35,15.85,15.85,0,0,1,5.07,3.84V252H79.49V320.1H68.36l-.62-5a16.24,16.24,0,0,1-5.32,4.34A15.52,15.52,0,0,1,55.33,321a16.56,16.56,0,0,1-7.87-1.84,17.29,17.29,0,0,1-5.87-5.07,23.63,23.63,0,0,1-3.72-7.69,34.72,34.72,0,0,1-1.29-9.69v-.93A36.66,36.66,0,0,1,37.85,285.8Zm11.56,16.51a13.72,13.72,0,0,0,1.67,4.5,8.55,8.55,0,0,0,3,3.06,8.44,8.44,0,0,0,4.43,1.1,9.43,9.43,0,0,0,5.29-1.37,9.74,9.74,0,0,0,3.35-3.77V286.42a9.54,9.54,0,0,0-3.32-3.79,9.43,9.43,0,0,0-5.23-1.35,8.3,8.3,0,0,0-4.46,1.13,8.83,8.83,0,0,0-3,3.08,15,15,0,0,0-1.68,4.63,28.15,28.15,0,0,0-.54,5.65v.93A29.1,29.1,0,0,0,49.41,302.31Z"/><path class="g" d="M105.55,319.17a23.63,23.63,0,0,1-7.76-5,21.28,21.28,0,0,1-5-7.34,23.4,23.4,0,0,1-1.75-9.06V296a28.06,28.06,0,0,1,1.72-10,23.45,23.45,0,0,1,4.84-7.83,21.79,21.79,0,0,1,7.35-5.09,25.15,25.15,0,0,1,18.51-.11,19.3,19.3,0,0,1,6.89,4.81,21,21,0,0,1,4.26,7.46,30.42,30.42,0,0,1,1.46,9.64v5.23H103.55v.14a17.23,17.23,0,0,0,1.6,4.63,11.66,11.66,0,0,0,2.62,3.17,12.26,12.26,0,0,0,3.85,2.26,13.71,13.71,0,0,0,4.74.8,18.6,18.6,0,0,0,7-1.38,12.93,12.93,0,0,0,5.54-4.12l6.16,6.65a20.89,20.89,0,0,1-7.44,6,25.43,25.43,0,0,1-12.06,2.7A26.58,26.58,0,0,1,105.55,319.17ZM110.34,282a8.73,8.73,0,0,0-3,2.11,12,12,0,0,0-2.21,3.28,17.78,17.78,0,0,0-1.33,4.25H124v-1a9.65,9.65,0,0,0-.71-3.68,9.3,9.3,0,0,0-2-3,9.1,9.1,0,0,0-3-2,11,11,0,0,0-4.14-.73A9.8,9.8,0,0,0,110.34,282Z"/><path class="g" d="M143.76,272.15h12.85L167.16,306l.66,3.36.67-3.36L179,272.15h12.86l-18.22,48H162.06Z"/><path class="g" d="M213.21,281.23H200.62v-9.08h12.59v-2.62a21.68,21.68,0,0,1,1.51-8.38A16.33,16.33,0,0,1,219,255a18.45,18.45,0,0,1,6.78-3.75,29.51,29.51,0,0,1,8.91-1.26c1,0,2,0,3,.11s1.9.17,2.81.29,1.84.25,2.77.4l2.91.49-.8,9.66c-1.12-.24-2.39-.45-3.81-.62a40.43,40.43,0,0,0-5-.27,17.25,17.25,0,0,0-5.28.71,8,8,0,0,0-3.45,2.08,7.1,7.1,0,0,0-1.71,2.84,12.12,12.12,0,0,0-.55,3.81v2.62h17.28v9.08H225.58V320.1H213.21Z"/><path class="g" d="M269,319.17a23.53,23.53,0,0,1-7.76-5,21.14,21.14,0,0,1-5-7.34,23.41,23.41,0,0,1-1.76-9.06V296a28.06,28.06,0,0,1,1.73-10,23.59,23.59,0,0,1,4.83-7.83,21.93,21.93,0,0,1,7.36-5.09A25.15,25.15,0,0,1,286.9,273a19.3,19.3,0,0,1,6.89,4.81,20.79,20.79,0,0,1,4.25,7.46,30.13,30.13,0,0,1,1.47,9.64v5.23H267v.14a17.23,17.23,0,0,0,1.6,4.63,11.81,11.81,0,0,0,2.61,3.17,12.42,12.42,0,0,0,3.86,2.26,13.71,13.71,0,0,0,4.74.8,18.6,18.6,0,0,0,7.05-1.38,12.93,12.93,0,0,0,5.54-4.12l6.16,6.65a20.89,20.89,0,0,1-7.44,6A25.43,25.43,0,0,1,279,321,26.58,26.58,0,0,1,269,319.17ZM273.76,282a8.73,8.73,0,0,0-3,2.11,11.81,11.81,0,0,0-2.21,3.28,17.34,17.34,0,0,0-1.33,4.25h20.21v-1a9.6,9.6,0,0,0-2.66-6.69,9.1,9.1,0,0,0-3-2,11.08,11.08,0,0,0-4.14-.73A9.8,9.8,0,0,0,273.76,282Z"/><path class="g" d="M340.66,305a5.11,5.11,0,0,0-1.79-1.6,18.37,18.37,0,0,0-3.51-1.32c-1.44-.42-3.28-.83-5.49-1.25a53.06,53.06,0,0,1-7.69-2.1,23.64,23.64,0,0,1-6-3.08,13.62,13.62,0,0,1-3.88-4.12,10.41,10.41,0,0,1-1.4-5.41,12,12,0,0,1,1.42-5.67,14.44,14.44,0,0,1,4.08-4.75,20.75,20.75,0,0,1,6.47-3.23,28.6,28.6,0,0,1,8.6-1.2,31.6,31.6,0,0,1,9,1.18,21.76,21.76,0,0,1,6.78,3.21,14.57,14.57,0,0,1,4.21,4.92,13.29,13.29,0,0,1,1.46,6.16H340.64a6.14,6.14,0,0,0-.4-2.24,5.79,5.79,0,0,0-1.2-1.88,7.9,7.9,0,0,0-3-1.78,13.77,13.77,0,0,0-4.54-.66,15.94,15.94,0,0,0-3.95.44,7.91,7.91,0,0,0-2.74,1.24,5,5,0,0,0-1.49,1.67,4.17,4.17,0,0,0-.51,2,4.48,4.48,0,0,0,.44,2,4.05,4.05,0,0,0,1.6,1.62,11,11,0,0,0,3.06,1.35,34.69,34.69,0,0,0,5,1,64.16,64.16,0,0,1,8.07,1.81,25.57,25.57,0,0,1,6.43,2.84,13.58,13.58,0,0,1,4.23,4.28,11.2,11.2,0,0,1,1.53,6,11.63,11.63,0,0,1-1.53,5.87,14.26,14.26,0,0,1-4.32,4.63,22.21,22.21,0,0,1-6.83,3,34.08,34.08,0,0,1-8.91,1.09,29.61,29.61,0,0,1-9.55-1.42,22.12,22.12,0,0,1-6.94-3.73,15.39,15.39,0,0,1-4.23-5.16,13,13,0,0,1-1.44-5.83h11.75a6.78,6.78,0,0,0,1.06,3.35,7.22,7.22,0,0,0,2.39,2.24,10.57,10.57,0,0,0,3.35,1.28,20,20,0,0,0,8.07,0,10,10,0,0,0,2.94-1.13,5,5,0,0,0,1.67-1.64,3.9,3.9,0,0,0,.55-2A3.68,3.68,0,0,0,340.66,305Z"/><path class="g" d="M387.31,272.15h17.91v9.08H387.31v20.61a13.63,13.63,0,0,0,.6,4.37,6.54,6.54,0,0,0,1.71,2.77,6.23,6.23,0,0,0,2.68,1.51,13.19,13.19,0,0,0,3.52.44c.95,0,1.91,0,2.9-.13s1.95-.21,2.86-.36,1.72-.25,2.51-.4,1.45-.29,2-.44l1.2,8.47a15.3,15.3,0,0,1-3,1.3,28.28,28.28,0,0,1-3.68.91c-1.3.24-2.65.42-4.06.56s-2.78.2-4.14.2a23,23,0,0,1-7.16-1.05,13.71,13.71,0,0,1-5.47-3.25,14.24,14.24,0,0,1-3.55-5.57A23.64,23.64,0,0,1,375,303V281.23H364v-9.08H375V260.4h12.32Z"/><path class="g" d="M417.94,320.1v-5.89l21.14-23.49q2.84-3.15,4.74-5.59a34.74,34.74,0,0,0,3.06-4.52,16.28,16.28,0,0,0,1.64-3.88,14.48,14.48,0,0,0,.49-3.79,12.8,12.8,0,0,0-.78-4.49,10.35,10.35,0,0,0-2.24-3.66,11.11,11.11,0,0,0-3.61-2.46,11.82,11.82,0,0,0-4.76-.91,15.33,15.33,0,0,0-5.61.93,10.29,10.29,0,0,0-3.92,2.62,10.75,10.75,0,0,0-2.37,4.16,17.89,17.89,0,0,0-.78,5.45H416.7a20.8,20.8,0,0,1,1.42-7.69,18.12,18.12,0,0,1,4.12-6.31,19.35,19.35,0,0,1,6.53-4.3,25.39,25.39,0,0,1,17.07-.24,17.85,17.85,0,0,1,6.18,3.74,16.25,16.25,0,0,1,3.88,5.67,18.6,18.6,0,0,1,1.35,7.14,17.33,17.33,0,0,1-1,5.7,29.76,29.76,0,0,1-2.62,5.56,48.24,48.24,0,0,1-3.88,5.43q-2.19,2.69-4.63,5.34l-17.33,18.79h32.4v6.69Z"/><path class="g" d="M514.21,306.34a22.61,22.61,0,0,1-4.08,8,17,17,0,0,1-6.52,5,21.89,21.89,0,0,1-8.82,1.68,22.26,22.26,0,0,1-8.82-1.66,16.94,16.94,0,0,1-6.6-5,22,22,0,0,1-4.12-8,38.15,38.15,0,0,1-1.42-10.92V280.3a38.15,38.15,0,0,1,1.42-10.92,22.6,22.6,0,0,1,4.12-8.05,17.16,17.16,0,0,1,6.54-5,23.6,23.6,0,0,1,17.64,0,17.6,17.6,0,0,1,6.58,5,23.21,23.21,0,0,1,4.08,8.05,38.5,38.5,0,0,1,1.42,10.92v15.12A38.5,38.5,0,0,1,514.21,306.34Zm-7-31.84a23.51,23.51,0,0,0-1.26-5.66,11.6,11.6,0,0,0-2.46-4.09,9.31,9.31,0,0,0-3.7-2.53,14.11,14.11,0,0,0-5.07-.84,13.59,13.59,0,0,0-5.17.91,10.15,10.15,0,0,0-3.79,2.63,14.06,14.06,0,0,0-2.77,5.61,31.52,31.52,0,0,0-.91,8v15.29Zm.18,13.51v-5.67l-25.09,19.19a22,22,0,0,0,1.42,5.7,11.94,11.94,0,0,0,2.66,4,9.85,9.85,0,0,0,3.64,2.29,14.06,14.06,0,0,0,4.78.77,13.7,13.7,0,0,0,5-.84,9.85,9.85,0,0,0,3.68-2.44,13.24,13.24,0,0,0,3-5.67,31.85,31.85,0,0,0,.95-8.24Z"/><path class="g" d="M526.88,320.1v-5.89L548,290.72q2.84-3.15,4.74-5.59a34.74,34.74,0,0,0,3.06-4.52,16.7,16.7,0,0,0,1.64-3.88,14.91,14.91,0,0,0,.48-3.79,12.8,12.8,0,0,0-.77-4.49,10.5,10.5,0,0,0-2.24-3.66,11.22,11.22,0,0,0-3.61-2.46,11.87,11.87,0,0,0-4.77-.91,15.31,15.31,0,0,0-5.6.93A10.4,10.4,0,0,0,537,265a11,11,0,0,0-2.37,4.16,18.21,18.21,0,0,0-.77,5.45h-8.25a21,21,0,0,1,1.42-7.69,18.4,18.4,0,0,1,4.12-6.31,19.49,19.49,0,0,1,6.54-4.3,23.15,23.15,0,0,1,8.84-1.6,23.41,23.41,0,0,1,8.23,1.36,18,18,0,0,1,6.18,3.74,16.38,16.38,0,0,1,3.88,5.67,18.6,18.6,0,0,1,1.35,7.14,17.34,17.34,0,0,1-1,5.7,30.35,30.35,0,0,1-2.61,5.56,49.55,49.55,0,0,1-3.88,5.43c-1.46,1.79-3,3.57-4.63,5.34l-17.33,18.79h32.4v6.69Z"/><path class="g" d="M602.45,320.1V266l-16.88,6.43V265l24.42-9.4h.66V320.1Z"/><path class="b" d="M27.1,194.26a5.86,5.86,0,1,0-5.86,5.86,5.87,5.87,0,0,0,5.86-5.86"/><path class="b" d="M647.12,198.11a5.86,5.86,0,1,0-5.86,5.86,5.87,5.87,0,0,0,5.86-5.86"/><rect class="a" x="5.82" y="86.68" width="650.88" height="213.07"/></g><rect class="b" x="5.82" y="298.44" width="193.5" height="130.91"/><path class="h" d="M83.94,338.73,53.69,356.19A8.66,8.66,0,0,0,50.52,368h0a8.68,8.68,0,0,0,11.84,3.17L92.6,353.73a8.66,8.66,0,0,0,3.17-11.83h0A8.67,8.67,0,0,0,83.94,338.73Z"/><path class="h" d="M92.32,373.78,62.08,356.32a8.66,8.66,0,0,0-11.83,3.18h0a8.67,8.67,0,0,0,3.17,11.83l30.24,17.46a8.66,8.66,0,0,0,11.83-3.17h0A8.68,8.68,0,0,0,92.32,373.78Z"/><path class="h" d="M112.55,374.06l30.24-17.46a8.66,8.66,0,0,1,11.83,3.17h0a8.66,8.66,0,0,1-3.17,11.83l-30.24,17.46a8.66,8.66,0,0,1-11.83-3.17h0A8.65,8.65,0,0,1,112.55,374.06Z"/><path class="h" d="M121.48,339l30.24,17.46a8.65,8.65,0,0,1,3.17,11.83h0a8.64,8.64,0,0,1-11.83,3.17L112.82,354a8.66,8.66,0,0,1-3.17-11.83h0A8.66,8.66,0,0,1,121.48,339Z"/></svg>